{"glyphs":{"0":{"ha":882,"x_min":76,"x_max":806,"o":"m 435 -12 q 269 31 338 -12 q 158 150 201 74 q 95 323 115 225 q 76 528 76 420 q 127 802 77 686 q 263 981 178 918 q 453 1044 348 1044 q 619 1005 551 1044 q 728 893 687 965 q 788 726 769 822 q 806 519 806 631 q 758 243 805 363 q 627 56 710 124 q 435 -12 544 -12 m 439 51 q 582 108 529 51 q 657 269 635 165 q 680 514 680 373 q 667 699 680 614 q 627 847 654 784 q 554 945 599 910 q 444 981 509 981 q 331 949 377 981 q 255 859 284 918 q 213 718 226 801 q 200 533 200 636 q 214 350 200 437 q 256 196 227 263 q 330 90 285 128 q 439 51 376 51 z "},"1":{"ha":619,"x_min":68,"x_max":576,"o":"m 286 71 l 286 906 q 230 886 267 897 q 152 865 193 875 q 82 851 112 856 l 68 917 q 163 947 115 927 q 254 991 211 966 q 329 1044 297 1017 l 331 1044 l 401 1031 l 401 71 l 576 60 l 576 0 l 96 0 l 96 60 l 286 71 z "},"2":{"ha":832,"x_min":44,"x_max":751,"o":"m 44 47 q 187 151 113 90 q 329 286 260 213 q 453 436 398 359 q 540 590 508 514 q 572 732 572 666 q 544 858 572 810 q 467 930 517 907 q 354 953 418 953 q 239 930 287 953 q 159 876 191 906 q 109 822 128 845 l 51 867 q 97 926 68 895 q 168 983 126 956 q 263 1026 209 1010 q 381 1043 316 1043 q 545 1006 476 1043 q 651 906 614 969 q 688 761 688 842 q 657 606 688 685 q 575 448 626 526 q 458 299 523 370 q 325 167 394 227 q 193 65 256 108 l 644 94 l 690 215 l 751 203 l 718 0 l 61 0 l 44 47 z "},"3":{"ha":794,"x_min":69,"x_max":703,"o":"m 211 -18 q 153 -15 185 -18 q 94 -6 121 -12 l 94 60 q 145 51 117 53 q 193 49 174 49 q 399 86 315 49 q 528 186 484 124 q 572 321 572 248 q 547 427 572 383 q 466 494 521 471 q 322 519 410 518 q 297 512 317 517 q 256 501 276 506 q 232 494 236 496 l 211 561 q 266 575 238 567 q 319 593 294 583 q 425 643 377 616 q 502 708 473 670 q 532 802 531 747 q 509 898 533 863 q 443 948 486 933 q 343 963 401 963 q 244 951 289 963 q 163 922 199 940 q 100 882 127 903 l 69 932 q 135 981 92 955 q 238 1025 178 1007 q 372 1043 298 1043 q 511 1021 447 1043 q 613 950 574 999 q 651 822 651 901 q 629 730 651 772 q 569 655 607 688 q 486 597 532 622 q 392 556 440 572 q 557 536 488 564 q 663 456 626 508 q 701 339 701 404 q 668 195 703 261 q 569 82 633 130 q 414 8 504 35 q 211 -18 323 -18 z "},"4":{"ha":838,"x_min":38,"x_max":806,"o":"m 502 0 l 502 224 l 67 224 l 38 279 q 125 433 83 356 q 205 587 167 510 q 279 740 243 664 q 350 889 315 816 q 419 1032 385 963 l 452 1032 l 533 987 l 201 369 l 148 288 l 502 307 l 502 585 l 603 593 l 603 311 l 806 321 l 806 224 l 603 224 l 603 0 l 502 0 z "},"5":{"ha":813,"x_min":115,"x_max":705,"o":"m 123 51 q 165 48 143 49 q 206 47 188 47 q 396 89 311 47 q 531 199 481 131 q 581 349 581 267 q 557 468 581 420 q 484 539 533 515 q 362 563 435 563 q 292 556 331 563 q 217 539 254 550 q 152 515 180 528 l 115 539 l 184 1032 l 594 1032 l 608 1058 l 689 1058 l 667 933 l 274 933 l 208 596 q 266 621 231 609 q 343 640 302 633 q 423 647 384 647 q 571 615 508 647 q 670 522 635 583 q 705 369 705 460 q 672 224 705 294 q 575 100 638 155 q 422 14 512 46 q 220 -18 333 -18 q 189 -17 205 -18 q 156 -15 172 -17 q 123 -8 139 -12 l 123 51 z "},"6":{"ha":831,"x_min":76,"x_max":768,"o":"m 419 -18 q 271 16 335 -18 q 164 109 207 49 q 98 248 120 169 q 76 419 76 328 q 116 647 76 538 q 227 848 155 757 q 396 1003 299 940 q 608 1092 493 1067 l 635 1039 q 470 958 540 1007 q 351 849 401 910 q 269 717 302 788 q 217 569 237 646 q 307 644 248 608 q 450 679 367 679 q 627 635 556 679 q 733 515 697 590 q 768 344 768 439 q 744 206 768 271 q 675 90 720 140 q 565 11 629 40 q 419 -18 500 -18 m 449 607 q 326 584 376 607 q 244 531 275 561 q 201 476 213 500 q 200 452 201 467 q 199 392 199 437 q 206 293 199 343 q 231 199 214 244 q 274 120 247 155 q 339 65 301 85 q 428 44 377 44 q 550 86 501 44 q 624 190 599 127 q 649 319 649 253 q 622 482 649 419 q 551 576 596 546 q 449 607 506 607 z "},"7":{"ha":765,"x_min":47,"x_max":726,"o":"m 389 -1 l 250 0 q 375 307 313 151 q 499 623 438 463 q 622 943 561 782 l 169 939 l 121 765 l 47 778 l 75 1032 l 703 1032 l 726 1001 l 389 -1 z "},"8":{"ha":803,"x_min":69,"x_max":734,"o":"m 400 -12 q 283 2 342 -12 q 176 48 225 17 q 99 130 128 79 q 69 254 69 181 q 93 358 69 308 q 164 453 116 408 q 288 532 213 497 q 200 596 240 561 q 136 677 160 631 q 113 788 113 723 q 157 930 113 872 q 270 1016 201 987 q 415 1044 340 1044 q 564 1017 499 1044 q 667 938 629 989 q 704 815 704 886 q 655 664 704 733 q 514 543 606 594 q 624 471 574 510 q 704 382 674 432 q 734 265 734 332 q 707 149 734 201 q 632 62 679 98 q 525 7 585 26 q 400 -12 465 -12 m 413 49 q 513 72 465 49 q 590 139 560 96 q 620 240 620 182 q 580 349 620 305 q 477 428 540 393 q 344 500 414 463 q 260 444 298 478 q 201 368 223 410 q 179 278 179 326 q 207 156 179 207 q 288 76 235 104 q 413 49 340 49 m 454 575 q 564 662 522 608 q 606 783 606 716 q 581 894 606 848 q 512 964 556 940 q 410 988 468 988 q 310 966 356 988 q 238 906 265 945 q 211 813 211 867 q 246 715 211 756 q 336 641 281 674 q 454 575 392 608 z "},"9":{"ha":831,"x_min":63,"x_max":754,"o":"m 411 1044 q 566 1013 501 1044 q 672 925 631 981 q 734 797 714 869 q 754 642 754 724 q 710 379 754 499 q 591 166 667 259 q 421 14 516 74 q 222 -65 326 -45 l 196 -12 q 353 64 283 17 q 475 173 423 112 q 562 307 527 235 q 614 457 597 379 q 558 405 593 430 q 477 364 523 380 q 381 347 432 347 q 246 371 305 347 q 146 439 187 395 q 84 545 105 483 q 63 682 63 606 q 86 818 63 753 q 154 934 109 883 q 264 1015 199 985 q 411 1044 328 1044 m 392 419 q 504 441 454 419 q 586 494 553 463 q 629 550 618 524 q 631 566 630 558 q 632 582 631 574 q 632 599 632 590 q 626 711 632 656 q 607 816 621 767 q 567 902 592 865 q 501 961 541 940 q 403 982 460 982 q 279 940 328 982 q 206 834 230 898 q 182 707 182 771 q 209 540 182 603 q 284 448 237 476 q 392 419 332 419 z "},"A":{"ha":978,"x_min":-4,"x_max":982,"o":"m 85 72 l 440 1042 l 560 1042 l 892 72 l 982 60 l 982 0 l 643 0 l 643 60 l 761 72 l 690 293 l 258 293 l 185 74 l 308 60 l 308 0 l -4 0 l -4 60 l 85 72 m 665 365 l 518 828 l 483 949 l 444 824 l 282 365 l 665 365 z "},"Á":{"ha":978,"x_min":-4,"x_max":982,"o":"m 85 72 l 440 1042 l 560 1042 l 892 72 l 982 60 l 982 0 l 643 0 l 643 60 l 761 72 l 690 293 l 258 293 l 185 74 l 308 60 l 308 0 l -4 0 l -4 60 l 85 72 m 665 365 l 518 828 l 483 949 l 444 824 l 282 365 l 665 365 m 499 1111 l 455 1149 l 622 1365 l 716 1289 q 672 1239 699 1266 q 615 1187 646 1213 q 555 1141 585 1161 q 501 1111 525 1121 l 499 1111 z "},"Ă":{"ha":978,"x_min":-4,"x_max":982,"o":"m 85 72 l 440 1042 l 560 1042 l 892 72 l 982 60 l 982 0 l 643 0 l 643 60 l 761 72 l 690 293 l 258 293 l 185 74 l 308 60 l 308 0 l -4 0 l -4 60 l 85 72 m 665 365 l 518 828 l 483 949 l 444 824 l 282 365 l 665 365 m 502 1129 q 398 1151 443 1129 q 328 1213 353 1173 q 303 1303 303 1252 q 303 1318 303 1310 q 306 1333 304 1326 l 368 1333 q 368 1324 368 1329 q 369 1311 369 1318 q 386 1266 373 1288 q 428 1229 400 1244 q 502 1214 456 1214 q 576 1229 549 1214 q 618 1266 604 1244 q 635 1311 631 1288 q 636 1324 636 1318 q 636 1333 636 1329 l 699 1333 q 701 1318 700 1326 q 701 1303 701 1310 q 676 1213 701 1252 q 606 1151 651 1173 q 502 1129 561 1129 z "},"Ắ":{"ha":978,"x_min":-4,"x_max":982,"o":"m 85 72 l 440 1042 l 560 1042 l 892 72 l 982 60 l 982 0 l 643 0 l 643 60 l 761 72 l 690 293 l 258 293 l 185 74 l 308 60 l 308 0 l -4 0 l -4 60 l 85 72 m 665 365 l 518 828 l 483 949 l 444 824 l 282 365 l 665 365 m 502 1129 q 398 1151 443 1129 q 328 1213 353 1173 q 303 1303 303 1252 q 303 1318 303 1310 q 306 1333 304 1326 l 368 1333 q 368 1324 368 1329 q 369 1311 369 1318 q 386 1266 373 1288 q 428 1229 400 1244 q 502 1214 456 1214 q 576 1229 549 1214 q 618 1266 604 1244 q 635 1311 631 1288 q 636 1324 636 1318 q 636 1333 636 1329 l 699 1333 q 701 1318 700 1326 q 701 1303 701 1310 q 676 1213 701 1252 q 606 1151 651 1173 q 502 1129 561 1129 m 499 1353 l 455 1390 l 622 1607 l 716 1531 q 672 1481 699 1508 q 615 1428 646 1454 q 555 1383 585 1403 q 501 1353 525 1363 l 499 1353 z "},"Ặ":{"ha":978,"x_min":-4,"x_max":982,"o":"m 85 72 l 440 1042 l 560 1042 l 892 72 l 982 60 l 982 0 l 643 0 l 643 60 l 761 72 l 690 293 l 258 293 l 185 74 l 308 60 l 308 0 l -4 0 l -4 60 l 85 72 m 665 365 l 518 828 l 483 949 l 444 824 l 282 365 l 665 365 m 502 1129 q 398 1151 443 1129 q 328 1213 353 1173 q 303 1303 303 1252 q 303 1318 303 1310 q 306 1333 304 1326 l 368 1333 q 368 1324 368 1329 q 369 1311 369 1318 q 386 1266 373 1288 q 428 1229 400 1244 q 502 1214 456 1214 q 576 1229 549 1214 q 618 1266 604 1244 q 635 1311 631 1288 q 636 1324 636 1318 q 636 1333 636 1329 l 699 1333 q 701 1318 700 1326 q 701 1303 701 1310 q 676 1213 701 1252 q 606 1151 651 1173 q 502 1129 561 1129 m 477 -274 q 421 -251 440 -274 q 401 -194 401 -228 q 423 -131 401 -160 q 487 -103 444 -103 l 488 -103 q 544 -126 525 -103 q 564 -183 564 -149 q 543 -245 564 -217 q 478 -274 522 -274 l 477 -274 z "},"Ằ":{"ha":978,"x_min":-4,"x_max":982,"o":"m 85 72 l 440 1042 l 560 1042 l 892 72 l 982 60 l 982 0 l 643 0 l 643 60 l 761 72 l 690 293 l 258 293 l 185 74 l 308 60 l 308 0 l -4 0 l -4 60 l 85 72 m 665 365 l 518 828 l 483 949 l 444 824 l 282 365 l 665 365 m 502 1129 q 398 1151 443 1129 q 328 1213 353 1173 q 303 1303 303 1252 q 303 1318 303 1310 q 306 1333 304 1326 l 368 1333 q 368 1324 368 1329 q 369 1311 369 1318 q 386 1266 373 1288 q 428 1229 400 1244 q 502 1214 456 1214 q 576 1229 549 1214 q 618 1266 604 1244 q 635 1311 631 1288 q 636 1324 636 1318 q 636 1333 636 1329 l 699 1333 q 701 1318 700 1326 q 701 1303 701 1310 q 676 1213 701 1252 q 606 1151 651 1173 q 502 1129 561 1129 m 510 1353 q 457 1383 487 1363 q 396 1428 426 1403 q 339 1481 365 1454 q 295 1531 313 1508 l 390 1607 l 556 1390 l 512 1353 l 510 1353 z "},"Ẳ":{"ha":978,"x_min":-4,"x_max":982,"o":"m 85 72 l 440 1042 l 560 1042 l 892 72 l 982 60 l 982 0 l 643 0 l 643 60 l 761 72 l 690 293 l 258 293 l 185 74 l 308 60 l 308 0 l -4 0 l -4 60 l 85 72 m 665 365 l 518 828 l 483 949 l 444 824 l 282 365 l 665 365 m 502 1129 q 398 1151 443 1129 q 328 1213 353 1173 q 303 1303 303 1252 q 303 1318 303 1310 q 306 1333 304 1326 l 368 1333 q 368 1324 368 1329 q 369 1311 369 1318 q 386 1266 373 1288 q 428 1229 400 1244 q 502 1214 456 1214 q 576 1229 549 1214 q 618 1266 604 1244 q 635 1311 631 1288 q 636 1324 636 1318 q 636 1333 636 1329 l 699 1333 q 701 1318 700 1326 q 701 1303 701 1310 q 676 1213 701 1252 q 606 1151 651 1173 q 502 1129 561 1129 m 459 1347 q 449 1370 452 1359 q 446 1395 446 1381 q 458 1430 446 1416 q 485 1454 469 1443 q 513 1476 501 1465 q 524 1505 524 1488 q 505 1543 524 1533 q 445 1554 486 1554 q 411 1550 428 1554 q 381 1539 393 1545 l 381 1614 q 426 1628 399 1622 q 477 1635 452 1635 q 552 1621 519 1635 q 604 1581 585 1607 q 623 1519 623 1556 q 612 1467 623 1487 q 584 1435 601 1447 q 552 1415 568 1424 q 522 1382 525 1399 q 523 1347 518 1364 l 459 1347 z "},"Ẵ":{"ha":978,"x_min":-4,"x_max":982,"o":"m 85 72 l 440 1042 l 560 1042 l 892 72 l 982 60 l 982 0 l 643 0 l 643 60 l 761 72 l 690 293 l 258 293 l 185 74 l 308 60 l 308 0 l -4 0 l -4 60 l 85 72 m 665 365 l 518 828 l 483 949 l 444 824 l 282 365 l 665 365 m 502 1129 q 398 1151 443 1129 q 328 1213 353 1173 q 303 1303 303 1252 q 303 1318 303 1310 q 306 1333 304 1326 l 368 1333 q 368 1324 368 1329 q 369 1311 369 1318 q 386 1266 373 1288 q 428 1229 400 1244 q 502 1214 456 1214 q 576 1229 549 1214 q 618 1266 604 1244 q 635 1311 631 1288 q 636 1324 636 1318 q 636 1333 636 1329 l 699 1333 q 701 1318 700 1326 q 701 1303 701 1310 q 676 1213 701 1252 q 606 1151 651 1173 q 502 1129 561 1129 m 580 1367 q 524 1381 546 1367 q 486 1415 502 1396 q 456 1449 471 1434 q 419 1463 440 1463 q 376 1437 392 1463 q 351 1376 361 1411 l 301 1398 q 339 1505 303 1467 q 424 1542 375 1542 q 481 1528 459 1542 q 518 1494 502 1513 q 549 1460 533 1474 q 585 1445 564 1445 q 628 1472 613 1445 q 653 1533 644 1498 l 703 1511 q 665 1404 701 1442 q 580 1367 629 1367 z "},"Ǎ":{"ha":978,"x_min":-4,"x_max":982,"o":"m 85 72 l 440 1042 l 560 1042 l 892 72 l 982 60 l 982 0 l 643 0 l 643 60 l 761 72 l 690 293 l 258 293 l 185 74 l 308 60 l 308 0 l -4 0 l -4 60 l 85 72 m 665 365 l 518 828 l 483 949 l 444 824 l 282 365 l 665 365 m 443 1122 l 274 1308 l 320 1342 l 502 1203 l 684 1342 l 730 1308 l 561 1122 l 443 1122 z "},"Â":{"ha":978,"x_min":-4,"x_max":982,"o":"m 85 72 l 440 1042 l 560 1042 l 892 72 l 982 60 l 982 0 l 643 0 l 643 60 l 761 72 l 690 293 l 258 293 l 185 74 l 308 60 l 308 0 l -4 0 l -4 60 l 85 72 m 665 365 l 518 828 l 483 949 l 444 824 l 282 365 l 665 365 m 320 1114 l 274 1149 l 443 1340 l 561 1340 l 730 1149 l 684 1114 l 502 1260 l 320 1114 z "},"Ấ":{"ha":978,"x_min":-4,"x_max":982,"o":"m 85 72 l 440 1042 l 560 1042 l 892 72 l 982 60 l 982 0 l 643 0 l 643 60 l 761 72 l 690 293 l 258 293 l 185 74 l 308 60 l 308 0 l -4 0 l -4 60 l 85 72 m 665 365 l 518 828 l 483 949 l 444 824 l 282 365 l 665 365 m 319 1107 l 274 1144 l 450 1331 l 554 1331 l 731 1144 l 685 1107 l 502 1240 l 319 1107 m 701 1293 l 699 1293 l 655 1331 l 806 1513 l 885 1449 q 829 1387 863 1418 q 761 1331 796 1356 q 701 1293 727 1306 z "},"Ậ":{"ha":978,"x_min":-4,"x_max":982,"o":"m 85 72 l 440 1042 l 560 1042 l 892 72 l 982 60 l 982 0 l 643 0 l 643 60 l 761 72 l 690 293 l 258 293 l 185 74 l 308 60 l 308 0 l -4 0 l -4 60 l 85 72 m 665 365 l 518 828 l 483 949 l 444 824 l 282 365 l 665 365 m 477 -274 q 421 -251 440 -274 q 401 -194 401 -228 q 423 -131 401 -160 q 487 -103 444 -103 l 488 -103 q 544 -126 525 -103 q 564 -183 564 -149 q 543 -245 564 -217 q 478 -274 522 -274 l 477 -274 m 320 1114 l 274 1149 l 443 1340 l 561 1340 l 730 1149 l 684 1114 l 502 1260 l 320 1114 z "},"Ầ":{"ha":978,"x_min":-4,"x_max":982,"o":"m 85 72 l 440 1042 l 560 1042 l 892 72 l 982 60 l 982 0 l 643 0 l 643 60 l 761 72 l 690 293 l 258 293 l 185 74 l 308 60 l 308 0 l -4 0 l -4 60 l 85 72 m 665 365 l 518 828 l 483 949 l 444 824 l 282 365 l 665 365 m 319 1107 l 274 1144 l 450 1331 l 554 1331 l 731 1144 l 685 1107 l 502 1240 l 319 1107 m 731 1293 q 671 1331 706 1306 q 603 1387 636 1356 q 547 1449 569 1418 l 626 1513 l 777 1331 l 733 1293 l 731 1293 z "},"Ẩ":{"ha":978,"x_min":-4,"x_max":982,"o":"m 85 72 l 440 1042 l 560 1042 l 892 72 l 982 60 l 982 0 l 643 0 l 643 60 l 761 72 l 690 293 l 258 293 l 185 74 l 308 60 l 308 0 l -4 0 l -4 60 l 85 72 m 665 365 l 518 828 l 483 949 l 444 824 l 282 365 l 665 365 m 317 1107 l 272 1144 l 448 1331 l 552 1331 l 728 1144 l 683 1107 l 500 1240 l 317 1107 m 687 1286 q 675 1306 680 1297 q 671 1327 671 1315 q 682 1355 671 1342 q 708 1378 693 1367 q 733 1403 722 1390 q 744 1433 744 1416 q 728 1467 744 1452 q 679 1481 711 1481 q 652 1478 665 1481 q 627 1471 639 1476 l 627 1543 q 659 1555 641 1551 q 702 1560 677 1560 q 798 1526 763 1560 q 834 1450 834 1493 q 821 1402 834 1422 q 790 1367 808 1381 q 756 1344 772 1353 q 734 1315 734 1331 q 738 1286 733 1300 l 687 1286 z "},"Ẫ":{"ha":978,"x_min":-4,"x_max":982,"o":"m 85 72 l 440 1042 l 560 1042 l 892 72 l 982 60 l 982 0 l 643 0 l 643 60 l 761 72 l 690 293 l 258 293 l 185 74 l 308 60 l 308 0 l -4 0 l -4 60 l 85 72 m 665 365 l 518 828 l 483 949 l 444 824 l 282 365 l 665 365 m 319 1107 l 274 1144 l 450 1331 l 554 1331 l 731 1144 l 685 1107 l 502 1240 l 319 1107 m 582 1392 q 515 1411 543 1392 q 463 1450 486 1431 q 415 1469 440 1469 q 382 1453 394 1469 q 363 1410 371 1436 l 309 1431 q 348 1518 319 1480 q 422 1557 376 1557 q 490 1538 461 1557 q 542 1499 518 1518 q 589 1479 565 1479 q 622 1496 610 1479 q 642 1538 633 1513 l 695 1518 q 657 1430 685 1469 q 582 1392 628 1392 z "},"Ȁ":{"ha":978,"x_min":-4,"x_max":982,"o":"m 85 72 l 440 1042 l 560 1042 l 892 72 l 982 60 l 982 0 l 643 0 l 643 60 l 761 72 l 690 293 l 258 293 l 185 74 l 308 60 l 308 0 l -4 0 l -4 60 l 85 72 m 665 365 l 518 828 l 483 949 l 444 824 l 282 365 l 665 365 m 388 1114 q 336 1149 365 1128 q 278 1195 308 1170 q 222 1248 249 1221 q 174 1303 194 1276 l 253 1368 l 435 1157 l 390 1114 l 388 1114 m 641 1114 q 574 1164 610 1133 q 503 1230 538 1194 q 440 1303 468 1267 l 520 1368 l 687 1151 l 642 1114 l 641 1114 z "},"Ä":{"ha":978,"x_min":-4,"x_max":982,"o":"m 85 72 l 440 1042 l 560 1042 l 892 72 l 982 60 l 982 0 l 643 0 l 643 60 l 761 72 l 690 293 l 258 293 l 185 74 l 308 60 l 308 0 l -4 0 l -4 60 l 85 72 m 665 365 l 518 828 l 483 949 l 444 824 l 282 365 l 665 365 m 377 1133 q 330 1156 348 1133 q 312 1213 312 1179 q 332 1276 312 1247 q 387 1304 351 1304 l 388 1304 q 435 1281 417 1304 q 453 1224 453 1258 q 434 1162 453 1190 q 378 1133 414 1133 l 377 1133 m 617 1133 q 570 1156 588 1133 q 552 1213 552 1179 q 572 1276 552 1247 q 627 1304 592 1304 l 628 1304 q 676 1281 658 1304 q 694 1224 694 1258 q 674 1162 694 1190 q 619 1133 654 1133 l 617 1133 z "},"Ǟ":{"ha":978,"x_min":-4,"x_max":982,"o":"m 85 72 l 440 1042 l 560 1042 l 892 72 l 982 60 l 982 0 l 643 0 l 643 60 l 761 72 l 690 293 l 258 293 l 185 74 l 308 60 l 308 0 l -4 0 l -4 60 l 85 72 m 665 365 l 518 828 l 483 949 l 444 824 l 282 365 l 665 365 m 377 1133 q 330 1156 348 1133 q 312 1213 312 1179 q 332 1276 312 1247 q 387 1304 351 1304 l 388 1304 q 435 1281 417 1304 q 453 1224 453 1258 q 434 1162 453 1190 q 378 1133 414 1133 l 377 1133 m 617 1133 q 570 1156 588 1133 q 552 1213 552 1179 q 572 1276 552 1247 q 627 1304 592 1304 l 628 1304 q 676 1281 658 1304 q 694 1224 694 1258 q 674 1162 694 1190 q 619 1133 654 1133 l 617 1133 m 685 1445 l 685 1368 l 320 1368 l 320 1445 l 685 1445 z "},"Ȧ":{"ha":978,"x_min":-4,"x_max":982,"o":"m 85 72 l 440 1042 l 560 1042 l 892 72 l 982 60 l 982 0 l 643 0 l 643 60 l 761 72 l 690 293 l 258 293 l 185 74 l 308 60 l 308 0 l -4 0 l -4 60 l 85 72 m 665 365 l 518 828 l 483 949 l 444 824 l 282 365 l 665 365 m 497 1133 q 439 1156 458 1133 q 419 1213 419 1179 q 441 1276 419 1247 q 506 1304 462 1304 l 508 1304 q 565 1281 546 1304 q 585 1224 585 1258 q 564 1162 585 1190 q 498 1133 542 1133 l 497 1133 z "},"Ạ":{"ha":978,"x_min":-4,"x_max":982,"o":"m 85 72 l 440 1042 l 560 1042 l 892 72 l 982 60 l 982 0 l 643 0 l 643 60 l 761 72 l 690 293 l 258 293 l 185 74 l 308 60 l 308 0 l -4 0 l -4 60 l 85 72 m 665 365 l 518 828 l 483 949 l 444 824 l 282 365 l 665 365 m 477 -274 q 421 -251 440 -274 q 401 -194 401 -228 q 423 -131 401 -160 q 487 -103 444 -103 l 488 -103 q 544 -126 525 -103 q 564 -183 564 -149 q 543 -245 564 -217 q 478 -274 522 -274 l 477 -274 z "},"Ǡ":{"ha":978,"x_min":-4,"x_max":982,"o":"m 85 72 l 440 1042 l 560 1042 l 892 72 l 982 60 l 982 0 l 643 0 l 643 60 l 761 72 l 690 293 l 258 293 l 185 74 l 308 60 l 308 0 l -4 0 l -4 60 l 85 72 m 665 365 l 518 828 l 483 949 l 444 824 l 282 365 l 665 365 m 497 1133 q 439 1156 458 1133 q 419 1213 419 1179 q 441 1276 419 1247 q 506 1304 462 1304 l 508 1304 q 565 1281 546 1304 q 585 1224 585 1258 q 564 1162 585 1190 q 498 1133 542 1133 l 497 1133 m 690 1440 l 690 1363 l 325 1363 l 325 1440 l 690 1440 z "},"À":{"ha":978,"x_min":-4,"x_max":982,"o":"m 85 72 l 440 1042 l 560 1042 l 892 72 l 982 60 l 982 0 l 643 0 l 643 60 l 761 72 l 690 293 l 258 293 l 185 74 l 308 60 l 308 0 l -4 0 l -4 60 l 85 72 m 665 365 l 518 828 l 483 949 l 444 824 l 282 365 l 665 365 m 510 1111 q 457 1141 487 1121 q 396 1187 426 1161 q 339 1239 365 1213 q 295 1289 313 1266 l 390 1365 l 556 1149 l 512 1111 l 510 1111 z "},"Ả":{"ha":978,"x_min":-4,"x_max":982,"o":"m 85 72 l 440 1042 l 560 1042 l 892 72 l 982 60 l 982 0 l 643 0 l 643 60 l 761 72 l 690 293 l 258 293 l 185 74 l 308 60 l 308 0 l -4 0 l -4 60 l 85 72 m 665 365 l 518 828 l 483 949 l 444 824 l 282 365 l 665 365 m 459 1106 q 449 1128 452 1117 q 446 1153 446 1140 q 458 1188 446 1174 q 485 1212 469 1201 q 513 1235 501 1223 q 524 1263 524 1247 q 505 1302 524 1291 q 445 1313 486 1313 q 411 1308 428 1313 q 381 1297 393 1303 l 381 1372 q 426 1387 399 1381 q 477 1393 452 1393 q 552 1379 519 1393 q 604 1340 585 1365 q 623 1277 623 1314 q 612 1225 623 1245 q 584 1194 601 1206 q 552 1173 568 1182 q 522 1140 525 1158 q 523 1106 518 1122 l 459 1106 z "},"Ȃ":{"ha":978,"x_min":-4,"x_max":982,"o":"m 85 72 l 440 1042 l 560 1042 l 892 72 l 982 60 l 982 0 l 643 0 l 643 60 l 761 72 l 690 293 l 258 293 l 185 74 l 308 60 l 308 0 l -4 0 l -4 60 l 85 72 m 665 365 l 518 828 l 483 949 l 444 824 l 282 365 l 665 365 m 502 1350 q 616 1326 568 1350 q 690 1260 664 1303 q 715 1161 715 1217 q 715 1146 715 1154 q 713 1129 714 1138 l 650 1129 q 650 1140 650 1133 q 649 1153 650 1146 q 631 1202 645 1178 q 586 1242 617 1226 q 502 1258 556 1258 q 418 1242 449 1258 q 373 1202 388 1226 q 356 1153 359 1178 q 355 1140 355 1146 q 354 1129 354 1133 l 292 1129 q 290 1146 290 1138 q 289 1161 289 1154 q 315 1260 289 1217 q 388 1326 340 1303 q 502 1350 436 1350 z "},"Ɑ":{"ha":969,"x_min":49,"x_max":944,"o":"m 474 -15 q 297 20 376 -15 q 163 124 219 56 q 78 289 108 192 q 49 510 49 386 q 82 726 49 628 q 179 896 116 824 q 331 1007 242 967 q 530 1046 419 1046 q 651 1033 597 1046 q 740 999 704 1021 l 763 1032 l 843 1032 l 843 72 l 944 58 l 944 0 l 733 0 l 733 81 q 659 32 701 53 q 569 -3 616 10 q 474 -15 522 -15 m 467 50 q 560 62 513 50 q 651 102 608 74 q 729 181 694 131 l 729 906 q 679 948 708 931 q 611 975 649 965 q 528 985 574 985 q 382 954 447 985 q 271 863 317 923 q 199 714 224 802 q 174 511 174 626 q 193 316 173 401 q 252 170 214 230 q 345 81 291 111 q 467 50 399 50 z "},"Ā":{"ha":978,"x_min":-4,"x_max":982,"o":"m 85 72 l 440 1042 l 560 1042 l 892 72 l 982 60 l 982 0 l 643 0 l 643 60 l 761 72 l 690 293 l 258 293 l 185 74 l 308 60 l 308 0 l -4 0 l -4 60 l 85 72 m 665 365 l 518 828 l 483 949 l 444 824 l 282 365 l 665 365 m 685 1228 l 685 1151 l 319 1151 l 319 1228 l 685 1228 z "},"Ą":{"ha":978,"x_min":-4,"x_max":982,"o":"m 85 72 l 440 1042 l 560 1042 l 892 72 l 982 60 l 982 0 l 643 0 l 643 60 l 761 72 l 690 293 l 258 293 l 185 74 l 308 60 l 308 0 l -4 0 l -4 60 l 85 72 m 665 365 l 518 828 l 483 949 l 444 824 l 282 365 l 665 365 m 806 -344 q 728 -330 764 -344 q 672 -285 693 -315 q 651 -215 651 -256 q 675 -124 651 -165 q 735 -51 699 -83 q 806 1 772 -19 l 848 7 l 901 1 q 818 -53 851 -19 q 770 -123 786 -86 q 755 -191 755 -160 q 773 -247 755 -227 q 830 -267 790 -267 q 898 -255 866 -267 q 956 -222 930 -242 l 977 -280 q 911 -325 957 -305 q 806 -344 866 -344 z "},"Å":{"ha":978,"x_min":-4,"x_max":982,"o":"m 85 72 l 440 1042 l 560 1042 l 892 72 l 982 60 l 982 0 l 643 0 l 643 60 l 761 72 l 690 293 l 258 293 l 185 74 l 308 60 l 308 0 l -4 0 l -4 60 l 85 72 m 665 365 l 518 828 l 483 949 l 444 824 l 282 365 l 665 365 m 502 1106 q 380 1151 427 1106 q 333 1269 333 1197 q 380 1386 333 1341 q 502 1431 427 1431 q 624 1386 577 1431 q 671 1269 671 1341 q 624 1151 671 1197 q 502 1106 577 1106 m 502 1164 q 575 1192 547 1164 q 602 1269 602 1220 q 575 1345 602 1317 q 502 1374 547 1374 q 430 1345 457 1374 q 402 1269 402 1317 q 430 1192 402 1220 q 502 1164 457 1164 z "},"Ǻ":{"ha":978,"x_min":-4,"x_max":982,"o":"m 85 72 l 440 1042 l 560 1042 l 892 72 l 982 60 l 982 0 l 643 0 l 643 60 l 761 72 l 690 293 l 258 293 l 185 74 l 308 60 l 308 0 l -4 0 l -4 60 l 85 72 m 665 365 l 518 828 l 483 949 l 444 824 l 282 365 l 665 365 m 502 1106 q 380 1151 427 1106 q 333 1269 333 1197 q 380 1386 333 1341 q 502 1431 427 1431 q 548 1426 528 1431 l 674 1583 l 746 1523 q 715 1486 737 1508 q 666 1439 693 1463 q 613 1397 638 1415 q 671 1269 671 1350 q 624 1151 671 1197 q 502 1106 577 1106 m 502 1164 q 575 1192 547 1164 q 602 1269 602 1220 q 575 1345 602 1317 q 502 1374 547 1374 q 430 1345 457 1374 q 402 1269 402 1317 q 430 1192 402 1220 q 502 1164 457 1164 z "},"Ḁ":{"ha":978,"x_min":-4,"x_max":982,"o":"m 85 72 l 440 1042 l 560 1042 l 892 72 l 982 60 l 982 0 l 643 0 l 643 60 l 761 72 l 690 293 l 258 293 l 185 74 l 308 60 l 308 0 l -4 0 l -4 60 l 85 72 m 665 365 l 518 828 l 483 949 l 444 824 l 282 365 l 665 365 m 489 -378 q 377 -335 422 -378 q 333 -224 333 -292 q 377 -112 333 -156 q 489 -69 422 -69 q 601 -112 557 -69 q 646 -224 646 -156 q 601 -335 646 -292 q 489 -378 557 -378 m 489 -322 q 554 -295 528 -322 q 580 -224 580 -268 q 554 -152 580 -178 q 489 -125 528 -125 q 425 -152 451 -125 q 399 -224 399 -178 q 425 -295 399 -268 q 489 -322 451 -322 z "},"Ⱥ":{"ha":978,"x_min":-4,"x_max":982,"o":"m 267 -135 l 458 507 l 641 1133 l 696 1119 l 505 490 l 321 -149 l 267 -135 m 85 72 l 440 1042 l 560 1042 l 892 72 l 982 60 l 982 0 l 643 0 l 643 60 l 761 72 l 690 293 l 258 293 l 185 74 l 308 60 l 308 0 l -4 0 l -4 60 l 85 72 m 665 365 l 518 828 l 483 949 l 444 824 l 282 365 l 665 365 z "},"Ã":{"ha":978,"x_min":-4,"x_max":982,"o":"m 85 72 l 440 1042 l 560 1042 l 892 72 l 982 60 l 982 0 l 643 0 l 643 60 l 761 72 l 690 293 l 258 293 l 185 74 l 308 60 l 308 0 l -4 0 l -4 60 l 85 72 m 665 365 l 518 828 l 483 949 l 444 824 l 282 365 l 665 365 m 580 1125 q 524 1140 546 1125 q 486 1173 502 1154 q 456 1207 471 1192 q 419 1222 440 1222 q 376 1195 392 1222 q 351 1135 361 1169 l 301 1156 q 339 1263 303 1225 q 424 1301 375 1301 q 481 1286 459 1301 q 518 1252 502 1272 q 549 1218 533 1233 q 585 1203 564 1203 q 628 1230 613 1203 q 653 1291 644 1256 l 703 1269 q 665 1163 701 1200 q 580 1125 629 1125 z "},"Ɐ":{"ha":978,"x_min":-4,"x_max":982,"o":"m 418 -10 l 86 960 l -4 972 l -4 1032 l 335 1032 l 335 972 l 217 960 l 288 739 l 719 739 l 793 958 l 669 972 l 669 1032 l 982 1032 l 982 972 l 893 960 l 538 -10 l 418 -10 m 495 83 l 534 208 l 696 667 l 313 667 l 460 204 l 495 83 z "},"Æ":{"ha":1329,"x_min":-42,"x_max":1318,"o":"m -42 0 l -42 58 l 60 72 l 453 960 l 271 975 l 271 1032 l 1211 1032 l 1231 828 l 1164 828 l 1126 962 l 754 969 l 754 564 l 1010 568 l 1027 683 l 1098 683 l 1098 376 l 1027 376 l 1010 496 l 754 499 l 754 70 l 1179 82 l 1251 256 l 1318 235 l 1274 0 l 520 0 l 520 58 l 640 72 l 640 306 l 265 306 l 168 72 l 276 58 l 276 0 l -42 0 m 296 378 l 640 378 l 640 965 l 544 965 l 467 788 l 296 378 z "},"Ǽ":{"ha":1329,"x_min":-42,"x_max":1318,"o":"m -42 0 l -42 58 l 60 72 l 453 960 l 271 975 l 271 1032 l 1211 1032 l 1231 828 l 1164 828 l 1126 962 l 754 969 l 754 564 l 1010 568 l 1027 683 l 1098 683 l 1098 376 l 1027 376 l 1010 496 l 754 499 l 754 70 l 1179 82 l 1251 256 l 1318 235 l 1274 0 l 520 0 l 520 58 l 640 72 l 640 306 l 265 306 l 168 72 l 276 58 l 276 0 l -42 0 m 296 378 l 640 378 l 640 965 l 544 965 l 467 788 l 296 378 m 664 1111 l 619 1149 l 786 1365 l 881 1289 q 837 1239 863 1266 q 780 1187 810 1213 q 719 1141 749 1161 q 665 1111 690 1121 l 664 1111 z "},"Ǣ":{"ha":1329,"x_min":-42,"x_max":1318,"o":"m -42 0 l -42 58 l 60 72 l 453 960 l 271 975 l 271 1032 l 1211 1032 l 1231 828 l 1164 828 l 1126 962 l 754 969 l 754 564 l 1010 568 l 1027 683 l 1098 683 l 1098 376 l 1027 376 l 1010 496 l 754 499 l 754 70 l 1179 82 l 1251 256 l 1318 235 l 1274 0 l 520 0 l 520 58 l 640 72 l 640 306 l 265 306 l 168 72 l 276 58 l 276 0 l -42 0 m 296 378 l 640 378 l 640 965 l 544 965 l 467 788 l 296 378 m 849 1228 l 849 1151 l 484 1151 l 484 1228 l 849 1228 z "},"B":{"ha":903,"x_min":55,"x_max":865,"o":"m 174 72 l 174 957 l 58 972 l 58 1032 l 231 1032 q 309 1035 273 1032 q 379 1040 345 1038 q 448 1043 413 1043 q 607 1027 541 1043 q 713 981 672 1011 q 772 908 753 951 q 791 810 791 865 q 768 693 791 747 q 699 601 744 639 q 585 550 653 563 q 736 523 674 553 q 832 438 799 493 q 865 308 865 382 q 844 191 865 247 q 776 89 824 134 q 648 18 728 44 q 447 -8 567 -8 q 382 -6 413 -8 q 316 -2 352 -4 q 226 0 279 0 l 55 0 l 55 60 l 174 72 m 288 574 q 328 572 304 573 q 376 572 351 572 q 424 572 401 572 q 459 572 446 572 q 577 597 529 572 q 651 668 626 621 q 676 783 676 715 q 624 930 676 881 q 433 979 572 979 q 371 977 399 979 q 323 973 344 975 q 288 971 302 971 l 288 574 m 288 69 q 334 61 306 64 q 392 59 362 59 q 445 58 422 58 q 617 86 553 58 q 711 165 682 114 q 740 288 740 217 q 681 449 740 398 q 487 500 622 500 q 441 500 468 500 q 384 500 414 500 q 330 500 355 501 q 288 499 304 500 l 288 69 z "},"Ḃ":{"ha":903,"x_min":55,"x_max":865,"o":"m 174 72 l 174 957 l 58 972 l 58 1032 l 231 1032 q 309 1035 273 1032 q 379 1040 345 1038 q 448 1043 413 1043 q 607 1027 541 1043 q 713 981 672 1011 q 772 908 753 951 q 791 810 791 865 q 768 693 791 747 q 699 601 744 639 q 585 550 653 563 q 736 523 674 553 q 832 438 799 493 q 865 308 865 382 q 844 191 865 247 q 776 89 824 134 q 648 18 728 44 q 447 -8 567 -8 q 382 -6 413 -8 q 316 -2 352 -4 q 226 0 279 0 l 55 0 l 55 60 l 174 72 m 288 574 q 328 572 304 573 q 376 572 351 572 q 424 572 401 572 q 459 572 446 572 q 577 597 529 572 q 651 668 626 621 q 676 783 676 715 q 624 930 676 881 q 433 979 572 979 q 371 977 399 979 q 323 973 344 975 q 288 971 302 971 l 288 574 m 288 69 q 334 61 306 64 q 392 59 362 59 q 445 58 422 58 q 617 86 553 58 q 711 165 682 114 q 740 288 740 217 q 681 449 740 398 q 487 500 622 500 q 441 500 468 500 q 384 500 414 500 q 330 500 355 501 q 288 499 304 500 l 288 69 m 447 1133 q 389 1156 408 1133 q 369 1213 369 1179 q 391 1276 369 1247 q 456 1304 412 1304 l 458 1304 q 515 1281 496 1304 q 535 1224 535 1258 q 514 1162 535 1190 q 448 1133 492 1133 l 447 1133 z "},"Ḅ":{"ha":903,"x_min":55,"x_max":865,"o":"m 174 72 l 174 957 l 58 972 l 58 1032 l 231 1032 q 309 1035 273 1032 q 379 1040 345 1038 q 448 1043 413 1043 q 607 1027 541 1043 q 713 981 672 1011 q 772 908 753 951 q 791 810 791 865 q 768 693 791 747 q 699 601 744 639 q 585 550 653 563 q 736 523 674 553 q 832 438 799 493 q 865 308 865 382 q 844 191 865 247 q 776 89 824 134 q 648 18 728 44 q 447 -8 567 -8 q 382 -6 413 -8 q 316 -2 352 -4 q 226 0 279 0 l 55 0 l 55 60 l 174 72 m 288 574 q 328 572 304 573 q 376 572 351 572 q 424 572 401 572 q 459 572 446 572 q 577 597 529 572 q 651 668 626 621 q 676 783 676 715 q 624 930 676 881 q 433 979 572 979 q 371 977 399 979 q 323 973 344 975 q 288 971 302 971 l 288 574 m 288 69 q 334 61 306 64 q 392 59 362 59 q 445 58 422 58 q 617 86 553 58 q 711 165 682 114 q 740 288 740 217 q 681 449 740 398 q 487 500 622 500 q 441 500 468 500 q 384 500 414 500 q 330 500 355 501 q 288 499 304 500 l 288 69 m 440 -274 q 384 -251 403 -274 q 365 -194 365 -228 q 386 -131 365 -160 q 450 -103 407 -103 l 451 -103 q 508 -126 488 -103 q 527 -183 527 -149 q 506 -245 527 -217 q 442 -274 485 -274 l 440 -274 z "},"Ꞵ":{"ha":903,"x_min":55,"x_max":865,"o":"m 55 -336 l 55 -276 l 174 -264 l 174 957 l 58 972 l 58 1032 l 231 1032 q 309 1035 273 1032 q 379 1040 345 1038 q 448 1043 413 1043 q 607 1027 541 1043 q 713 981 672 1011 q 772 908 753 951 q 791 810 791 865 q 768 693 791 747 q 699 601 744 639 q 585 550 653 563 q 736 523 674 553 q 832 438 799 493 q 865 308 865 382 q 844 191 865 247 q 776 89 824 134 q 648 18 728 44 q 447 -8 567 -8 q 401 -7 421 -8 q 353 -3 381 -5 l 353 62 q 401 59 381 59 q 445 58 421 58 q 617 86 553 58 q 711 165 682 114 q 740 288 740 217 q 681 449 740 398 q 487 500 622 500 q 425 500 459 500 q 353 500 391 501 l 353 572 q 414 572 388 572 q 459 572 440 572 q 577 597 529 572 q 651 668 626 621 q 676 783 676 715 q 624 930 676 881 q 433 979 572 979 q 371 977 399 979 q 323 973 344 975 q 288 971 302 971 l 288 -336 l 55 -336 z "},"Ɓ":{"ha":1094,"x_min":49,"x_max":1055,"o":"m 637 -8 q 573 -6 603 -8 q 506 -2 542 -4 q 416 0 469 0 l 245 0 l 245 60 l 365 72 l 369 1032 l 422 1032 q 499 1035 463 1032 q 569 1040 535 1038 q 638 1043 603 1043 q 797 1027 731 1043 q 903 981 863 1011 q 963 908 944 951 q 981 810 981 865 q 958 693 981 747 q 889 601 935 639 q 776 550 843 563 q 926 523 864 553 q 1022 438 989 493 q 1055 308 1055 382 q 1034 191 1055 247 q 966 89 1014 134 q 838 18 919 44 q 637 -8 757 -8 m 635 58 q 808 86 743 58 q 901 165 872 114 q 930 288 930 217 q 871 449 930 398 q 677 500 812 500 q 631 500 658 500 q 575 500 604 500 q 520 500 545 501 q 478 499 494 500 l 478 69 q 524 61 497 64 q 582 59 552 59 q 635 58 612 58 m 649 572 q 768 597 719 572 q 841 668 816 621 q 866 783 866 715 q 814 930 866 881 q 623 979 762 979 q 561 977 589 979 q 513 973 534 975 q 478 971 492 971 l 478 574 q 518 572 494 573 q 567 572 542 572 q 614 572 592 572 q 649 572 636 572 m 57 685 q 51 715 53 694 q 49 769 49 735 q 65 868 49 819 q 118 954 81 916 q 216 1014 154 992 q 371 1032 278 1035 l 385 993 l 371 957 q 245 943 294 960 q 173 891 196 926 q 150 804 150 856 q 156 756 150 789 q 173 685 162 724 l 57 685 z "},"Ḇ":{"ha":903,"x_min":55,"x_max":865,"o":"m 174 72 l 174 957 l 58 972 l 58 1032 l 231 1032 q 309 1035 273 1032 q 379 1040 345 1038 q 448 1043 413 1043 q 607 1027 541 1043 q 713 981 672 1011 q 772 908 753 951 q 791 810 791 865 q 768 693 791 747 q 699 601 744 639 q 585 550 653 563 q 736 523 674 553 q 832 438 799 493 q 865 308 865 382 q 844 191 865 247 q 776 89 824 134 q 648 18 728 44 q 447 -8 567 -8 q 382 -6 413 -8 q 316 -2 352 -4 q 226 0 279 0 l 55 0 l 55 60 l 174 72 m 288 574 q 328 572 304 573 q 376 572 351 572 q 424 572 401 572 q 459 572 446 572 q 577 597 529 572 q 651 668 626 621 q 676 783 676 715 q 624 930 676 881 q 433 979 572 979 q 371 977 399 979 q 323 973 344 975 q 288 971 302 971 l 288 574 m 288 69 q 334 61 306 64 q 392 59 362 59 q 445 58 422 58 q 617 86 553 58 q 711 165 682 114 q 740 288 740 217 q 681 449 740 398 q 487 500 622 500 q 441 500 468 500 q 384 500 414 500 q 330 500 355 501 q 288 499 304 500 l 288 69 m 649 -136 l 649 -221 l 255 -221 l 255 -136 l 649 -136 z "},"Ƀ":{"ha":903,"x_min":49,"x_max":865,"o":"m 174 72 l 174 957 l 58 972 l 58 1032 l 231 1032 q 309 1035 273 1032 q 379 1040 345 1038 q 448 1043 413 1043 q 607 1027 541 1043 q 713 981 672 1011 q 772 908 753 951 q 791 810 791 865 q 768 693 791 747 q 699 601 744 639 q 585 550 653 563 q 736 523 674 553 q 832 438 799 493 q 865 308 865 382 q 844 191 865 247 q 776 89 824 134 q 648 18 728 44 q 447 -8 567 -8 q 382 -6 413 -8 q 316 -2 352 -4 q 226 0 279 0 l 55 0 l 55 60 l 174 72 m 288 574 q 328 572 304 573 q 376 572 351 572 q 424 572 401 572 q 459 572 446 572 q 577 597 529 572 q 651 668 626 621 q 676 783 676 715 q 624 930 676 881 q 433 979 572 979 q 371 977 399 979 q 323 973 344 975 q 288 971 302 971 l 288 574 m 288 69 q 334 61 306 64 q 392 59 362 59 q 445 58 422 58 q 617 86 553 58 q 711 165 682 114 q 740 288 740 217 q 681 449 740 398 q 487 500 622 500 q 441 500 468 500 q 384 500 414 500 q 330 500 355 501 q 288 499 304 500 l 288 69 m 510 322 l 510 249 l 49 249 l 49 322 l 510 322 z "},"Ƃ":{"ha":944,"x_min":67,"x_max":874,"o":"m 490 -10 q 450 -8 477 -10 q 389 -5 422 -7 q 323 -1 355 -3 q 267 0 290 0 l 67 0 l 67 60 l 206 72 l 206 957 l 68 972 l 68 1032 l 791 1032 l 806 781 l 725 781 l 680 961 l 319 969 l 319 611 q 353 617 332 614 q 401 622 374 619 q 455 627 427 625 q 510 628 483 628 q 708 600 626 628 q 831 508 789 571 q 874 341 874 444 q 825 155 874 233 q 689 33 776 76 q 490 -10 603 -10 m 481 58 q 634 91 574 58 q 724 186 694 124 q 753 333 753 248 q 719 469 753 422 q 624 534 685 516 q 481 552 563 552 q 418 551 450 552 q 360 547 386 549 q 319 542 333 544 l 319 69 q 361 64 341 67 q 410 60 382 62 q 481 58 438 58 z "},"C":{"ha":901,"x_min":50,"x_max":849,"o":"m 524 -15 q 322 22 410 -15 q 173 127 234 58 q 81 293 113 196 q 50 511 50 390 q 88 725 50 627 q 192 895 125 823 q 350 1007 260 967 q 544 1047 440 1047 q 635 1041 591 1047 q 718 1028 679 1035 q 788 1013 757 1020 q 838 1002 819 1006 l 826 776 l 754 776 l 724 937 q 683 958 711 948 q 614 974 656 967 q 517 980 572 980 q 346 927 422 980 q 225 775 270 875 q 181 533 181 676 q 201 350 181 437 q 265 196 222 263 q 372 90 307 128 q 526 51 438 51 q 622 58 584 51 q 683 76 659 65 q 725 103 707 88 l 781 235 l 849 224 l 814 38 q 761 28 787 37 q 704 10 735 20 q 630 -8 673 0 q 524 -15 586 -15 z "},"Ć":{"ha":901,"x_min":50,"x_max":849,"o":"m 524 -15 q 322 22 410 -15 q 173 127 234 58 q 81 293 113 196 q 50 511 50 390 q 88 725 50 627 q 192 895 125 823 q 350 1007 260 967 q 544 1047 440 1047 q 635 1041 591 1047 q 718 1028 679 1035 q 788 1013 757 1020 q 838 1002 819 1006 l 826 776 l 754 776 l 724 937 q 683 958 711 948 q 614 974 656 967 q 517 980 572 980 q 346 927 422 980 q 225 775 270 875 q 181 533 181 676 q 201 350 181 437 q 265 196 222 263 q 372 90 307 128 q 526 51 438 51 q 622 58 584 51 q 683 76 659 65 q 725 103 707 88 l 781 235 l 849 224 l 814 38 q 761 28 787 37 q 704 10 735 20 q 630 -8 673 0 q 524 -15 586 -15 m 531 1111 l 487 1149 l 653 1365 l 748 1289 q 704 1239 731 1266 q 647 1187 678 1213 q 587 1141 617 1161 q 533 1111 557 1121 l 531 1111 z "},"Ꞓ":{"ha":976,"x_min":19,"x_max":923,"o":"m 598 -15 q 397 22 485 -15 q 248 127 308 58 q 156 293 187 196 q 124 511 124 390 q 162 725 124 627 q 267 895 199 823 q 424 1007 334 967 q 619 1047 514 1047 q 709 1041 665 1047 q 792 1028 753 1035 q 862 1013 831 1020 q 912 1002 893 1006 l 901 776 l 828 776 l 798 937 q 758 958 785 948 q 688 974 730 967 q 591 980 646 980 q 420 927 497 980 q 300 775 344 875 q 255 533 255 676 q 276 350 255 437 q 339 196 297 263 q 447 90 381 128 q 601 51 512 51 q 696 58 658 51 q 757 76 733 65 q 799 103 781 88 l 855 235 l 923 224 l 888 38 q 835 28 861 37 q 778 10 810 20 q 704 -8 747 0 q 598 -15 660 -15 m 480 576 l 480 503 l 19 503 l 19 576 l 480 576 z "},"Č":{"ha":901,"x_min":50,"x_max":849,"o":"m 524 -15 q 322 22 410 -15 q 173 127 234 58 q 81 293 113 196 q 50 511 50 390 q 88 725 50 627 q 192 895 125 823 q 350 1007 260 967 q 544 1047 440 1047 q 635 1041 591 1047 q 718 1028 679 1035 q 788 1013 757 1020 q 838 1002 819 1006 l 826 776 l 754 776 l 724 937 q 683 958 711 948 q 614 974 656 967 q 517 980 572 980 q 346 927 422 980 q 225 775 270 875 q 181 533 181 676 q 201 350 181 437 q 265 196 222 263 q 372 90 307 128 q 526 51 438 51 q 622 58 584 51 q 683 76 659 65 q 725 103 707 88 l 781 235 l 849 224 l 814 38 q 761 28 787 37 q 704 10 735 20 q 630 -8 673 0 q 524 -15 586 -15 m 475 1122 l 306 1308 l 352 1342 l 534 1203 l 716 1342 l 762 1308 l 593 1122 l 475 1122 z "},"Ç":{"ha":901,"x_min":50,"x_max":849,"o":"m 524 -15 q 322 22 410 -15 q 173 127 234 58 q 81 293 113 196 q 50 511 50 390 q 88 725 50 627 q 192 895 125 823 q 350 1007 260 967 q 544 1047 440 1047 q 635 1041 591 1047 q 718 1028 679 1035 q 788 1013 757 1020 q 838 1002 819 1006 l 826 776 l 754 776 l 724 937 q 683 958 711 948 q 614 974 656 967 q 517 980 572 980 q 346 927 422 980 q 225 775 270 875 q 181 533 181 676 q 201 350 181 437 q 265 196 222 263 q 372 90 307 128 q 526 51 438 51 q 622 58 584 51 q 683 76 659 65 q 725 103 707 88 l 781 235 l 849 224 l 814 38 q 761 28 787 37 q 704 10 735 20 q 630 -8 673 0 q 524 -15 586 -15 m 483 -326 q 426 -321 455 -326 q 379 -308 398 -315 l 379 -226 q 414 -234 394 -231 q 444 -237 434 -237 q 511 -220 485 -237 q 536 -139 536 -202 q 527 -81 536 -110 q 507 -31 518 -53 q 489 0 495 -9 l 521 8 l 546 0 q 581 -42 560 -13 q 618 -109 602 -70 q 633 -192 633 -148 q 614 -269 633 -239 q 560 -312 594 -299 q 483 -326 526 -326 z "},"Ḉ":{"ha":901,"x_min":50,"x_max":849,"o":"m 524 -15 q 322 22 410 -15 q 173 127 234 58 q 81 293 113 196 q 50 511 50 390 q 88 725 50 627 q 192 895 125 823 q 350 1007 260 967 q 544 1047 440 1047 q 635 1041 591 1047 q 718 1028 679 1035 q 788 1013 757 1020 q 838 1002 819 1006 l 826 776 l 754 776 l 724 937 q 683 958 711 948 q 614 974 656 967 q 517 980 572 980 q 346 927 422 980 q 225 775 270 875 q 181 533 181 676 q 201 350 181 437 q 265 196 222 263 q 372 90 307 128 q 526 51 438 51 q 622 58 584 51 q 683 76 659 65 q 725 103 707 88 l 781 235 l 849 224 l 814 38 q 761 28 787 37 q 704 10 735 20 q 630 -8 673 0 q 524 -15 586 -15 m 483 -326 q 426 -321 455 -326 q 379 -308 398 -315 l 379 -226 q 414 -234 394 -231 q 444 -237 434 -237 q 523 -220 496 -237 q 550 -139 550 -202 q 541 -81 550 -110 q 520 -31 532 -53 q 503 0 509 -9 l 535 0 l 560 0 q 595 -42 574 -13 q 632 -109 616 -70 q 647 -192 647 -148 q 627 -269 647 -239 q 570 -312 607 -299 q 483 -326 533 -326 m 531 1111 l 487 1149 l 653 1365 l 748 1289 q 704 1239 731 1266 q 647 1187 678 1213 q 587 1141 617 1161 q 533 1111 557 1121 l 531 1111 z "},"Ĉ":{"ha":901,"x_min":50,"x_max":849,"o":"m 524 -15 q 322 22 410 -15 q 173 127 234 58 q 81 293 113 196 q 50 511 50 390 q 88 725 50 627 q 192 895 125 823 q 350 1007 260 967 q 544 1047 440 1047 q 635 1041 591 1047 q 718 1028 679 1035 q 788 1013 757 1020 q 838 1002 819 1006 l 826 776 l 754 776 l 724 937 q 683 958 711 948 q 614 974 656 967 q 517 980 572 980 q 346 927 422 980 q 225 775 270 875 q 181 533 181 676 q 201 350 181 437 q 265 196 222 263 q 372 90 307 128 q 526 51 438 51 q 622 58 584 51 q 683 76 659 65 q 725 103 707 88 l 781 235 l 849 224 l 814 38 q 761 28 787 37 q 704 10 735 20 q 630 -8 673 0 q 524 -15 586 -15 m 352 1114 l 306 1149 l 475 1340 l 593 1340 l 762 1149 l 716 1114 l 534 1260 l 352 1114 z "},"Ċ":{"ha":901,"x_min":50,"x_max":849,"o":"m 524 -15 q 322 22 410 -15 q 173 127 234 58 q 81 293 113 196 q 50 511 50 390 q 88 725 50 627 q 192 895 125 823 q 350 1007 260 967 q 544 1047 440 1047 q 635 1041 591 1047 q 718 1028 679 1035 q 788 1013 757 1020 q 838 1002 819 1006 l 826 776 l 754 776 l 724 937 q 683 958 711 948 q 614 974 656 967 q 517 980 572 980 q 346 927 422 980 q 225 775 270 875 q 181 533 181 676 q 201 350 181 437 q 265 196 222 263 q 372 90 307 128 q 526 51 438 51 q 622 58 584 51 q 683 76 659 65 q 725 103 707 88 l 781 235 l 849 224 l 814 38 q 761 28 787 37 q 704 10 735 20 q 630 -8 673 0 q 524 -15 586 -15 m 528 1133 q 471 1156 490 1133 q 451 1213 451 1179 q 473 1276 451 1247 q 538 1304 494 1304 l 540 1304 q 597 1281 578 1304 q 617 1224 617 1258 q 595 1162 617 1190 q 530 1133 574 1133 l 528 1133 z "},"Ꭓ":{"ha":894,"x_min":10,"x_max":908,"o":"m 809 -209 q 747 -199 778 -209 q 689 -166 715 -188 q 647 -108 663 -144 l 424 386 l 216 -123 l 344 -137 l 342 -194 l 10 -194 l 10 -137 l 112 -126 l 386 449 l 103 960 l 17 976 l 17 1032 l 365 1032 l 365 976 l 240 960 l 447 525 l 676 960 l 561 976 l 561 1032 l 855 1032 l 855 976 l 767 960 l 484 473 l 744 -22 q 796 -107 774 -80 q 842 -134 817 -134 q 867 -132 858 -134 q 886 -122 877 -129 l 908 -172 q 866 -197 892 -185 q 809 -209 840 -209 z "},"Ƈ":{"ha":901,"x_min":50,"x_max":1028,"o":"m 826 772 l 783 797 l 772 976 q 820 1108 792 1058 q 886 1180 848 1158 q 972 1203 924 1203 q 1004 1200 990 1203 q 1028 1192 1017 1197 l 1028 1078 q 985 1094 1013 1086 q 926 1103 957 1103 q 882 1090 901 1103 q 851 1045 863 1077 q 837 958 840 1014 l 826 772 m 524 -15 q 322 22 410 -15 q 173 127 234 58 q 81 293 113 196 q 50 511 50 390 q 88 725 50 627 q 192 895 125 823 q 350 1007 260 967 q 544 1047 440 1047 q 635 1041 591 1047 q 718 1028 679 1035 q 788 1013 757 1020 q 838 1002 819 1006 l 826 776 l 754 776 l 724 937 q 683 958 711 948 q 614 974 656 967 q 517 980 572 980 q 346 927 422 980 q 225 775 270 875 q 181 533 181 676 q 201 350 181 437 q 265 196 222 263 q 372 90 307 128 q 526 51 438 51 q 622 58 584 51 q 683 76 659 65 q 725 103 707 88 l 781 235 l 849 224 l 814 38 q 761 28 787 37 q 704 10 735 20 q 630 -8 673 0 q 524 -15 586 -15 z "},"Ȼ":{"ha":901,"x_min":50,"x_max":849,"o":"m 294 -114 l 485 528 l 669 1154 l 724 1140 l 533 511 l 349 -128 l 294 -114 m 524 -15 q 322 22 410 -15 q 173 127 234 58 q 81 293 113 196 q 50 511 50 390 q 88 725 50 627 q 192 895 125 823 q 350 1007 260 967 q 544 1047 440 1047 q 635 1041 591 1047 q 718 1028 679 1035 q 788 1013 757 1020 q 838 1002 819 1006 l 826 776 l 754 776 l 724 937 q 683 958 711 948 q 614 974 656 967 q 517 980 572 980 q 346 927 422 980 q 225 775 270 875 q 181 533 181 676 q 201 350 181 437 q 265 196 222 263 q 372 90 307 128 q 526 51 438 51 q 622 58 584 51 q 683 76 659 65 q 725 103 707 88 l 781 235 l 849 224 l 814 38 q 761 28 787 37 q 704 10 735 20 q 630 -8 673 0 q 524 -15 586 -15 z "},"D":{"ha":1035,"x_min":55,"x_max":985,"o":"m 459 -11 q 407 -9 434 -10 q 351 -5 380 -7 q 293 -1 322 -3 q 233 0 263 0 l 55 0 l 55 60 l 174 72 l 174 957 l 63 972 l 63 1032 l 231 1032 q 314 1035 274 1032 q 395 1040 355 1038 q 477 1043 435 1043 q 708 1008 612 1043 q 866 907 805 972 q 956 750 927 841 q 985 547 985 659 q 947 316 985 419 q 838 138 908 212 q 671 25 767 64 q 459 -11 575 -14 m 476 57 q 675 112 588 58 q 813 268 763 165 q 863 522 863 372 q 837 721 863 636 q 758 863 810 806 q 626 948 705 919 q 441 976 547 976 q 382 975 410 976 q 331 971 355 973 q 288 968 308 969 l 288 68 q 352 59 322 62 q 414 57 383 57 q 476 57 444 56 z "},"Ǳ":{"ha":1896,"x_min":55,"x_max":1836,"o":"m 459 -11 q 407 -9 434 -10 q 351 -5 380 -7 q 293 -1 322 -3 q 233 0 263 0 l 55 0 l 55 60 l 174 72 l 174 957 l 63 972 l 63 1032 l 231 1032 q 314 1035 274 1032 q 395 1040 355 1038 q 477 1043 435 1043 q 708 1008 612 1043 q 866 907 805 972 q 956 750 927 841 q 985 547 985 659 q 947 316 985 419 q 838 138 908 212 q 671 25 767 64 q 459 -11 575 -14 m 476 57 q 675 112 588 58 q 813 268 763 165 q 863 522 863 372 q 837 721 863 636 q 758 863 810 806 q 626 948 705 919 q 441 976 547 976 q 382 975 410 976 q 331 971 355 973 q 288 968 308 969 l 288 68 q 352 59 322 62 q 414 57 383 57 q 476 57 444 56 m 1081 0 l 1047 54 l 1604 868 l 1683 972 l 1239 958 l 1171 778 l 1107 785 l 1136 1036 l 1790 1036 l 1821 985 l 1271 176 l 1181 65 l 1700 89 l 1769 308 l 1836 293 l 1803 0 l 1081 0 z "},"Ǆ":{"ha":1896,"x_min":55,"x_max":1836,"o":"m 459 -11 q 407 -9 434 -10 q 351 -5 380 -7 q 293 -1 322 -3 q 233 0 263 0 l 55 0 l 55 60 l 174 72 l 174 957 l 63 972 l 63 1032 l 231 1032 q 314 1035 274 1032 q 395 1040 355 1038 q 477 1043 435 1043 q 708 1008 612 1043 q 866 907 805 972 q 956 750 927 841 q 985 547 985 659 q 947 316 985 419 q 838 138 908 212 q 671 25 767 64 q 459 -11 575 -14 m 476 57 q 675 112 588 58 q 813 268 763 165 q 863 522 863 372 q 837 721 863 636 q 758 863 810 806 q 626 948 705 919 q 441 976 547 976 q 382 975 410 976 q 331 971 355 973 q 288 968 308 969 l 288 68 q 352 59 322 62 q 414 57 383 57 q 476 57 444 56 m 1081 0 l 1047 54 l 1604 868 l 1683 972 l 1239 958 l 1171 778 l 1107 785 l 1136 1036 l 1790 1036 l 1821 985 l 1271 176 l 1181 65 l 1700 89 l 1769 308 l 1836 293 l 1803 0 l 1081 0 m 1390 1122 l 1222 1308 l 1267 1342 l 1449 1203 l 1631 1342 l 1677 1308 l 1508 1122 l 1390 1122 z "},"Ď":{"ha":1035,"x_min":55,"x_max":985,"o":"m 459 -11 q 407 -9 434 -10 q 351 -5 380 -7 q 293 -1 322 -3 q 233 0 263 0 l 55 0 l 55 60 l 174 72 l 174 957 l 63 972 l 63 1032 l 231 1032 q 314 1035 274 1032 q 395 1040 355 1038 q 477 1043 435 1043 q 708 1008 612 1043 q 866 907 805 972 q 956 750 927 841 q 985 547 985 659 q 947 316 985 419 q 838 138 908 212 q 671 25 767 64 q 459 -11 575 -14 m 476 57 q 675 112 588 58 q 813 268 763 165 q 863 522 863 372 q 837 721 863 636 q 758 863 810 806 q 626 948 705 919 q 441 976 547 976 q 382 975 410 976 q 331 971 355 973 q 288 968 308 969 l 288 68 q 352 59 322 62 q 414 57 383 57 q 476 57 444 56 m 459 1122 l 290 1308 l 336 1342 l 518 1203 l 700 1342 l 746 1308 l 577 1122 l 459 1122 z "},"Ḑ":{"ha":1035,"x_min":55,"x_max":985,"o":"m 459 -11 q 407 -9 434 -10 q 351 -5 380 -7 q 293 -1 322 -3 q 233 0 263 0 l 55 0 l 55 60 l 174 72 l 174 957 l 63 972 l 63 1032 l 231 1032 q 314 1035 274 1032 q 395 1040 355 1038 q 477 1043 435 1043 q 708 1008 612 1043 q 866 907 805 972 q 956 750 927 841 q 985 547 985 659 q 947 316 985 419 q 838 138 908 212 q 671 25 767 64 q 459 -11 575 -14 m 476 57 q 675 112 588 58 q 813 268 763 165 q 863 522 863 372 q 837 721 863 636 q 758 863 810 806 q 626 948 705 919 q 441 976 547 976 q 382 975 410 976 q 331 971 355 973 q 288 968 308 969 l 288 68 q 352 59 322 62 q 414 57 383 57 q 476 57 444 56 m 594 -235 q 571 -332 594 -291 q 523 -395 548 -372 q 490 -421 497 -418 l 488 -421 l 451 -394 l 451 -386 q 485 -347 472 -376 q 498 -286 498 -318 q 489 -254 498 -265 q 469 -236 479 -243 q 450 -217 458 -228 q 442 -185 442 -206 q 454 -146 442 -159 q 481 -128 466 -133 q 506 -124 497 -124 l 509 -124 q 571 -152 548 -124 q 594 -235 594 -181 z "},"Ḓ":{"ha":1035,"x_min":55,"x_max":985,"o":"m 459 -11 q 407 -9 434 -10 q 351 -5 380 -7 q 293 -1 322 -3 q 233 0 263 0 l 55 0 l 55 60 l 174 72 l 174 957 l 63 972 l 63 1032 l 231 1032 q 314 1035 274 1032 q 395 1040 355 1038 q 477 1043 435 1043 q 708 1008 612 1043 q 866 907 805 972 q 956 750 927 841 q 985 547 985 659 q 947 316 985 419 q 838 138 908 212 q 671 25 767 64 q 459 -11 575 -14 m 476 57 q 675 112 588 58 q 813 268 763 165 q 863 522 863 372 q 837 721 863 636 q 758 863 810 806 q 626 948 705 919 q 441 976 547 976 q 382 975 410 976 q 331 971 355 973 q 288 968 308 969 l 288 68 q 352 59 322 62 q 414 57 383 57 q 476 57 444 56 m 456 -81 l 580 -81 l 758 -313 l 713 -348 l 518 -173 l 324 -348 l 278 -313 l 456 -81 z "},"Đ":{"ha":1035,"x_min":55,"x_max":985,"o":"m 459 -11 q 407 -9 434 -10 q 351 -5 380 -7 q 293 -1 322 -3 q 233 0 263 0 l 55 0 l 55 60 l 174 72 l 174 957 l 63 972 l 63 1032 l 231 1032 q 314 1035 274 1032 q 395 1040 355 1038 q 477 1043 435 1043 q 708 1008 612 1043 q 866 907 805 972 q 956 750 927 841 q 985 547 985 659 q 947 316 985 419 q 838 138 908 212 q 671 25 767 64 q 459 -11 575 -14 m 476 57 q 675 112 588 58 q 813 268 763 165 q 863 522 863 372 q 837 721 863 636 q 758 863 810 806 q 626 948 705 919 q 441 976 547 976 q 382 975 410 976 q 331 971 355 973 q 288 968 308 969 l 288 68 q 352 59 322 62 q 414 57 383 57 q 476 57 444 56 m 74 503 l 74 576 l 520 576 l 520 503 l 74 503 z "},"Ḋ":{"ha":1035,"x_min":55,"x_max":985,"o":"m 459 -11 q 407 -9 434 -10 q 351 -5 380 -7 q 293 -1 322 -3 q 233 0 263 0 l 55 0 l 55 60 l 174 72 l 174 957 l 63 972 l 63 1032 l 231 1032 q 314 1035 274 1032 q 395 1040 355 1038 q 477 1043 435 1043 q 708 1008 612 1043 q 866 907 805 972 q 956 750 927 841 q 985 547 985 659 q 947 316 985 419 q 838 138 908 212 q 671 25 767 64 q 459 -11 575 -14 m 476 57 q 675 112 588 58 q 813 268 763 165 q 863 522 863 372 q 837 721 863 636 q 758 863 810 806 q 626 948 705 919 q 441 976 547 976 q 382 975 410 976 q 331 971 355 973 q 288 968 308 969 l 288 68 q 352 59 322 62 q 414 57 383 57 q 476 57 444 56 m 513 1133 q 455 1156 474 1133 q 435 1213 435 1179 q 457 1276 435 1247 q 522 1304 478 1304 l 524 1304 q 581 1281 562 1304 q 601 1224 601 1258 q 580 1162 601 1190 q 514 1133 558 1133 l 513 1133 z "},"Ḍ":{"ha":1035,"x_min":55,"x_max":985,"o":"m 459 -11 q 407 -9 434 -10 q 351 -5 380 -7 q 293 -1 322 -3 q 233 0 263 0 l 55 0 l 55 60 l 174 72 l 174 957 l 63 972 l 63 1032 l 231 1032 q 314 1035 274 1032 q 395 1040 355 1038 q 477 1043 435 1043 q 708 1008 612 1043 q 866 907 805 972 q 956 750 927 841 q 985 547 985 659 q 947 316 985 419 q 838 138 908 212 q 671 25 767 64 q 459 -11 575 -14 m 476 57 q 675 112 588 58 q 813 268 763 165 q 863 522 863 372 q 837 721 863 636 q 758 863 810 806 q 626 948 705 919 q 441 976 547 976 q 382 975 410 976 q 331 971 355 973 q 288 968 308 969 l 288 68 q 352 59 322 62 q 414 57 383 57 q 476 57 444 56 m 506 -274 q 450 -251 469 -274 q 431 -194 431 -228 q 452 -131 431 -160 q 516 -103 473 -103 l 517 -103 q 574 -126 554 -103 q 593 -183 593 -149 q 572 -245 593 -217 q 508 -274 551 -274 l 506 -274 z "},"Ɗ":{"ha":1229,"x_min":49,"x_max":1179,"o":"m 653 -11 q 601 -9 628 -10 q 545 -5 574 -7 q 486 -1 516 -3 q 426 0 457 0 l 249 0 l 249 60 l 368 72 l 368 1032 l 425 1032 q 508 1035 467 1032 q 589 1040 549 1038 q 671 1043 629 1043 q 902 1008 806 1043 q 1060 907 999 972 q 1150 750 1121 841 q 1179 547 1179 659 q 1141 316 1179 419 q 1032 138 1102 212 q 865 25 961 64 q 653 -11 769 -14 m 669 57 q 869 112 781 58 q 1007 268 956 165 q 1057 522 1057 372 q 1031 721 1057 636 q 951 863 1004 806 q 819 948 899 919 q 635 976 740 976 q 576 975 603 976 q 525 971 549 973 q 482 968 501 969 l 482 68 q 546 59 515 62 q 607 57 577 57 q 669 57 638 56 m 57 685 q 51 715 53 694 q 49 769 49 735 q 65 868 49 819 q 118 954 81 916 q 216 1014 154 992 q 371 1032 278 1035 l 385 993 l 371 957 q 245 943 294 960 q 173 891 196 926 q 150 804 150 856 q 156 756 150 789 q 173 685 162 724 l 57 685 z "},"Ḏ":{"ha":1035,"x_min":55,"x_max":985,"o":"m 459 -11 q 407 -9 434 -10 q 351 -5 380 -7 q 293 -1 322 -3 q 233 0 263 0 l 55 0 l 55 60 l 174 72 l 174 957 l 63 972 l 63 1032 l 231 1032 q 314 1035 274 1032 q 395 1040 355 1038 q 477 1043 435 1043 q 708 1008 612 1043 q 866 907 805 972 q 956 750 927 841 q 985 547 985 659 q 947 316 985 419 q 838 138 908 212 q 671 25 767 64 q 459 -11 575 -14 m 476 57 q 675 112 588 58 q 813 268 763 165 q 863 522 863 372 q 837 721 863 636 q 758 863 810 806 q 626 948 705 919 q 441 976 547 976 q 382 975 410 976 q 331 971 355 973 q 288 968 308 969 l 288 68 q 352 59 322 62 q 414 57 383 57 q 476 57 444 56 m 715 -136 l 715 -221 l 321 -221 l 321 -136 l 715 -136 z "},"Ɖ":{"ha":1035,"x_min":55,"x_max":985,"o":"m 459 -11 q 407 -9 434 -10 q 351 -5 380 -7 q 293 -1 322 -3 q 233 0 263 0 l 55 0 l 55 60 l 174 72 l 174 957 l 63 972 l 63 1032 l 231 1032 q 314 1035 274 1032 q 395 1040 355 1038 q 477 1043 435 1043 q 708 1008 612 1043 q 866 907 805 972 q 956 750 927 841 q 985 547 985 659 q 947 316 985 419 q 838 138 908 212 q 671 25 767 64 q 459 -11 575 -14 m 476 57 q 675 112 588 58 q 813 268 763 165 q 863 522 863 372 q 837 721 863 636 q 758 863 810 806 q 626 948 705 919 q 441 976 547 976 q 382 975 410 976 q 331 971 355 973 q 288 968 308 969 l 288 68 q 352 59 322 62 q 414 57 383 57 q 476 57 444 56 m 74 503 l 74 576 l 520 576 l 520 503 l 74 503 z "},"Ƌ":{"ha":901,"x_min":39,"x_max":846,"o":"m 422 -10 q 224 33 310 -10 q 88 155 137 76 q 39 341 39 233 q 134 562 39 496 q 402 628 228 628 q 457 627 429 628 q 512 622 485 625 q 559 617 538 619 q 594 611 581 614 l 594 969 l 233 961 l 188 781 l 107 781 l 122 1032 l 844 1032 l 844 972 l 706 957 l 706 72 l 846 60 l 846 0 l 645 0 q 590 -1 622 0 q 524 -5 558 -3 q 463 -8 490 -7 q 422 -10 435 -10 m 432 58 q 503 60 476 58 q 551 64 531 62 q 594 69 572 67 l 594 542 q 553 547 579 544 q 494 551 526 549 q 432 552 463 552 q 289 534 350 552 q 194 469 228 516 q 160 333 160 422 q 189 186 160 248 q 278 91 218 124 q 432 58 338 58 z "},"ǲ":{"ha":1778,"x_min":55,"x_max":1739,"o":"m 459 -11 q 407 -9 434 -10 q 351 -5 380 -7 q 293 -1 322 -3 q 233 0 263 0 l 55 0 l 55 60 l 174 72 l 174 957 l 63 972 l 63 1032 l 231 1032 q 314 1035 274 1032 q 395 1040 355 1038 q 477 1043 435 1043 q 708 1008 612 1043 q 866 907 805 972 q 956 750 927 841 q 985 547 985 659 q 947 316 985 419 q 838 138 908 212 q 671 25 767 64 q 459 -11 575 -14 m 476 57 q 675 112 588 58 q 813 268 763 165 q 863 522 863 372 q 837 721 863 636 q 758 863 810 806 q 626 948 705 919 q 441 976 547 976 q 382 975 410 976 q 331 971 355 973 q 288 968 308 969 l 288 68 q 352 59 322 62 q 414 57 383 57 q 476 57 444 56 m 1597 699 l 1217 689 l 1198 558 l 1122 558 l 1122 771 l 1701 771 l 1724 719 l 1284 150 l 1197 71 l 1607 83 l 1668 235 l 1739 226 l 1706 0 l 1097 0 l 1072 53 l 1510 618 l 1597 699 z "},"ǅ":{"ha":1778,"x_min":55,"x_max":1739,"o":"m 459 -11 q 407 -9 434 -10 q 351 -5 380 -7 q 293 -1 322 -3 q 233 0 263 0 l 55 0 l 55 60 l 174 72 l 174 957 l 63 972 l 63 1032 l 231 1032 q 314 1035 274 1032 q 395 1040 355 1038 q 477 1043 435 1043 q 708 1008 612 1043 q 866 907 805 972 q 956 750 927 841 q 985 547 985 659 q 947 316 985 419 q 838 138 908 212 q 671 25 767 64 q 459 -11 575 -14 m 476 57 q 675 112 588 58 q 813 268 763 165 q 863 522 863 372 q 837 721 863 636 q 758 863 810 806 q 626 948 705 919 q 441 976 547 976 q 382 975 410 976 q 331 971 355 973 q 288 968 308 969 l 288 68 q 352 59 322 62 q 414 57 383 57 q 476 57 444 56 m 1597 699 l 1217 689 l 1198 558 l 1122 558 l 1122 771 l 1701 771 l 1724 719 l 1284 150 l 1197 71 l 1607 83 l 1668 235 l 1739 226 l 1706 0 l 1097 0 l 1072 53 l 1510 618 l 1597 699 m 1349 911 l 1192 1167 l 1238 1201 l 1411 1002 l 1585 1201 l 1631 1167 l 1473 911 l 1349 911 z "},"Ð":{"ha":1035,"x_min":55,"x_max":985,"o":"m 459 -11 q 407 -9 434 -10 q 351 -5 380 -7 q 293 -1 322 -3 q 233 0 263 0 l 55 0 l 55 60 l 174 72 l 174 957 l 63 972 l 63 1032 l 231 1032 q 314 1035 274 1032 q 395 1040 355 1038 q 477 1043 435 1043 q 708 1008 612 1043 q 866 907 805 972 q 956 750 927 841 q 985 547 985 659 q 947 316 985 419 q 838 138 908 212 q 671 25 767 64 q 459 -11 575 -14 m 476 57 q 675 112 588 58 q 813 268 763 165 q 863 522 863 372 q 837 721 863 636 q 758 863 810 806 q 626 948 705 919 q 441 976 547 976 q 382 975 410 976 q 331 971 355 973 q 288 968 308 969 l 288 68 q 352 59 322 62 q 414 57 383 57 q 476 57 444 56 m 74 503 l 74 576 l 520 576 l 520 503 l 74 503 z "},"E":{"ha":865,"x_min":55,"x_max":854,"o":"m 174 72 l 174 957 l 58 972 l 58 1032 l 753 1032 l 773 828 l 706 828 l 663 961 l 288 968 l 288 564 l 544 568 l 562 683 l 631 683 l 631 376 l 562 376 l 544 494 l 288 499 l 288 71 l 711 82 l 788 260 l 854 240 l 808 0 l 55 0 l 55 60 l 174 72 z "},"É":{"ha":865,"x_min":55,"x_max":854,"o":"m 174 72 l 174 957 l 58 972 l 58 1032 l 753 1032 l 773 828 l 706 828 l 663 961 l 288 968 l 288 564 l 544 568 l 562 683 l 631 683 l 631 376 l 562 376 l 544 494 l 288 499 l 288 71 l 711 82 l 788 260 l 854 240 l 808 0 l 55 0 l 55 60 l 174 72 m 444 1111 l 399 1149 l 566 1365 l 660 1289 q 617 1239 643 1266 q 560 1187 590 1213 q 499 1141 529 1161 q 445 1111 469 1121 l 444 1111 z "},"Ĕ":{"ha":865,"x_min":55,"x_max":854,"o":"m 174 72 l 174 957 l 58 972 l 58 1032 l 753 1032 l 773 828 l 706 828 l 663 961 l 288 968 l 288 564 l 544 568 l 562 683 l 631 683 l 631 376 l 562 376 l 544 494 l 288 499 l 288 71 l 711 82 l 788 260 l 854 240 l 808 0 l 55 0 l 55 60 l 174 72 m 447 1129 q 343 1151 388 1129 q 273 1213 298 1173 q 247 1303 247 1252 q 248 1318 247 1310 q 250 1333 249 1326 l 313 1333 q 313 1324 313 1329 q 314 1311 313 1318 q 331 1266 317 1288 q 372 1229 344 1244 q 447 1214 400 1214 q 521 1229 493 1214 q 562 1266 549 1244 q 579 1311 576 1288 q 581 1324 581 1318 q 581 1333 581 1329 l 643 1333 q 645 1318 644 1326 q 646 1303 646 1310 q 620 1213 646 1252 q 550 1151 595 1173 q 447 1129 506 1129 z "},"Ě":{"ha":865,"x_min":55,"x_max":854,"o":"m 174 72 l 174 957 l 58 972 l 58 1032 l 753 1032 l 773 828 l 706 828 l 663 961 l 288 968 l 288 564 l 544 568 l 562 683 l 631 683 l 631 376 l 562 376 l 544 494 l 288 499 l 288 71 l 711 82 l 788 260 l 854 240 l 808 0 l 55 0 l 55 60 l 174 72 m 388 1122 l 219 1308 l 265 1342 l 447 1203 l 628 1342 l 674 1308 l 506 1122 l 388 1122 z "},"Ȩ":{"ha":865,"x_min":55,"x_max":854,"o":"m 174 72 l 174 957 l 58 972 l 58 1032 l 753 1032 l 773 828 l 706 828 l 663 961 l 288 968 l 288 564 l 544 568 l 562 683 l 631 683 l 631 376 l 562 376 l 544 494 l 288 499 l 288 71 l 711 82 l 788 260 l 854 240 l 808 0 l 55 0 l 55 60 l 174 72 m 402 -326 q 346 -321 374 -326 q 299 -308 317 -315 l 299 -226 q 333 -234 313 -231 q 364 -237 353 -237 q 442 -220 415 -237 q 469 -139 469 -202 q 460 -81 469 -110 q 440 -31 451 -53 q 422 0 428 -9 l 454 0 l 479 0 q 515 -42 494 -13 q 551 -109 535 -70 q 567 -192 567 -148 q 547 -269 567 -239 q 490 -312 526 -299 q 402 -326 453 -326 z "},"Ḝ":{"ha":865,"x_min":55,"x_max":854,"o":"m 174 72 l 174 957 l 58 972 l 58 1032 l 753 1032 l 773 828 l 706 828 l 663 961 l 288 968 l 288 564 l 544 568 l 562 683 l 631 683 l 631 376 l 562 376 l 544 494 l 288 499 l 288 71 l 711 82 l 788 260 l 854 240 l 808 0 l 55 0 l 55 60 l 174 72 m 402 -326 q 346 -321 374 -326 q 299 -308 317 -315 l 299 -226 q 333 -234 313 -231 q 364 -237 353 -237 q 442 -220 415 -237 q 469 -139 469 -202 q 460 -81 469 -110 q 440 -31 451 -53 q 422 0 428 -9 l 454 0 l 479 0 q 515 -42 494 -13 q 551 -109 535 -70 q 567 -192 567 -148 q 547 -269 567 -239 q 490 -312 526 -299 q 402 -326 453 -326 m 447 1129 q 343 1151 388 1129 q 273 1213 298 1173 q 247 1303 247 1252 q 248 1318 247 1310 q 250 1333 249 1326 l 313 1333 q 313 1324 313 1329 q 314 1311 313 1318 q 331 1266 317 1288 q 372 1229 344 1244 q 447 1214 400 1214 q 521 1229 493 1214 q 562 1266 549 1244 q 579 1311 576 1288 q 581 1324 581 1318 q 581 1333 581 1329 l 643 1333 q 645 1318 644 1326 q 646 1303 646 1310 q 620 1213 646 1252 q 550 1151 595 1173 q 447 1129 506 1129 z "},"Ê":{"ha":865,"x_min":55,"x_max":854,"o":"m 174 72 l 174 957 l 58 972 l 58 1032 l 753 1032 l 773 828 l 706 828 l 663 961 l 288 968 l 288 564 l 544 568 l 562 683 l 631 683 l 631 376 l 562 376 l 544 494 l 288 499 l 288 71 l 711 82 l 788 260 l 854 240 l 808 0 l 55 0 l 55 60 l 174 72 m 265 1114 l 219 1149 l 388 1340 l 506 1340 l 674 1149 l 628 1114 l 447 1260 l 265 1114 z "},"Ế":{"ha":865,"x_min":55,"x_max":854,"o":"m 174 72 l 174 957 l 58 972 l 58 1032 l 753 1032 l 773 828 l 706 828 l 663 961 l 288 968 l 288 564 l 544 568 l 562 683 l 631 683 l 631 376 l 562 376 l 544 494 l 288 499 l 288 71 l 711 82 l 788 260 l 854 240 l 808 0 l 55 0 l 55 60 l 174 72 m 264 1107 l 218 1144 l 394 1331 l 499 1331 l 675 1144 l 629 1107 l 447 1240 l 264 1107 m 645 1293 l 644 1293 l 599 1331 l 750 1513 l 830 1449 q 774 1387 807 1418 q 706 1331 740 1356 q 645 1293 672 1306 z "},"Ḙ":{"ha":865,"x_min":55,"x_max":854,"o":"m 174 72 l 174 957 l 58 972 l 58 1032 l 753 1032 l 773 828 l 706 828 l 663 961 l 288 968 l 288 564 l 544 568 l 562 683 l 631 683 l 631 376 l 562 376 l 544 494 l 288 499 l 288 71 l 711 82 l 788 260 l 854 240 l 808 0 l 55 0 l 55 60 l 174 72 m 371 -81 l 494 -81 l 673 -313 l 627 -348 l 433 -173 l 238 -348 l 192 -313 l 371 -81 z "},"Ệ":{"ha":865,"x_min":55,"x_max":854,"o":"m 174 72 l 174 957 l 58 972 l 58 1032 l 753 1032 l 773 828 l 706 828 l 663 961 l 288 968 l 288 564 l 544 568 l 562 683 l 631 683 l 631 376 l 562 376 l 544 494 l 288 499 l 288 71 l 711 82 l 788 260 l 854 240 l 808 0 l 55 0 l 55 60 l 174 72 m 421 -274 q 365 -251 384 -274 q 345 -194 345 -228 q 366 -131 345 -160 q 431 -103 388 -103 l 432 -103 q 488 -126 469 -103 q 508 -183 508 -149 q 486 -245 508 -217 q 422 -274 465 -274 l 421 -274 m 265 1114 l 219 1149 l 388 1340 l 506 1340 l 674 1149 l 628 1114 l 447 1260 l 265 1114 z "},"Ề":{"ha":865,"x_min":55,"x_max":854,"o":"m 174 72 l 174 957 l 58 972 l 58 1032 l 753 1032 l 773 828 l 706 828 l 663 961 l 288 968 l 288 564 l 544 568 l 562 683 l 631 683 l 631 376 l 562 376 l 544 494 l 288 499 l 288 71 l 711 82 l 788 260 l 854 240 l 808 0 l 55 0 l 55 60 l 174 72 m 264 1107 l 218 1144 l 394 1331 l 499 1331 l 675 1144 l 629 1107 l 447 1240 l 264 1107 m 676 1293 q 615 1331 650 1306 q 547 1387 581 1356 q 491 1449 514 1418 l 571 1513 l 722 1331 l 677 1293 l 676 1293 z "},"Ể":{"ha":865,"x_min":55,"x_max":854,"o":"m 174 72 l 174 957 l 58 972 l 58 1032 l 753 1032 l 773 828 l 706 828 l 663 961 l 288 968 l 288 564 l 544 568 l 562 683 l 631 683 l 631 376 l 562 376 l 544 494 l 288 499 l 288 71 l 711 82 l 788 260 l 854 240 l 808 0 l 55 0 l 55 60 l 174 72 m 262 1107 l 216 1144 l 392 1331 l 497 1331 l 673 1144 l 627 1107 l 444 1240 l 262 1107 m 631 1286 q 620 1306 624 1297 q 615 1327 615 1315 q 626 1355 615 1342 q 652 1378 638 1367 q 678 1403 667 1390 q 689 1433 689 1416 q 672 1467 689 1452 q 624 1481 656 1481 q 596 1478 609 1481 q 572 1471 583 1476 l 572 1543 q 603 1555 585 1551 q 647 1560 622 1560 q 743 1526 707 1560 q 778 1450 778 1493 q 765 1402 778 1422 q 734 1367 752 1381 q 700 1344 716 1353 q 678 1315 678 1331 q 683 1286 678 1300 l 631 1286 z "},"Ễ":{"ha":865,"x_min":55,"x_max":854,"o":"m 174 72 l 174 957 l 58 972 l 58 1032 l 753 1032 l 773 828 l 706 828 l 663 961 l 288 968 l 288 564 l 544 568 l 562 683 l 631 683 l 631 376 l 562 376 l 544 494 l 288 499 l 288 71 l 711 82 l 788 260 l 854 240 l 808 0 l 55 0 l 55 60 l 174 72 m 264 1107 l 218 1144 l 394 1331 l 499 1331 l 675 1144 l 629 1107 l 447 1240 l 264 1107 m 526 1392 q 459 1411 488 1392 q 407 1450 431 1431 q 360 1469 384 1469 q 327 1453 338 1469 q 307 1410 315 1436 l 253 1431 q 292 1518 263 1480 q 367 1557 321 1557 q 434 1538 406 1557 q 486 1499 463 1518 q 533 1479 510 1479 q 566 1496 555 1479 q 586 1538 578 1513 l 640 1518 q 601 1430 630 1469 q 526 1392 572 1392 z "},"Ȅ":{"ha":865,"x_min":55,"x_max":854,"o":"m 174 72 l 174 957 l 58 972 l 58 1032 l 753 1032 l 773 828 l 706 828 l 663 961 l 288 968 l 288 564 l 544 568 l 562 683 l 631 683 l 631 376 l 562 376 l 544 494 l 288 499 l 288 71 l 711 82 l 788 260 l 854 240 l 808 0 l 55 0 l 55 60 l 174 72 m 333 1114 q 281 1149 309 1128 q 223 1195 252 1170 q 166 1248 193 1221 q 118 1303 139 1276 l 198 1368 l 379 1157 l 334 1114 l 333 1114 m 585 1114 q 518 1164 554 1133 q 447 1230 482 1194 q 385 1303 413 1267 l 465 1368 l 631 1151 l 587 1114 l 585 1114 z "},"Ë":{"ha":865,"x_min":55,"x_max":854,"o":"m 174 72 l 174 957 l 58 972 l 58 1032 l 753 1032 l 773 828 l 706 828 l 663 961 l 288 968 l 288 564 l 544 568 l 562 683 l 631 683 l 631 376 l 562 376 l 544 494 l 288 499 l 288 71 l 711 82 l 788 260 l 854 240 l 808 0 l 55 0 l 55 60 l 174 72 m 322 1133 q 274 1156 292 1133 q 256 1213 256 1179 q 276 1276 256 1247 q 331 1304 296 1304 l 333 1304 q 380 1281 362 1304 q 398 1224 398 1258 q 378 1162 398 1190 q 323 1133 358 1133 l 322 1133 m 562 1133 q 515 1156 533 1133 q 497 1213 497 1179 q 516 1276 497 1247 q 572 1304 536 1304 l 573 1304 q 620 1281 602 1304 q 638 1224 638 1258 q 618 1162 638 1190 q 563 1133 599 1133 l 562 1133 z "},"Ė":{"ha":865,"x_min":55,"x_max":854,"o":"m 174 72 l 174 957 l 58 972 l 58 1032 l 753 1032 l 773 828 l 706 828 l 663 961 l 288 968 l 288 564 l 544 568 l 562 683 l 631 683 l 631 376 l 562 376 l 544 494 l 288 499 l 288 71 l 711 82 l 788 260 l 854 240 l 808 0 l 55 0 l 55 60 l 174 72 m 441 1133 q 383 1156 403 1133 q 364 1213 364 1179 q 385 1276 364 1247 q 451 1304 406 1304 l 452 1304 q 510 1281 490 1304 q 529 1224 529 1258 q 508 1162 529 1190 q 442 1133 487 1133 l 441 1133 z "},"Ẹ":{"ha":865,"x_min":55,"x_max":854,"o":"m 174 72 l 174 957 l 58 972 l 58 1032 l 753 1032 l 773 828 l 706 828 l 663 961 l 288 968 l 288 564 l 544 568 l 562 683 l 631 683 l 631 376 l 562 376 l 544 494 l 288 499 l 288 71 l 711 82 l 788 260 l 854 240 l 808 0 l 55 0 l 55 60 l 174 72 m 421 -274 q 365 -251 384 -274 q 345 -194 345 -228 q 366 -131 345 -160 q 431 -103 388 -103 l 432 -103 q 488 -126 469 -103 q 508 -183 508 -149 q 486 -245 508 -217 q 422 -274 465 -274 l 421 -274 z "},"È":{"ha":865,"x_min":55,"x_max":854,"o":"m 174 72 l 174 957 l 58 972 l 58 1032 l 753 1032 l 773 828 l 706 828 l 663 961 l 288 968 l 288 564 l 544 568 l 562 683 l 631 683 l 631 376 l 562 376 l 544 494 l 288 499 l 288 71 l 711 82 l 788 260 l 854 240 l 808 0 l 55 0 l 55 60 l 174 72 m 455 1111 q 401 1141 431 1121 q 340 1187 371 1161 q 283 1239 310 1213 q 240 1289 257 1266 l 334 1365 l 501 1149 l 456 1111 l 455 1111 z "},"Ẻ":{"ha":865,"x_min":55,"x_max":854,"o":"m 174 72 l 174 957 l 58 972 l 58 1032 l 753 1032 l 773 828 l 706 828 l 663 961 l 288 968 l 288 564 l 544 568 l 562 683 l 631 683 l 631 376 l 562 376 l 544 494 l 288 499 l 288 71 l 711 82 l 788 260 l 854 240 l 808 0 l 55 0 l 55 60 l 174 72 m 403 1106 q 393 1128 397 1117 q 390 1153 390 1140 q 402 1188 390 1174 q 430 1212 414 1201 q 457 1235 445 1223 q 469 1263 469 1247 q 450 1302 469 1291 q 390 1313 431 1313 q 355 1308 373 1313 q 326 1297 338 1303 l 326 1372 q 370 1387 344 1381 q 422 1393 397 1393 q 497 1379 464 1393 q 548 1340 529 1365 q 567 1277 567 1314 q 556 1225 567 1245 q 529 1194 545 1206 q 497 1173 513 1182 q 466 1140 469 1158 q 467 1106 463 1122 l 403 1106 z "},"Ȇ":{"ha":865,"x_min":55,"x_max":854,"o":"m 174 72 l 174 957 l 58 972 l 58 1032 l 753 1032 l 773 828 l 706 828 l 663 961 l 288 968 l 288 564 l 544 568 l 562 683 l 631 683 l 631 376 l 562 376 l 544 494 l 288 499 l 288 71 l 711 82 l 788 260 l 854 240 l 808 0 l 55 0 l 55 60 l 174 72 m 447 1350 q 560 1326 513 1350 q 634 1260 608 1303 q 660 1161 660 1217 q 659 1146 660 1154 q 657 1129 658 1138 l 594 1129 q 594 1140 594 1133 q 593 1153 594 1146 q 576 1202 590 1178 q 531 1242 562 1226 q 447 1258 500 1258 q 363 1242 393 1258 q 318 1202 332 1226 q 300 1153 303 1178 q 299 1140 299 1146 q 299 1129 299 1133 l 236 1129 q 234 1146 235 1138 q 233 1161 233 1154 q 259 1260 233 1217 q 333 1326 285 1303 q 447 1350 381 1350 z "},"Ē":{"ha":865,"x_min":55,"x_max":854,"o":"m 174 72 l 174 957 l 58 972 l 58 1032 l 753 1032 l 773 828 l 706 828 l 663 961 l 288 968 l 288 564 l 544 568 l 562 683 l 631 683 l 631 376 l 562 376 l 544 494 l 288 499 l 288 71 l 711 82 l 788 260 l 854 240 l 808 0 l 55 0 l 55 60 l 174 72 m 629 1228 l 629 1151 l 264 1151 l 264 1228 l 629 1228 z "},"Ḗ":{"ha":865,"x_min":55,"x_max":854,"o":"m 174 72 l 174 957 l 58 972 l 58 1032 l 753 1032 l 773 828 l 706 828 l 663 961 l 288 968 l 288 564 l 544 568 l 562 683 l 631 683 l 631 376 l 562 376 l 544 494 l 288 499 l 288 71 l 711 82 l 788 260 l 854 240 l 808 0 l 55 0 l 55 60 l 174 72 m 629 1228 l 629 1151 l 264 1151 l 264 1228 l 629 1228 m 444 1288 l 399 1326 l 566 1542 l 660 1466 q 617 1416 643 1443 q 560 1364 590 1390 q 499 1318 529 1338 q 445 1288 469 1298 l 444 1288 z "},"Ḕ":{"ha":865,"x_min":55,"x_max":854,"o":"m 174 72 l 174 957 l 58 972 l 58 1032 l 753 1032 l 773 828 l 706 828 l 663 961 l 288 968 l 288 564 l 544 568 l 562 683 l 631 683 l 631 376 l 562 376 l 544 494 l 288 499 l 288 71 l 711 82 l 788 260 l 854 240 l 808 0 l 55 0 l 55 60 l 174 72 m 629 1228 l 629 1151 l 264 1151 l 264 1228 l 629 1228 m 455 1288 q 401 1318 431 1298 q 340 1364 371 1338 q 283 1416 310 1390 q 240 1466 257 1443 l 334 1542 l 501 1326 l 456 1288 l 455 1288 z "},"Ę":{"ha":865,"x_min":55,"x_max":854,"o":"m 174 72 l 174 957 l 58 972 l 58 1032 l 753 1032 l 773 828 l 706 828 l 663 961 l 288 968 l 288 564 l 544 568 l 562 683 l 631 683 l 631 376 l 562 376 l 544 494 l 288 499 l 288 71 l 711 82 l 788 260 l 854 240 l 808 0 l 55 0 l 55 60 l 174 72 m 608 -344 q 530 -330 565 -344 q 473 -285 494 -315 q 452 -215 452 -256 q 476 -124 452 -165 q 537 -51 501 -83 q 608 1 573 -19 l 649 7 l 702 1 q 620 -53 652 -19 q 572 -123 588 -86 q 556 -191 556 -160 q 574 -247 556 -227 q 631 -267 592 -267 q 699 -255 667 -267 q 758 -222 731 -242 l 778 -280 q 713 -325 758 -305 q 608 -344 667 -344 z "},"Ɛ":{"ha":796,"x_min":39,"x_max":743,"o":"m 399 -15 q 211 20 292 -16 q 84 126 130 56 q 39 302 39 197 q 98 470 39 401 q 257 564 156 538 q 124 642 174 588 q 73 785 73 697 q 113 925 73 867 q 234 1013 153 983 q 437 1044 315 1044 q 520 1039 482 1044 q 592 1027 558 1034 q 656 1012 626 1020 q 715 998 686 1004 l 703 771 l 631 771 l 602 933 q 528 966 567 955 q 412 978 488 978 q 248 924 307 978 q 188 776 188 871 q 241 638 188 683 q 402 588 293 592 q 463 589 428 588 q 539 595 499 591 l 539 483 q 454 503 486 497 q 402 509 422 509 q 232 445 299 504 q 164 283 164 385 q 232 111 164 166 q 426 53 300 56 q 535 67 486 53 q 619 103 583 81 l 675 233 l 743 224 l 708 38 q 619 18 664 31 q 521 -5 574 6 q 399 -15 468 -15 z "},"Ɜ":{"ha":799,"x_min":53,"x_max":760,"o":"m 385 -15 q 265 -5 319 -15 q 168 17 212 6 q 83 34 124 29 l 53 224 l 121 235 l 170 103 q 222 77 188 88 q 297 60 256 66 q 374 54 337 54 q 516 79 458 54 q 605 154 574 103 q 635 283 635 205 q 613 405 635 351 q 538 487 590 458 q 397 509 485 515 q 368 506 388 508 q 323 498 349 503 q 260 483 296 492 l 260 595 q 312 591 288 592 q 359 588 337 589 q 397 588 381 588 q 517 612 469 591 q 588 674 564 633 q 611 776 611 715 q 552 924 611 871 q 387 978 492 978 q 280 965 322 978 q 211 933 239 953 l 182 771 l 110 771 l 98 998 q 157 1012 127 1004 q 221 1027 188 1020 q 292 1039 254 1034 q 374 1044 330 1044 q 569 1014 491 1044 q 687 927 647 983 q 726 790 726 870 q 676 646 726 705 q 542 564 625 587 q 702 471 643 538 q 760 302 760 403 q 659 65 760 145 q 385 -15 558 -15 z "},"Ʃ":{"ha":706,"x_min":31,"x_max":675,"o":"m 108 -17 q 60 -13 77 -17 q 31 -6 43 -10 l 31 108 q 73 92 40 101 q 154 83 106 83 q 260 121 226 83 q 294 254 294 158 l 294 738 q 320 857 294 801 q 390 955 346 913 q 487 1021 433 997 q 597 1044 541 1044 q 645 1041 628 1044 q 675 1033 663 1038 l 675 919 q 633 936 666 927 q 551 944 601 944 q 444 907 480 944 q 409 774 409 869 l 409 290 q 384 170 409 226 q 315 73 358 115 q 218 7 272 31 q 108 -17 165 -17 z "},"Ɇ":{"ha":865,"x_min":55,"x_max":854,"o":"m 261 -113 l 636 1164 l 688 1148 l 311 -133 l 261 -113 m 174 72 l 174 957 l 58 972 l 58 1032 l 753 1032 l 773 828 l 706 828 l 663 961 l 288 968 l 288 564 l 544 568 l 562 683 l 631 683 l 631 376 l 562 376 l 544 494 l 288 499 l 288 71 l 711 82 l 788 260 l 854 240 l 808 0 l 55 0 l 55 60 l 174 72 z "},"Ẽ":{"ha":865,"x_min":55,"x_max":854,"o":"m 174 72 l 174 957 l 58 972 l 58 1032 l 753 1032 l 773 828 l 706 828 l 663 961 l 288 968 l 288 564 l 544 568 l 562 683 l 631 683 l 631 376 l 562 376 l 544 494 l 288 499 l 288 71 l 711 82 l 788 260 l 854 240 l 808 0 l 55 0 l 55 60 l 174 72 m 524 1125 q 468 1140 490 1125 q 431 1173 447 1154 q 400 1207 415 1192 q 364 1222 385 1222 q 321 1195 336 1222 q 296 1135 306 1169 l 245 1156 q 283 1263 247 1225 q 369 1301 319 1301 q 425 1286 403 1301 q 462 1252 447 1272 q 493 1218 478 1233 q 529 1203 508 1203 q 573 1230 557 1203 q 597 1291 588 1256 l 648 1269 q 610 1163 646 1200 q 524 1125 574 1125 z "},"Ḛ":{"ha":865,"x_min":55,"x_max":854,"o":"m 174 72 l 174 957 l 58 972 l 58 1032 l 753 1032 l 773 828 l 706 828 l 663 961 l 288 968 l 288 564 l 544 568 l 562 683 l 631 683 l 631 376 l 562 376 l 544 494 l 288 499 l 288 71 l 711 82 l 788 260 l 854 240 l 808 0 l 55 0 l 55 60 l 174 72 m 519 -274 q 459 -259 483 -274 q 416 -226 435 -244 q 381 -192 398 -207 q 340 -178 363 -178 q 298 -199 315 -178 q 273 -257 281 -221 l 212 -228 q 257 -125 222 -162 q 346 -87 292 -87 q 406 -102 382 -87 q 449 -135 431 -117 q 485 -169 467 -154 q 525 -183 502 -183 q 568 -162 551 -183 q 592 -104 585 -140 l 653 -133 q 608 -236 644 -199 q 519 -274 573 -274 z "},"Ǝ":{"ha":865,"x_min":15,"x_max":810,"o":"m 691 72 l 810 60 l 810 0 l 58 0 l 15 235 l 81 256 l 152 82 l 577 71 l 577 499 l 322 494 l 303 376 l 234 376 l 234 683 l 303 683 l 322 568 l 577 564 l 577 968 l 205 961 l 167 828 l 101 828 l 120 1032 l 808 1032 l 808 972 l 691 957 l 691 72 z "},"Ə":{"ha":927,"x_min":36,"x_max":878,"o":"m 419 -15 q 278 12 346 -15 q 157 92 210 39 q 70 220 103 144 q 36 394 38 297 q 37 472 36 438 q 43 529 38 506 l 749 529 q 701 769 743 669 q 587 924 659 870 q 418 978 515 978 q 303 966 352 978 q 219 938 253 954 q 165 908 185 922 l 140 790 l 67 790 l 68 989 q 132 999 97 990 q 211 1017 167 1007 q 311 1035 255 1028 q 440 1043 368 1043 q 620 1006 540 1043 q 759 899 701 968 q 848 734 817 830 q 878 522 878 638 q 845 304 878 403 q 749 134 811 205 q 603 24 688 63 q 419 -15 519 -15 m 435 50 q 558 74 501 50 q 656 148 614 98 q 722 276 698 199 q 749 461 746 354 l 167 461 q 163 424 164 442 q 161 385 161 405 q 178 269 161 328 q 230 160 196 210 q 316 80 265 110 q 435 50 367 50 z "},"Ʒ":{"ha":772,"x_min":44,"x_max":733,"o":"m 315 -8 q 185 2 239 -8 q 97 23 131 12 q 44 39 63 35 l 71 261 l 136 261 l 165 97 q 190 87 172 94 q 241 73 207 80 q 331 67 274 67 q 454 86 403 67 q 538 139 506 106 q 586 216 571 173 q 601 306 601 259 q 575 426 601 377 q 485 502 548 476 q 314 533 422 529 q 285 533 299 533 q 256 533 270 533 l 239 582 l 490 872 l 556 947 l 157 943 l 115 800 l 44 800 l 50 1032 l 671 1032 l 692 974 l 349 585 q 417 583 383 585 q 483 576 451 581 q 582 550 536 567 q 661 503 627 533 q 714 429 695 473 q 733 324 733 385 q 703 186 733 247 q 617 81 673 124 q 485 15 562 38 q 315 -8 408 -8 z "},"Ǯ":{"ha":772,"x_min":44,"x_max":733,"o":"m 315 -8 q 185 2 239 -8 q 97 23 131 12 q 44 39 63 35 l 71 261 l 136 261 l 165 97 q 190 87 172 94 q 241 73 207 80 q 331 67 274 67 q 454 86 403 67 q 538 139 506 106 q 586 216 571 173 q 601 306 601 259 q 575 426 601 377 q 485 502 548 476 q 314 533 422 529 q 285 533 299 533 q 256 533 270 533 l 239 582 l 490 872 l 556 947 l 157 943 l 115 800 l 44 800 l 50 1032 l 671 1032 l 692 974 l 349 585 q 417 583 383 585 q 483 576 451 581 q 582 550 536 567 q 661 503 627 533 q 714 429 695 473 q 733 324 733 385 q 703 186 733 247 q 617 81 673 124 q 485 15 562 38 q 315 -8 408 -8 m 327 1122 l 158 1308 l 204 1342 l 386 1203 l 568 1342 l 614 1308 l 445 1122 l 327 1122 z "},"Ƹ":{"ha":772,"x_min":39,"x_max":728,"o":"m 457 -8 q 287 15 364 -8 q 155 81 210 38 q 69 186 99 124 q 39 324 39 247 q 58 429 39 385 q 111 503 77 473 q 191 550 145 533 q 290 576 237 567 q 356 583 322 581 q 424 585 390 585 l 81 974 l 101 1032 l 722 1032 l 728 800 l 657 800 l 615 943 l 217 947 l 283 872 l 533 582 l 517 533 q 488 533 502 533 q 458 533 473 533 q 287 502 350 529 q 198 426 224 476 q 171 306 171 377 q 186 216 171 259 q 234 139 201 173 q 318 86 267 106 q 442 67 369 67 q 532 73 498 67 q 583 87 565 80 q 607 97 600 94 l 636 261 l 701 261 l 728 39 q 675 23 710 35 q 587 2 641 12 q 457 -8 533 -8 z "},"F":{"ha":845,"x_min":55,"x_max":797,"o":"m 177 72 l 177 957 l 55 972 l 55 1032 l 783 1032 l 797 804 l 721 804 l 682 961 l 291 968 l 291 557 l 569 561 l 592 674 l 656 674 l 656 367 l 592 367 l 569 485 l 291 490 l 291 72 l 509 60 l 509 0 l 63 0 l 63 60 l 177 72 z "},"Ḟ":{"ha":845,"x_min":55,"x_max":797,"o":"m 177 72 l 177 957 l 55 972 l 55 1032 l 783 1032 l 797 804 l 721 804 l 682 961 l 291 968 l 291 557 l 569 561 l 592 674 l 656 674 l 656 367 l 592 367 l 569 485 l 291 490 l 291 72 l 509 60 l 509 0 l 63 0 l 63 60 l 177 72 m 445 1133 q 388 1156 407 1133 q 368 1213 368 1179 q 389 1276 368 1247 q 455 1304 410 1304 l 456 1304 q 514 1281 494 1304 q 533 1224 533 1258 q 512 1162 533 1190 q 447 1133 491 1133 l 445 1133 z "},"Ƒ":{"ha":845,"x_min":-52,"x_max":797,"o":"m 16 -349 q -27 -345 -12 -349 q -52 -337 -42 -342 l -52 -226 q -14 -242 -42 -233 q 55 -251 15 -251 q 127 -231 100 -251 q 165 -173 153 -212 q 177 -78 177 -135 l 177 957 l 55 972 l 55 1032 l 783 1032 l 797 804 l 721 804 l 682 961 l 291 968 l 291 557 l 569 561 l 592 674 l 656 674 l 656 367 l 592 367 l 569 485 l 291 490 l 291 -44 q 267 -163 291 -108 q 204 -260 244 -218 q 115 -325 164 -301 q 16 -349 66 -349 z "},"G":{"ha":1001,"x_min":37,"x_max":981,"o":"m 522 -15 q 316 24 406 -15 q 164 134 226 64 q 69 298 101 205 q 37 499 37 392 q 73 731 37 629 q 177 902 110 832 q 339 1007 244 972 q 551 1043 434 1043 q 656 1037 604 1043 q 754 1023 708 1031 q 834 1008 799 1015 q 885 1000 868 1001 l 874 769 l 802 769 l 772 929 q 731 949 761 938 q 652 968 701 960 q 538 976 603 976 q 337 927 420 976 q 211 780 254 878 q 167 535 167 681 q 187 356 167 443 q 250 200 207 269 q 362 90 293 131 q 530 49 431 49 q 623 58 579 49 q 706 81 667 66 q 780 115 744 96 l 780 432 l 587 446 l 587 519 l 981 519 l 981 446 l 897 432 l 897 56 q 839 47 868 55 q 777 29 810 40 q 707 9 744 19 q 623 -8 669 -1 q 522 -15 577 -15 z "},"Ǵ":{"ha":1001,"x_min":37,"x_max":981,"o":"m 522 -15 q 316 24 406 -15 q 164 134 226 64 q 69 298 101 205 q 37 499 37 392 q 73 731 37 629 q 177 902 110 832 q 339 1007 244 972 q 551 1043 434 1043 q 656 1037 604 1043 q 754 1023 708 1031 q 834 1008 799 1015 q 885 1000 868 1001 l 874 769 l 802 769 l 772 929 q 731 949 761 938 q 652 968 701 960 q 538 976 603 976 q 337 927 420 976 q 211 780 254 878 q 167 535 167 681 q 187 356 167 443 q 250 200 207 269 q 362 90 293 131 q 530 49 431 49 q 623 58 579 49 q 706 81 667 66 q 780 115 744 96 l 780 432 l 587 446 l 587 519 l 981 519 l 981 446 l 897 432 l 897 56 q 839 47 868 55 q 777 29 810 40 q 707 9 744 19 q 623 -8 669 -1 q 522 -15 577 -15 m 519 1111 l 474 1149 l 641 1365 l 735 1289 q 692 1239 718 1266 q 635 1187 665 1213 q 574 1141 604 1161 q 520 1111 544 1121 l 519 1111 z "},"Ğ":{"ha":1001,"x_min":37,"x_max":981,"o":"m 522 -15 q 316 24 406 -15 q 164 134 226 64 q 69 298 101 205 q 37 499 37 392 q 73 731 37 629 q 177 902 110 832 q 339 1007 244 972 q 551 1043 434 1043 q 656 1037 604 1043 q 754 1023 708 1031 q 834 1008 799 1015 q 885 1000 868 1001 l 874 769 l 802 769 l 772 929 q 731 949 761 938 q 652 968 701 960 q 538 976 603 976 q 337 927 420 976 q 211 780 254 878 q 167 535 167 681 q 187 356 167 443 q 250 200 207 269 q 362 90 293 131 q 530 49 431 49 q 623 58 579 49 q 706 81 667 66 q 780 115 744 96 l 780 432 l 587 446 l 587 519 l 981 519 l 981 446 l 897 432 l 897 56 q 839 47 868 55 q 777 29 810 40 q 707 9 744 19 q 623 -8 669 -1 q 522 -15 577 -15 m 522 1129 q 418 1151 463 1129 q 348 1213 373 1173 q 322 1303 322 1252 q 323 1318 322 1310 q 325 1333 324 1326 l 388 1333 q 388 1324 388 1329 q 389 1311 388 1318 q 406 1266 392 1288 q 447 1229 419 1244 q 522 1214 475 1214 q 596 1229 568 1214 q 637 1266 624 1244 q 654 1311 651 1288 q 656 1324 656 1318 q 656 1333 656 1329 l 718 1333 q 720 1318 719 1326 q 721 1303 721 1310 q 695 1213 721 1252 q 625 1151 670 1173 q 522 1129 581 1129 z "},"Ǧ":{"ha":1001,"x_min":37,"x_max":981,"o":"m 522 -15 q 316 24 406 -15 q 164 134 226 64 q 69 298 101 205 q 37 499 37 392 q 73 731 37 629 q 177 902 110 832 q 339 1007 244 972 q 551 1043 434 1043 q 656 1037 604 1043 q 754 1023 708 1031 q 834 1008 799 1015 q 885 1000 868 1001 l 874 769 l 802 769 l 772 929 q 731 949 761 938 q 652 968 701 960 q 538 976 603 976 q 337 927 420 976 q 211 780 254 878 q 167 535 167 681 q 187 356 167 443 q 250 200 207 269 q 362 90 293 131 q 530 49 431 49 q 623 58 579 49 q 706 81 667 66 q 780 115 744 96 l 780 432 l 587 446 l 587 519 l 981 519 l 981 446 l 897 432 l 897 56 q 839 47 868 55 q 777 29 810 40 q 707 9 744 19 q 623 -8 669 -1 q 522 -15 577 -15 m 463 1122 l 294 1308 l 340 1342 l 522 1203 l 703 1342 l 749 1308 l 581 1122 l 463 1122 z "},"Ĝ":{"ha":1001,"x_min":37,"x_max":981,"o":"m 522 -15 q 316 24 406 -15 q 164 134 226 64 q 69 298 101 205 q 37 499 37 392 q 73 731 37 629 q 177 902 110 832 q 339 1007 244 972 q 551 1043 434 1043 q 656 1037 604 1043 q 754 1023 708 1031 q 834 1008 799 1015 q 885 1000 868 1001 l 874 769 l 802 769 l 772 929 q 731 949 761 938 q 652 968 701 960 q 538 976 603 976 q 337 927 420 976 q 211 780 254 878 q 167 535 167 681 q 187 356 167 443 q 250 200 207 269 q 362 90 293 131 q 530 49 431 49 q 623 58 579 49 q 706 81 667 66 q 780 115 744 96 l 780 432 l 587 446 l 587 519 l 981 519 l 981 446 l 897 432 l 897 56 q 839 47 868 55 q 777 29 810 40 q 707 9 744 19 q 623 -8 669 -1 q 522 -15 577 -15 m 340 1114 l 294 1149 l 463 1340 l 581 1340 l 749 1149 l 703 1114 l 522 1260 l 340 1114 z "},"Ģ":{"ha":1001,"x_min":37,"x_max":981,"o":"m 522 -15 q 316 24 406 -15 q 164 134 226 64 q 69 298 101 205 q 37 499 37 392 q 73 731 37 629 q 177 902 110 832 q 339 1007 244 972 q 551 1043 434 1043 q 656 1037 604 1043 q 754 1023 708 1031 q 834 1008 799 1015 q 885 1000 868 1001 l 874 769 l 802 769 l 772 929 q 731 949 761 938 q 652 968 701 960 q 538 976 603 976 q 337 927 420 976 q 211 780 254 878 q 167 535 167 681 q 187 356 167 443 q 250 200 207 269 q 362 90 293 131 q 530 49 431 49 q 623 58 579 49 q 706 81 667 66 q 780 115 744 96 l 780 432 l 587 446 l 587 519 l 981 519 l 981 446 l 897 432 l 897 56 q 839 47 868 55 q 777 29 810 40 q 707 9 744 19 q 623 -8 669 -1 q 522 -15 577 -15 m 590 -200 q 567 -287 590 -249 q 519 -347 544 -325 q 486 -372 494 -369 l 485 -372 l 447 -346 l 447 -337 q 481 -300 468 -327 q 494 -251 494 -273 q 485 -219 494 -231 q 465 -201 476 -208 q 447 -183 455 -194 q 439 -150 439 -172 q 451 -111 439 -124 q 478 -93 463 -98 q 503 -89 493 -89 l 506 -89 q 567 -117 544 -89 q 590 -200 590 -146 z "},"Ġ":{"ha":1001,"x_min":37,"x_max":981,"o":"m 522 -15 q 316 24 406 -15 q 164 134 226 64 q 69 298 101 205 q 37 499 37 392 q 73 731 37 629 q 177 902 110 832 q 339 1007 244 972 q 551 1043 434 1043 q 656 1037 604 1043 q 754 1023 708 1031 q 834 1008 799 1015 q 885 1000 868 1001 l 874 769 l 802 769 l 772 929 q 731 949 761 938 q 652 968 701 960 q 538 976 603 976 q 337 927 420 976 q 211 780 254 878 q 167 535 167 681 q 187 356 167 443 q 250 200 207 269 q 362 90 293 131 q 530 49 431 49 q 623 58 579 49 q 706 81 667 66 q 780 115 744 96 l 780 432 l 587 446 l 587 519 l 981 519 l 981 446 l 897 432 l 897 56 q 839 47 868 55 q 777 29 810 40 q 707 9 744 19 q 623 -8 669 -1 q 522 -15 577 -15 m 516 1133 q 458 1156 478 1133 q 439 1213 439 1179 q 460 1276 439 1247 q 526 1304 481 1304 l 527 1304 q 585 1281 565 1304 q 604 1224 604 1258 q 583 1162 604 1190 q 517 1133 562 1133 l 516 1133 z "},"Ɠ":{"ha":1001,"x_min":37,"x_max":1076,"o":"m 874 769 l 831 794 l 820 973 q 868 1105 840 1056 q 934 1177 896 1155 q 1020 1200 972 1200 q 1052 1197 1038 1200 q 1076 1189 1065 1194 l 1076 1075 q 1033 1092 1061 1083 q 974 1100 1005 1100 q 930 1087 949 1100 q 899 1043 910 1074 q 885 955 888 1011 l 874 769 m 522 -15 q 316 24 406 -15 q 164 134 226 64 q 69 298 101 205 q 37 499 37 392 q 73 731 37 629 q 177 902 110 832 q 339 1007 244 972 q 551 1043 434 1043 q 656 1037 604 1043 q 754 1023 708 1031 q 834 1008 799 1015 q 885 1000 868 1001 l 874 769 l 802 769 l 772 929 q 731 949 761 938 q 652 968 701 960 q 538 976 603 976 q 337 927 420 976 q 211 780 254 878 q 167 535 167 681 q 187 356 167 443 q 250 200 207 269 q 362 90 293 131 q 530 49 431 49 q 623 58 579 49 q 706 81 667 66 q 780 115 744 96 l 780 432 l 587 446 l 587 519 l 981 519 l 981 446 l 897 432 l 897 56 q 839 47 868 55 q 777 29 810 40 q 707 9 744 19 q 623 -8 669 -1 q 522 -15 577 -15 z "},"Ɂ":{"ha":799,"x_min":53,"x_max":760,"o":"m 167 0 l 167 60 l 317 72 l 317 506 q 503 549 434 517 q 604 634 573 581 q 635 757 635 686 q 565 920 635 869 q 383 974 496 970 q 234 960 285 972 q 167 932 184 947 l 136 771 l 64 771 l 53 997 q 126 1013 78 1002 q 241 1032 173 1023 q 394 1042 308 1042 q 591 1007 510 1042 q 716 909 673 973 q 760 757 760 845 q 724 607 760 669 q 615 507 688 544 q 431 457 542 470 l 431 74 l 580 60 l 580 0 l 167 0 z "},"Ḡ":{"ha":1001,"x_min":37,"x_max":981,"o":"m 522 -15 q 316 24 406 -15 q 164 134 226 64 q 69 298 101 205 q 37 499 37 392 q 73 731 37 629 q 177 902 110 832 q 339 1007 244 972 q 551 1043 434 1043 q 656 1037 604 1043 q 754 1023 708 1031 q 834 1008 799 1015 q 885 1000 868 1001 l 874 769 l 802 769 l 772 929 q 731 949 761 938 q 652 968 701 960 q 538 976 603 976 q 337 927 420 976 q 211 780 254 878 q 167 535 167 681 q 187 356 167 443 q 250 200 207 269 q 362 90 293 131 q 530 49 431 49 q 623 58 579 49 q 706 81 667 66 q 780 115 744 96 l 780 432 l 587 446 l 587 519 l 981 519 l 981 446 l 897 432 l 897 56 q 839 47 868 55 q 777 29 810 40 q 707 9 744 19 q 623 -8 669 -1 q 522 -15 577 -15 m 704 1228 l 704 1151 l 339 1151 l 339 1228 l 704 1228 z "},"Ǥ":{"ha":1001,"x_min":37,"x_max":1003,"o":"m 522 -15 q 316 24 406 -15 q 164 134 226 64 q 69 298 101 205 q 37 499 37 392 q 73 731 37 629 q 177 902 110 832 q 339 1007 244 972 q 551 1043 434 1043 q 656 1037 604 1043 q 754 1023 708 1031 q 834 1008 799 1015 q 885 1000 868 1001 l 874 769 l 802 769 l 772 929 q 731 949 761 938 q 652 968 701 960 q 538 976 603 976 q 337 927 420 976 q 211 780 254 878 q 167 535 167 681 q 187 356 167 443 q 250 200 207 269 q 362 90 293 131 q 530 49 431 49 q 623 58 579 49 q 706 81 667 66 q 780 115 744 96 l 780 432 l 587 446 l 587 519 l 981 519 l 981 446 l 897 432 l 897 56 q 839 47 868 55 q 777 29 810 40 q 707 9 744 19 q 623 -8 669 -1 q 522 -15 577 -15 m 557 241 l 557 314 l 1003 314 l 1003 241 l 557 241 z "},"Ȝ":{"ha":743,"x_min":44,"x_max":650,"o":"m 191 -185 l 162 -141 q 268 -86 208 -124 q 385 7 328 -47 q 480 127 442 62 q 517 262 517 192 q 491 388 517 330 q 406 481 465 446 q 251 517 347 517 q 197 510 217 517 q 167 497 177 503 l 149 547 q 278 585 219 560 q 381 644 338 610 q 448 720 424 678 q 472 810 472 763 q 461 888 472 852 q 413 947 449 924 q 298 969 376 969 q 201 955 247 969 q 142 918 156 942 l 110 772 l 44 772 l 45 988 q 100 998 72 990 q 160 1016 128 1006 q 226 1033 191 1026 q 301 1040 261 1040 q 476 1011 408 1040 q 577 932 544 983 q 610 817 610 882 q 590 728 610 770 q 536 653 571 687 q 457 595 502 619 q 360 556 412 570 q 492 527 437 554 q 582 460 547 500 q 634 377 617 419 q 650 301 650 334 q 615 143 650 215 q 524 15 580 72 q 406 -84 469 -42 q 285 -150 342 -125 q 191 -185 228 -176 z "},"H":{"ha":1099,"x_min":55,"x_max":1044,"o":"m 170 72 l 170 957 l 58 972 l 58 1032 l 405 1032 l 405 972 l 284 957 l 284 567 l 815 567 l 815 957 l 696 972 l 696 1032 l 1040 1032 l 1040 972 l 928 957 l 928 72 l 1044 60 l 1044 0 l 694 0 l 694 60 l 815 72 l 815 493 l 284 493 l 284 72 l 406 60 l 406 0 l 55 0 l 55 60 l 170 72 z "},"Ħ":{"ha":1113,"x_min":62,"x_max":1051,"o":"m 177 72 l 177 957 l 63 972 l 63 1032 l 412 1032 l 412 972 l 291 957 l 291 497 l 822 497 l 822 957 l 705 972 l 705 1032 l 1045 1032 l 1045 972 l 935 957 l 935 72 l 1051 60 l 1051 0 l 703 0 l 703 60 l 822 72 l 822 424 l 291 424 l 291 72 l 413 60 l 413 0 l 62 0 l 62 60 l 177 72 m 1044 771 l 1044 702 l 64 702 l 64 771 l 1044 771 z "},"Ḫ":{"ha":1099,"x_min":55,"x_max":1044,"o":"m 170 72 l 170 957 l 58 972 l 58 1032 l 405 1032 l 405 972 l 284 957 l 284 567 l 815 567 l 815 957 l 696 972 l 696 1032 l 1040 1032 l 1040 972 l 928 957 l 928 72 l 1044 60 l 1044 0 l 694 0 l 694 60 l 815 72 l 815 493 l 284 493 l 284 72 l 406 60 l 406 0 l 55 0 l 55 60 l 170 72 m 549 -344 q 435 -320 483 -344 q 362 -254 388 -297 q 336 -156 336 -212 q 337 -140 336 -148 q 339 -124 338 -132 l 401 -124 q 402 -134 401 -128 q 403 -147 402 -140 q 420 -197 406 -172 q 465 -237 435 -221 q 549 -253 496 -253 q 634 -237 603 -253 q 678 -197 665 -221 q 696 -147 692 -172 q 697 -134 697 -140 q 697 -124 697 -128 l 760 -124 q 762 -140 761 -132 q 763 -156 763 -148 q 737 -254 763 -212 q 663 -320 711 -297 q 549 -344 615 -344 z "},"Ȟ":{"ha":1099,"x_min":55,"x_max":1044,"o":"m 170 72 l 170 957 l 58 972 l 58 1032 l 405 1032 l 405 972 l 284 957 l 284 567 l 815 567 l 815 957 l 696 972 l 696 1032 l 1040 1032 l 1040 972 l 928 957 l 928 72 l 1044 60 l 1044 0 l 694 0 l 694 60 l 815 72 l 815 493 l 284 493 l 284 72 l 406 60 l 406 0 l 55 0 l 55 60 l 170 72 m 490 1122 l 322 1308 l 367 1342 l 549 1203 l 731 1342 l 777 1308 l 608 1122 l 490 1122 z "},"Ḩ":{"ha":1099,"x_min":55,"x_max":1044,"o":"m 170 72 l 170 957 l 58 972 l 58 1032 l 405 1032 l 405 972 l 284 957 l 284 567 l 815 567 l 815 957 l 696 972 l 696 1032 l 1040 1032 l 1040 972 l 928 957 l 928 72 l 1044 60 l 1044 0 l 694 0 l 694 60 l 815 72 l 815 493 l 284 493 l 284 72 l 406 60 l 406 0 l 55 0 l 55 60 l 170 72 m 173 -326 q 117 -321 145 -326 q 69 -308 88 -315 l 69 -226 q 104 -234 84 -231 q 135 -237 124 -237 q 213 -220 186 -237 q 240 -139 240 -202 q 231 -81 240 -110 q 211 -31 222 -53 q 193 0 199 -9 l 225 0 l 250 0 q 285 -42 265 -13 q 322 -109 306 -70 q 338 -192 338 -148 q 317 -269 338 -239 q 260 -312 297 -299 q 173 -326 224 -326 z "},"Ĥ":{"ha":1099,"x_min":55,"x_max":1044,"o":"m 170 72 l 170 957 l 58 972 l 58 1032 l 405 1032 l 405 972 l 284 957 l 284 567 l 815 567 l 815 957 l 696 972 l 696 1032 l 1040 1032 l 1040 972 l 928 957 l 928 72 l 1044 60 l 1044 0 l 694 0 l 694 60 l 815 72 l 815 493 l 284 493 l 284 72 l 406 60 l 406 0 l 55 0 l 55 60 l 170 72 m 367 1114 l 322 1149 l 490 1340 l 608 1340 l 777 1149 l 731 1114 l 549 1260 l 367 1114 z "},"Ḧ":{"ha":1099,"x_min":55,"x_max":1044,"o":"m 170 72 l 170 957 l 58 972 l 58 1032 l 405 1032 l 405 972 l 284 957 l 284 567 l 815 567 l 815 957 l 696 972 l 696 1032 l 1040 1032 l 1040 972 l 928 957 l 928 72 l 1044 60 l 1044 0 l 694 0 l 694 60 l 815 72 l 815 493 l 284 493 l 284 72 l 406 60 l 406 0 l 55 0 l 55 60 l 170 72 m 424 1133 q 377 1156 395 1133 q 359 1213 359 1179 q 379 1276 359 1247 q 434 1304 399 1304 l 435 1304 q 483 1281 465 1304 q 501 1224 501 1258 q 481 1162 501 1190 q 426 1133 461 1133 l 424 1133 m 665 1133 q 617 1156 635 1133 q 599 1213 599 1179 q 619 1276 599 1247 q 674 1304 639 1304 l 676 1304 q 723 1281 705 1304 q 741 1224 741 1258 q 721 1162 741 1190 q 666 1133 701 1133 l 665 1133 z "},"Ḣ":{"ha":1099,"x_min":55,"x_max":1044,"o":"m 170 72 l 170 957 l 58 972 l 58 1032 l 405 1032 l 405 972 l 284 957 l 284 567 l 815 567 l 815 957 l 696 972 l 696 1032 l 1040 1032 l 1040 972 l 928 957 l 928 72 l 1044 60 l 1044 0 l 694 0 l 694 60 l 815 72 l 815 493 l 284 493 l 284 72 l 406 60 l 406 0 l 55 0 l 55 60 l 170 72 m 544 1133 q 486 1156 506 1133 q 467 1213 467 1179 q 488 1276 467 1247 q 553 1304 509 1304 l 555 1304 q 613 1281 593 1304 q 632 1224 632 1258 q 611 1162 632 1190 q 545 1133 590 1133 l 544 1133 z "},"Ḥ":{"ha":1099,"x_min":55,"x_max":1044,"o":"m 170 72 l 170 957 l 58 972 l 58 1032 l 405 1032 l 405 972 l 284 957 l 284 567 l 815 567 l 815 957 l 696 972 l 696 1032 l 1040 1032 l 1040 972 l 928 957 l 928 72 l 1044 60 l 1044 0 l 694 0 l 694 60 l 815 72 l 815 493 l 284 493 l 284 72 l 406 60 l 406 0 l 55 0 l 55 60 l 170 72 m 538 -274 q 481 -251 501 -274 q 462 -194 462 -228 q 483 -131 462 -160 q 547 -103 504 -103 l 549 -103 q 605 -126 585 -103 q 624 -183 624 -149 q 603 -245 624 -217 q 539 -274 582 -274 l 538 -274 z "},"Ꜧ":{"ha":1099,"x_min":55,"x_max":1040,"o":"m 631 -240 l 601 -190 q 660 -166 631 -182 q 714 -128 689 -151 q 757 -76 738 -106 q 787 -12 776 -47 q 805 72 799 27 q 813 182 811 116 q 815 351 815 248 l 815 493 l 284 493 l 284 72 l 411 60 l 411 0 l 55 0 l 55 60 l 170 72 l 170 957 l 58 972 l 58 1032 l 405 1032 l 405 972 l 284 957 l 284 567 l 815 567 l 815 957 l 696 972 l 696 1032 l 1040 1032 l 1040 972 l 928 957 l 928 382 q 928 180 928 267 q 915 29 928 94 q 854 -107 899 -51 q 750 -196 810 -162 q 631 -240 691 -229 z "},"Ɦ":{"ha":1297,"x_min":49,"x_max":1242,"o":"m 253 0 l 253 60 l 368 72 l 368 1032 l 603 1032 l 603 972 l 482 957 l 482 567 l 1013 567 l 1013 957 l 894 972 l 894 1032 l 1238 1032 l 1238 972 l 1126 957 l 1126 72 l 1242 60 l 1242 0 l 892 0 l 892 60 l 1013 72 l 1013 493 l 482 493 l 482 72 l 604 60 l 604 0 l 253 0 m 57 685 q 51 715 53 694 q 49 769 49 735 q 65 868 49 819 q 118 954 81 916 q 216 1014 154 992 q 371 1032 278 1035 l 385 993 l 371 957 q 245 943 294 960 q 173 891 196 926 q 150 804 150 856 q 156 756 150 789 q 173 685 162 724 l 57 685 z "},"Ɥ":{"ha":974,"x_min":14,"x_max":907,"o":"m 670 457 q 546 418 616 433 q 415 404 476 404 q 264 423 323 404 q 172 473 205 442 q 125 544 139 505 q 107 625 110 583 q 104 706 104 667 l 104 956 l 14 971 l 14 1032 l 347 1032 l 347 971 l 216 956 l 216 743 q 220 642 216 689 q 244 558 224 594 q 310 502 264 522 q 441 482 357 482 q 538 488 494 482 q 615 504 582 494 q 670 524 649 514 l 670 957 l 537 972 l 537 1032 l 906 1032 l 906 972 l 782 957 l 782 72 l 907 58 l 907 0 l 522 0 l 522 60 l 670 72 l 670 457 z "},"I":{"ha":494,"x_min":55,"x_max":439,"o":"m 190 72 l 190 957 l 55 972 l 55 1032 l 439 1032 l 439 972 l 304 957 l 304 72 l 439 58 l 439 0 l 55 0 l 55 60 l 190 72 z "},"Ĳ":{"ha":973,"x_min":55,"x_max":925,"o":"m 190 72 l 190 957 l 55 972 l 55 1032 l 439 1032 l 439 972 l 304 957 l 304 72 l 439 58 l 439 0 l 55 0 l 55 60 l 190 72 m 464 -190 q 542 -155 505 -179 q 607 -95 579 -131 q 650 -12 635 -59 q 668 72 663 27 q 676 182 674 116 q 678 351 678 248 l 678 956 l 538 972 l 538 1032 l 925 1032 l 925 972 l 792 956 l 792 382 q 791 180 792 267 q 778 29 791 94 q 717 -107 762 -51 q 614 -196 673 -162 q 494 -240 554 -229 l 464 -190 z "},"Í":{"ha":494,"x_min":55,"x_max":461,"o":"m 190 72 l 190 957 l 55 972 l 55 1032 l 439 1032 l 439 972 l 304 957 l 304 72 l 439 58 l 439 0 l 55 0 l 55 60 l 190 72 m 244 1111 l 200 1149 l 367 1365 l 461 1289 q 417 1239 444 1266 q 360 1187 391 1213 q 300 1141 330 1161 q 246 1111 270 1121 l 244 1111 z "},"Ĭ":{"ha":494,"x_min":44,"x_max":450,"o":"m 190 72 l 190 957 l 55 972 l 55 1032 l 439 1032 l 439 972 l 304 957 l 304 72 l 439 58 l 439 0 l 55 0 l 55 60 l 190 72 m 247 1129 q 139 1151 185 1129 q 69 1213 94 1173 q 44 1303 44 1252 q 45 1318 44 1310 q 47 1333 46 1326 l 107 1333 q 107 1324 107 1329 q 108 1311 108 1318 q 125 1266 112 1288 q 167 1229 138 1244 q 247 1214 197 1214 q 327 1229 298 1214 q 370 1266 356 1244 q 386 1311 383 1288 q 388 1324 388 1318 q 388 1333 388 1329 l 447 1333 q 449 1318 449 1326 q 450 1303 450 1310 q 425 1213 450 1252 q 356 1151 401 1173 q 247 1129 310 1129 z "},"Ǐ":{"ha":494,"x_min":19,"x_max":475,"o":"m 190 72 l 190 957 l 55 972 l 55 1032 l 439 1032 l 439 972 l 304 957 l 304 72 l 439 58 l 439 0 l 55 0 l 55 60 l 190 72 m 188 1122 l 19 1308 l 65 1342 l 247 1203 l 429 1342 l 475 1308 l 306 1122 l 188 1122 z "},"Î":{"ha":494,"x_min":19,"x_max":475,"o":"m 190 72 l 190 957 l 55 972 l 55 1032 l 439 1032 l 439 972 l 304 957 l 304 72 l 439 58 l 439 0 l 55 0 l 55 60 l 190 72 m 65 1114 l 19 1149 l 188 1340 l 306 1340 l 475 1149 l 429 1114 l 247 1260 l 65 1114 z "},"Ȉ":{"ha":494,"x_min":-81,"x_max":439,"o":"m 190 72 l 190 957 l 55 972 l 55 1032 l 439 1032 l 439 972 l 304 957 l 304 72 l 439 58 l 439 0 l 55 0 l 55 60 l 190 72 m 133 1114 q 81 1149 110 1128 q 23 1195 53 1170 q -33 1248 -6 1221 q -81 1303 -60 1276 l -1 1368 l 180 1157 l 135 1114 l 133 1114 m 386 1114 q 319 1164 355 1133 q 248 1230 283 1194 q 185 1303 213 1267 l 265 1368 l 432 1151 l 388 1114 l 386 1114 z "},"Ï":{"ha":494,"x_min":55,"x_max":439,"o":"m 190 72 l 190 957 l 55 972 l 55 1032 l 439 1032 l 439 972 l 304 957 l 304 72 l 439 58 l 439 0 l 55 0 l 55 60 l 190 72 m 122 1133 q 75 1156 93 1133 q 57 1213 57 1179 q 77 1276 57 1247 q 132 1304 97 1304 l 133 1304 q 181 1281 163 1304 q 199 1224 199 1258 q 179 1162 199 1190 q 124 1133 159 1133 l 122 1133 m 363 1133 q 315 1156 333 1133 q 297 1213 297 1179 q 317 1276 297 1247 q 372 1304 337 1304 l 374 1304 q 421 1281 403 1304 q 439 1224 439 1258 q 419 1162 439 1190 q 364 1133 399 1133 l 363 1133 z "},"Ḯ":{"ha":494,"x_min":55,"x_max":462,"o":"m 190 72 l 190 957 l 55 972 l 55 1032 l 439 1032 l 439 972 l 304 957 l 304 72 l 439 58 l 439 0 l 55 0 l 55 60 l 190 72 m 122 1133 q 75 1156 93 1133 q 57 1213 57 1179 q 77 1276 57 1247 q 132 1304 97 1304 l 133 1304 q 181 1281 163 1304 q 199 1224 199 1258 q 179 1162 199 1190 q 124 1133 159 1133 l 122 1133 m 363 1133 q 315 1156 333 1133 q 297 1213 297 1179 q 317 1276 297 1247 q 372 1304 337 1304 l 374 1304 q 421 1281 403 1304 q 439 1224 439 1258 q 419 1162 439 1190 q 364 1133 399 1133 l 363 1133 m 245 1328 l 201 1365 l 367 1582 l 462 1506 q 418 1456 444 1483 q 361 1403 392 1429 q 301 1358 331 1378 q 247 1328 271 1338 l 245 1328 z "},"İ":{"ha":494,"x_min":55,"x_max":439,"o":"m 190 72 l 190 957 l 55 972 l 55 1032 l 439 1032 l 439 972 l 304 957 l 304 72 l 439 58 l 439 0 l 55 0 l 55 60 l 190 72 m 242 1133 q 184 1156 203 1133 q 165 1213 165 1179 q 186 1276 165 1247 q 251 1304 207 1304 l 253 1304 q 310 1281 291 1304 q 330 1224 330 1258 q 309 1162 330 1190 q 243 1133 288 1133 l 242 1133 z "},"Ị":{"ha":494,"x_min":55,"x_max":439,"o":"m 190 72 l 190 957 l 55 972 l 55 1032 l 439 1032 l 439 972 l 304 957 l 304 72 l 439 58 l 439 0 l 55 0 l 55 60 l 190 72 m 235 -274 q 179 -251 199 -274 q 160 -194 160 -228 q 181 -131 160 -160 q 245 -103 202 -103 l 247 -103 q 303 -126 283 -103 q 322 -183 322 -149 q 301 -245 322 -217 q 237 -274 280 -274 l 235 -274 z "},"Ì":{"ha":494,"x_min":40,"x_max":439,"o":"m 190 72 l 190 957 l 55 972 l 55 1032 l 439 1032 l 439 972 l 304 957 l 304 72 l 439 58 l 439 0 l 55 0 l 55 60 l 190 72 m 256 1111 q 202 1141 232 1121 q 141 1187 172 1161 q 84 1239 110 1213 q 40 1289 58 1266 l 135 1365 l 301 1149 l 257 1111 l 256 1111 z "},"Ỉ":{"ha":494,"x_min":55,"x_max":439,"o":"m 190 72 l 190 957 l 55 972 l 55 1032 l 439 1032 l 439 972 l 304 957 l 304 72 l 439 58 l 439 0 l 55 0 l 55 60 l 190 72 m 204 1106 q 194 1128 197 1117 q 191 1153 191 1140 q 203 1188 191 1174 q 230 1212 215 1201 q 258 1235 246 1223 q 269 1263 269 1247 q 250 1302 269 1291 q 190 1313 231 1313 q 156 1308 174 1313 q 126 1297 138 1303 l 126 1372 q 171 1387 144 1381 q 222 1393 197 1393 q 297 1379 265 1393 q 349 1340 330 1365 q 368 1277 368 1314 q 357 1225 368 1245 q 330 1194 346 1206 q 297 1173 313 1182 q 267 1140 270 1158 q 268 1106 263 1122 l 204 1106 z "},"Ȋ":{"ha":494,"x_min":34,"x_max":460,"o":"m 190 72 l 190 957 l 55 972 l 55 1032 l 439 1032 l 439 972 l 304 957 l 304 72 l 439 58 l 439 0 l 55 0 l 55 60 l 190 72 m 247 1350 q 361 1326 313 1350 q 435 1260 409 1303 q 460 1161 460 1217 q 460 1146 460 1154 q 458 1129 459 1138 l 395 1129 q 395 1140 395 1133 q 394 1153 395 1146 q 376 1202 390 1178 q 332 1242 363 1226 q 247 1258 301 1258 q 163 1242 194 1258 q 118 1202 133 1226 q 101 1153 104 1178 q 100 1140 100 1146 q 99 1129 99 1133 l 37 1129 q 35 1146 35 1138 q 34 1161 34 1154 q 60 1260 34 1217 q 133 1326 85 1303 q 247 1350 181 1350 z "},"Ī":{"ha":494,"x_min":55,"x_max":439,"o":"m 190 72 l 190 957 l 55 972 l 55 1032 l 439 1032 l 439 972 l 304 957 l 304 72 l 439 58 l 439 0 l 55 0 l 55 60 l 190 72 m 430 1228 l 430 1151 l 65 1151 l 65 1228 l 430 1228 z "},"Į":{"ha":494,"x_min":55,"x_max":439,"o":"m 190 72 l 190 957 l 55 972 l 55 1032 l 439 1032 l 439 972 l 304 957 l 304 72 l 439 58 l 439 0 l 55 0 l 55 60 l 190 72 m 260 -344 q 182 -330 217 -344 q 125 -285 147 -315 q 104 -215 104 -256 q 128 -124 104 -165 q 189 -51 153 -83 q 260 1 225 -19 l 301 7 l 354 1 q 272 -53 304 -19 q 224 -123 240 -86 q 208 -191 208 -160 q 226 -247 208 -227 q 283 -267 244 -267 q 351 -255 319 -267 q 410 -222 383 -242 l 431 -280 q 365 -325 410 -305 q 260 -344 319 -344 z "},"Ɩ":{"ha":510,"x_min":38,"x_max":496,"o":"m 317 -15 q 203 25 243 -15 q 164 158 164 65 l 164 957 l 38 972 l 38 1032 l 278 1032 l 278 174 q 286 111 278 131 q 311 86 294 92 q 356 81 328 81 q 415 92 387 81 q 478 121 444 103 l 496 56 q 411 5 454 24 q 317 -15 369 -15 z "},"Ɨ":{"ha":494,"x_min":55,"x_max":439,"o":"m 190 72 l 190 957 l 55 972 l 55 1032 l 439 1032 l 439 972 l 304 957 l 304 72 l 439 58 l 439 0 l 55 0 l 55 60 l 190 72 m 415 585 l 415 513 l 75 513 l 75 585 l 415 585 z "},"Ĩ":{"ha":494,"x_min":46,"x_max":449,"o":"m 190 72 l 190 957 l 55 972 l 55 1032 l 439 1032 l 439 972 l 304 957 l 304 72 l 439 58 l 439 0 l 55 0 l 55 60 l 190 72 m 325 1125 q 269 1140 291 1125 q 232 1173 247 1154 q 201 1207 216 1192 q 165 1222 185 1222 q 122 1195 137 1222 q 97 1135 106 1169 l 46 1156 q 84 1263 48 1225 q 169 1301 120 1301 q 226 1286 204 1301 q 263 1252 247 1272 q 294 1218 278 1233 q 330 1203 309 1203 q 373 1230 358 1203 q 398 1291 389 1256 l 449 1269 q 410 1163 447 1200 q 325 1125 374 1125 z "},"Ḭ":{"ha":494,"x_min":26,"x_max":468,"o":"m 190 72 l 190 957 l 55 972 l 55 1032 l 439 1032 l 439 972 l 304 957 l 304 72 l 439 58 l 439 0 l 55 0 l 55 60 l 190 72 m 334 -274 q 274 -259 298 -274 q 231 -226 249 -244 q 195 -192 213 -207 q 155 -178 178 -178 q 112 -199 129 -178 q 88 -257 95 -221 l 26 -228 q 72 -125 36 -162 q 160 -87 107 -87 q 221 -102 197 -87 q 264 -135 245 -117 q 299 -169 282 -154 q 340 -183 317 -183 q 383 -162 366 -183 q 407 -104 399 -140 l 468 -133 q 423 -236 458 -199 q 334 -274 388 -274 z "},"J":{"ha":494,"x_min":-15,"x_max":446,"o":"m -15 -190 q 63 -155 26 -179 q 128 -95 100 -131 q 171 -12 156 -59 q 189 72 183 27 q 197 182 195 116 q 199 351 199 248 l 199 956 l 58 972 l 58 1032 l 446 1032 l 446 972 l 313 956 l 313 382 q 312 180 313 267 q 299 29 312 94 q 238 -107 283 -51 q 134 -196 194 -162 q 15 -240 75 -229 l -15 -190 z "},"Ĵ":{"ha":494,"x_min":-15,"x_max":484,"o":"m -15 -190 q 63 -155 26 -179 q 128 -95 100 -131 q 171 -12 156 -59 q 189 72 183 27 q 197 182 195 116 q 199 351 199 248 l 199 956 l 58 972 l 58 1032 l 446 1032 l 446 972 l 313 956 l 313 382 q 312 180 313 267 q 299 29 312 94 q 238 -107 283 -51 q 134 -196 194 -162 q 15 -240 75 -229 l -15 -190 m 74 1114 l 28 1149 l 197 1340 l 315 1340 l 484 1149 l 438 1114 l 256 1260 l 74 1114 z "},"Ʝ":{"ha":494,"x_min":-129,"x_max":446,"o":"m 47 -337 q -43 -319 -3 -337 q -106 -266 -83 -301 q -129 -179 -129 -231 q -102 -99 -129 -137 q -23 -34 -76 -60 q 106 -9 30 -9 q 229 -20 172 -9 q 338 -53 286 -32 q 440 -103 390 -74 l 413 -154 q 315 -114 369 -130 q 206 -89 260 -97 q 113 -80 152 -80 q 26 -94 56 -80 q -15 -131 -4 -109 q -26 -176 -26 -153 q 0 -237 -26 -217 q 66 -258 25 -258 q 130 -237 100 -258 q 179 -160 160 -217 q 198 11 198 -102 l 199 956 l 58 972 l 58 1032 l 446 1032 l 446 972 l 313 956 l 313 -10 q 293 -146 313 -85 q 238 -249 274 -206 q 153 -315 202 -292 q 47 -337 105 -337 z "},"Ɉ":{"ha":494,"x_min":-15,"x_max":446,"o":"m -15 -190 q 63 -155 26 -179 q 128 -95 100 -131 q 171 -12 156 -59 q 189 72 183 27 q 197 182 195 116 q 199 351 199 248 l 199 956 l 58 972 l 58 1032 l 446 1032 l 446 972 l 313 956 l 313 382 q 312 180 313 267 q 299 29 312 94 q 238 -107 283 -51 q 134 -196 194 -162 q 15 -240 75 -229 l -15 -190 m 426 586 l 426 513 l 85 513 l 85 586 l 426 586 z "},"K":{"ha":973,"x_min":55,"x_max":972,"o":"m 55 0 l 55 60 l 174 72 l 174 957 l 58 972 l 58 1032 l 408 1032 l 408 972 l 288 957 l 288 452 l 723 957 l 605 972 l 605 1032 l 927 1032 l 927 972 l 826 957 l 506 600 q 580 520 541 570 q 659 412 619 471 q 737 294 699 353 q 808 186 775 235 q 867 106 842 137 q 906 74 892 76 l 972 58 l 972 0 l 805 0 q 762 29 787 0 q 707 106 737 58 q 644 213 677 154 q 576 330 610 271 q 507 440 541 389 q 440 524 472 492 l 288 353 l 288 72 l 419 58 l 419 0 l 55 0 z "},"Ḱ":{"ha":973,"x_min":55,"x_max":972,"o":"m 55 0 l 55 60 l 174 72 l 174 957 l 58 972 l 58 1032 l 408 1032 l 408 972 l 288 957 l 288 452 l 723 957 l 605 972 l 605 1032 l 927 1032 l 927 972 l 826 957 l 506 600 q 580 520 541 570 q 659 412 619 471 q 737 294 699 353 q 808 186 775 235 q 867 106 842 137 q 906 74 892 76 l 972 58 l 972 0 l 805 0 q 762 29 787 0 q 707 106 737 58 q 644 213 677 154 q 576 330 610 271 q 507 440 541 389 q 440 524 472 492 l 288 353 l 288 72 l 419 58 l 419 0 l 55 0 m 505 1111 l 460 1149 l 627 1365 l 722 1289 q 678 1239 704 1266 q 621 1187 651 1213 q 560 1141 590 1161 q 506 1111 531 1121 l 505 1111 z "},"Ǩ":{"ha":973,"x_min":55,"x_max":972,"o":"m 55 0 l 55 60 l 174 72 l 174 957 l 58 972 l 58 1032 l 408 1032 l 408 972 l 288 957 l 288 452 l 723 957 l 605 972 l 605 1032 l 927 1032 l 927 972 l 826 957 l 506 600 q 580 520 541 570 q 659 412 619 471 q 737 294 699 353 q 808 186 775 235 q 867 106 842 137 q 906 74 892 76 l 972 58 l 972 0 l 805 0 q 762 29 787 0 q 707 106 737 58 q 644 213 677 154 q 576 330 610 271 q 507 440 541 389 q 440 524 472 492 l 288 353 l 288 72 l 419 58 l 419 0 l 55 0 m 449 1122 l 280 1308 l 326 1342 l 508 1203 l 690 1342 l 735 1308 l 567 1122 l 449 1122 z "},"Ķ":{"ha":973,"x_min":55,"x_max":972,"o":"m 55 0 l 55 60 l 174 72 l 174 957 l 58 972 l 58 1032 l 408 1032 l 408 972 l 288 957 l 288 452 l 723 957 l 605 972 l 605 1032 l 927 1032 l 927 972 l 826 957 l 506 600 q 580 520 541 570 q 659 412 619 471 q 737 294 699 353 q 808 186 775 235 q 867 106 842 137 q 906 74 892 76 l 972 58 l 972 0 l 805 0 q 762 29 787 0 q 707 106 737 58 q 644 213 677 154 q 576 330 610 271 q 507 440 541 389 q 440 524 472 492 l 288 353 l 288 72 l 419 58 l 419 0 l 55 0 m 590 -200 q 567 -287 590 -249 q 519 -347 544 -325 q 486 -372 494 -369 l 485 -372 l 447 -346 l 447 -337 q 481 -300 468 -327 q 494 -251 494 -273 q 485 -219 494 -231 q 465 -201 476 -208 q 447 -183 455 -194 q 439 -150 439 -172 q 451 -111 439 -124 q 478 -93 463 -98 q 503 -89 493 -89 l 506 -89 q 567 -117 544 -89 q 590 -200 590 -146 z "},"Ḳ":{"ha":973,"x_min":55,"x_max":972,"o":"m 55 0 l 55 60 l 174 72 l 174 957 l 58 972 l 58 1032 l 408 1032 l 408 972 l 288 957 l 288 452 l 723 957 l 605 972 l 605 1032 l 927 1032 l 927 972 l 826 957 l 506 600 q 580 520 541 570 q 659 412 619 471 q 737 294 699 353 q 808 186 775 235 q 867 106 842 137 q 906 74 892 76 l 972 58 l 972 0 l 805 0 q 762 29 787 0 q 707 106 737 58 q 644 213 677 154 q 576 330 610 271 q 507 440 541 389 q 440 524 472 492 l 288 353 l 288 72 l 419 58 l 419 0 l 55 0 m 503 -274 q 447 -251 466 -274 q 427 -194 427 -228 q 448 -131 427 -160 q 513 -103 469 -103 l 514 -103 q 570 -126 551 -103 q 590 -183 590 -149 q 568 -245 590 -217 q 504 -274 547 -274 l 503 -274 z "},"Ƙ":{"ha":1047,"x_min":55,"x_max":1046,"o":"m 55 0 l 55 60 l 174 72 l 174 957 l 58 972 l 58 1032 l 414 1032 l 414 972 l 288 956 l 288 452 l 674 932 q 718 983 694 957 q 778 1025 743 1008 q 867 1042 814 1042 q 944 1028 911 1042 q 1000 987 978 1013 q 1034 926 1023 961 q 1046 849 1046 890 q 1043 805 1046 824 q 1037 770 1040 786 l 928 771 q 938 807 933 786 q 943 851 943 828 q 924 937 943 901 q 859 973 904 973 q 809 958 832 973 q 765 920 785 943 q 724 873 744 897 l 506 600 q 581 520 542 570 q 659 412 619 471 q 738 294 699 353 q 809 186 776 235 q 867 106 842 136 q 906 73 892 75 l 972 58 l 972 0 l 805 -1 q 762 28 787 -1 q 707 106 737 58 q 644 212 677 154 q 576 329 610 270 q 507 439 541 388 q 440 523 472 490 l 288 352 l 288 72 l 418 58 l 418 0 l 55 0 z "},"Ḵ":{"ha":973,"x_min":55,"x_max":972,"o":"m 55 0 l 55 60 l 174 72 l 174 957 l 58 972 l 58 1032 l 408 1032 l 408 972 l 288 957 l 288 452 l 723 957 l 605 972 l 605 1032 l 927 1032 l 927 972 l 826 957 l 506 600 q 580 520 541 570 q 659 412 619 471 q 737 294 699 353 q 808 186 775 235 q 867 106 842 137 q 906 74 892 76 l 972 58 l 972 0 l 805 0 q 762 29 787 0 q 707 106 737 58 q 644 213 677 154 q 576 330 610 271 q 507 440 541 389 q 440 524 472 492 l 288 353 l 288 72 l 419 58 l 419 0 l 55 0 m 712 -136 l 712 -221 l 317 -221 l 317 -136 l 712 -136 z "},"Ꝁ":{"ha":973,"x_min":55,"x_max":972,"o":"m 55 0 l 55 60 l 174 72 l 174 957 l 58 972 l 58 1032 l 408 1032 l 408 972 l 288 957 l 288 452 l 723 957 l 605 972 l 605 1032 l 927 1032 l 927 972 l 826 957 l 506 600 q 580 520 541 570 q 659 412 619 471 q 737 294 699 353 q 808 186 775 235 q 867 106 842 137 q 906 74 892 76 l 972 58 l 972 0 l 805 0 q 762 29 787 0 q 707 106 737 58 q 644 213 677 154 q 576 330 610 271 q 507 440 541 389 q 440 524 472 492 l 288 353 l 288 72 l 419 58 l 419 0 l 55 0 m 406 809 l 406 736 l 66 736 l 66 809 l 406 809 z "},"L":{"ha":851,"x_min":55,"x_max":822,"o":"m 55 0 l 55 60 l 174 72 l 174 957 l 58 972 l 58 1032 l 427 1032 l 427 972 l 288 957 l 288 72 l 677 83 l 755 300 l 822 289 l 770 0 l 55 0 z "},"Ǉ":{"ha":1290,"x_min":55,"x_max":1242,"o":"m 55 0 l 55 60 l 174 72 l 174 957 l 58 972 l 58 1032 l 427 1032 l 427 972 l 288 957 l 288 72 l 677 83 l 755 300 l 822 289 l 770 0 l 55 0 m 781 -190 q 859 -155 822 -179 q 925 -95 897 -131 q 967 -12 953 -59 q 986 72 980 27 q 993 182 992 116 q 995 351 995 248 l 995 956 l 855 972 l 855 1032 l 1242 1032 l 1242 972 l 1109 956 l 1109 382 q 1109 180 1109 267 q 1095 29 1108 94 q 1035 -107 1079 -51 q 931 -196 990 -162 q 812 -240 872 -229 l 781 -190 z "},"Ĺ":{"ha":851,"x_min":55,"x_max":822,"o":"m 55 0 l 55 60 l 174 72 l 174 957 l 58 972 l 58 1032 l 427 1032 l 427 972 l 288 957 l 288 72 l 677 83 l 755 300 l 822 289 l 770 0 l 55 0 m 225 1111 l 181 1149 l 347 1365 l 442 1289 q 398 1239 424 1266 q 341 1187 372 1213 q 281 1141 310 1161 q 226 1111 251 1121 l 225 1111 z "},"Ƚ":{"ha":851,"x_min":30,"x_max":822,"o":"m 55 0 l 55 60 l 174 72 l 174 957 l 58 972 l 58 1032 l 427 1032 l 427 972 l 288 957 l 288 72 l 677 83 l 755 300 l 822 289 l 770 0 l 55 0 m 491 553 l 491 480 l 30 480 l 30 553 l 491 553 z "},"Ɬ":{"ha":851,"x_min":-42,"x_max":822,"o":"m 55 0 l 55 60 l 174 72 l 174 957 l 58 972 l 58 1032 l 427 1032 l 427 972 l 288 957 l 288 72 l 677 83 l 755 300 l 822 289 l 770 0 l 55 0 m 244 354 q 92 375 156 354 q -7 433 28 395 q -42 522 -42 470 q 2 631 -42 586 q 127 676 45 676 q 174 670 158 676 q 203 659 190 665 l 203 596 q 177 605 190 601 q 145 609 165 609 q 82 585 101 609 q 62 528 62 560 q 81 477 62 499 q 140 442 99 455 q 247 429 181 429 q 340 441 295 429 q 424 476 385 453 q 488 528 462 498 l 511 463 q 436 403 481 428 q 342 367 392 379 q 244 354 292 354 z "},"Ľ":{"ha":851,"x_min":55,"x_max":822,"o":"m 55 0 l 55 60 l 174 72 l 174 957 l 58 972 l 58 1032 l 427 1032 l 427 972 l 288 957 l 288 72 l 677 83 l 755 300 l 822 289 l 770 0 l 55 0 m 676 756 l 609 756 l 605 765 q 611 825 608 793 q 613 894 613 857 q 610 985 613 951 q 598 1037 606 1019 l 605 1060 l 708 1060 q 718 1013 715 1039 q 720 936 720 987 q 715 884 720 918 q 699 814 709 849 q 676 756 689 778 z "},"Ḽ":{"ha":851,"x_min":55,"x_max":822,"o":"m 55 0 l 55 60 l 174 72 l 174 957 l 58 972 l 58 1032 l 427 1032 l 427 972 l 288 957 l 288 72 l 677 83 l 755 300 l 822 289 l 770 0 l 55 0 m 364 -81 l 488 -81 l 666 -313 l 620 -348 l 426 -173 l 231 -348 l 185 -313 l 364 -81 z "},"Ļ":{"ha":851,"x_min":55,"x_max":822,"o":"m 55 0 l 55 60 l 174 72 l 174 957 l 58 972 l 58 1032 l 427 1032 l 427 972 l 288 957 l 288 72 l 677 83 l 755 300 l 822 289 l 770 0 l 55 0 m 501 -200 q 478 -287 501 -249 q 430 -347 456 -325 q 397 -372 405 -369 l 396 -372 l 358 -346 l 358 -337 q 392 -300 379 -327 q 406 -251 406 -273 q 396 -219 406 -231 q 376 -201 387 -208 q 358 -183 366 -194 q 350 -150 350 -172 q 362 -111 350 -124 q 389 -93 374 -98 q 414 -89 404 -89 l 417 -89 q 478 -117 456 -89 q 501 -200 501 -146 z "},"Ŀ":{"ha":906,"x_min":55,"x_max":933,"o":"m 55 0 l 55 60 l 174 72 l 174 957 l 58 972 l 58 1032 l 427 1032 l 427 972 l 288 957 l 288 72 l 677 83 l 755 300 l 822 289 l 770 0 l 55 0 m 844 483 q 791 504 813 483 q 768 560 768 525 q 796 626 768 600 q 858 652 824 652 q 916 628 898 652 q 933 574 933 605 q 906 508 933 534 q 844 483 879 483 z "},"Ḷ":{"ha":851,"x_min":55,"x_max":822,"o":"m 55 0 l 55 60 l 174 72 l 174 957 l 58 972 l 58 1032 l 427 1032 l 427 972 l 288 957 l 288 72 l 677 83 l 755 300 l 822 289 l 770 0 l 55 0 m 414 -274 q 358 -251 377 -274 q 338 -194 338 -228 q 359 -131 338 -160 q 424 -103 381 -103 l 425 -103 q 481 -126 462 -103 q 501 -183 501 -149 q 480 -245 501 -217 q 415 -274 458 -274 l 414 -274 z "},"Ḹ":{"ha":851,"x_min":45,"x_max":822,"o":"m 55 0 l 55 60 l 174 72 l 174 957 l 58 972 l 58 1032 l 427 1032 l 427 972 l 288 957 l 288 72 l 677 83 l 755 300 l 822 289 l 770 0 l 55 0 m 414 -274 q 358 -251 377 -274 q 338 -194 338 -228 q 359 -131 338 -160 q 424 -103 381 -103 l 425 -103 q 481 -126 462 -103 q 501 -183 501 -149 q 480 -245 501 -217 q 415 -274 458 -274 l 414 -274 m 410 1228 l 410 1151 l 45 1151 l 45 1228 l 410 1228 z "},"Ⱡ":{"ha":851,"x_min":38,"x_max":822,"o":"m 55 0 l 55 60 l 174 72 l 174 957 l 58 972 l 58 1032 l 427 1032 l 427 972 l 288 957 l 288 72 l 677 83 l 755 300 l 822 289 l 770 0 l 55 0 m 38 662 l 38 735 l 438 735 l 438 662 l 38 662 m 39 459 l 39 532 l 439 532 l 439 459 l 39 459 z "},"ǈ":{"ha":1240,"x_min":55,"x_max":1106,"o":"m 55 0 l 55 60 l 174 72 l 174 957 l 58 972 l 58 1032 l 427 1032 l 427 972 l 288 957 l 288 72 l 677 83 l 755 300 l 822 289 l 770 0 l 55 0 m 876 -337 q 851 -338 869 -338 q 817 -336 834 -337 q 797 -332 801 -335 l 791 -275 q 823 -273 801 -276 q 870 -261 845 -269 q 936 -206 913 -248 q 969 -102 960 -165 q 978 35 978 -40 l 977 674 l 866 699 l 866 765 l 1059 788 l 1062 788 l 1088 765 l 1088 8 q 1074 -141 1088 -78 q 1032 -246 1060 -204 q 965 -310 1004 -288 q 876 -337 926 -333 m 1017 917 q 960 940 979 917 q 940 997 940 963 q 961 1059 940 1031 q 1027 1088 983 1088 l 1028 1088 q 1086 1065 1067 1088 q 1106 1008 1106 1042 q 1084 945 1106 974 q 1019 917 1063 917 l 1017 917 z "},"Ḻ":{"ha":851,"x_min":55,"x_max":822,"o":"m 55 0 l 55 60 l 174 72 l 174 957 l 58 972 l 58 1032 l 427 1032 l 427 972 l 288 957 l 288 72 l 677 83 l 755 300 l 822 289 l 770 0 l 55 0 m 623 -136 l 623 -221 l 228 -221 l 228 -136 l 623 -136 z "},"Ɫ":{"ha":851,"x_min":40,"x_max":822,"o":"m 55 0 l 55 60 l 174 72 l 174 957 l 58 972 l 58 1032 l 427 1032 l 427 972 l 288 957 l 288 72 l 677 83 l 755 300 l 822 289 l 770 0 l 55 0 m 40 463 q 86 566 53 528 q 175 603 119 603 q 234 591 210 603 q 276 563 258 578 q 312 534 294 547 q 353 522 330 522 q 404 543 388 522 q 431 601 421 565 l 484 572 q 438 469 471 506 q 349 431 405 431 q 290 444 313 431 q 248 472 266 456 q 212 501 230 488 q 170 513 194 513 q 119 492 136 513 q 92 434 103 470 l 40 463 z "},"Ł":{"ha":851,"x_min":55,"x_max":822,"o":"m 55 0 l 55 60 l 174 72 l 174 957 l 58 972 l 58 1032 l 427 1032 l 427 972 l 288 957 l 288 72 l 677 83 l 755 300 l 822 289 l 770 0 l 55 0 m 58 420 l 58 507 l 203 579 l 276 612 l 604 771 l 604 680 l 275 522 l 203 489 l 58 420 z "},"M":{"ha":1351,"x_min":11,"x_max":1340,"o":"m 129 72 l 240 957 l 78 972 l 78 1032 l 413 1032 l 622 390 l 674 204 l 721 390 l 930 1032 l 1262 1032 l 1262 972 l 1102 957 l 1214 74 l 1340 60 l 1340 0 l 967 0 l 967 60 l 1096 72 l 1027 706 l 999 983 l 938 792 l 690 50 l 632 50 l 400 714 l 318 983 l 288 706 l 222 72 l 358 60 l 358 0 l 11 0 l 11 60 l 129 72 z "},"Ḿ":{"ha":1351,"x_min":11,"x_max":1340,"o":"m 129 72 l 240 957 l 78 972 l 78 1032 l 413 1032 l 622 390 l 674 204 l 721 390 l 930 1032 l 1262 1032 l 1262 972 l 1102 957 l 1214 74 l 1340 60 l 1340 0 l 967 0 l 967 60 l 1096 72 l 1027 706 l 999 983 l 938 792 l 690 50 l 632 50 l 400 714 l 318 983 l 288 706 l 222 72 l 358 60 l 358 0 l 11 0 l 11 60 l 129 72 m 673 1111 l 628 1149 l 795 1365 l 890 1289 q 846 1239 872 1266 q 789 1187 819 1213 q 728 1141 758 1161 q 674 1111 699 1121 l 673 1111 z "},"Ṁ":{"ha":1351,"x_min":11,"x_max":1340,"o":"m 129 72 l 240 957 l 78 972 l 78 1032 l 413 1032 l 622 390 l 674 204 l 721 390 l 930 1032 l 1262 1032 l 1262 972 l 1102 957 l 1214 74 l 1340 60 l 1340 0 l 967 0 l 967 60 l 1096 72 l 1027 706 l 999 983 l 938 792 l 690 50 l 632 50 l 400 714 l 318 983 l 288 706 l 222 72 l 358 60 l 358 0 l 11 0 l 11 60 l 129 72 m 670 1133 q 613 1156 632 1133 q 593 1213 593 1179 q 614 1276 593 1247 q 680 1304 635 1304 l 681 1304 q 739 1281 719 1304 q 758 1224 758 1258 q 737 1162 758 1190 q 672 1133 716 1133 l 670 1133 z "},"Ṃ":{"ha":1351,"x_min":11,"x_max":1340,"o":"m 129 72 l 240 957 l 78 972 l 78 1032 l 413 1032 l 622 390 l 674 204 l 721 390 l 930 1032 l 1262 1032 l 1262 972 l 1102 957 l 1214 74 l 1340 60 l 1340 0 l 967 0 l 967 60 l 1096 72 l 1027 706 l 999 983 l 938 792 l 690 50 l 632 50 l 400 714 l 318 983 l 288 706 l 222 72 l 358 60 l 358 0 l 11 0 l 11 60 l 129 72 m 652 -274 q 596 -251 615 -274 q 576 -194 576 -228 q 598 -131 576 -160 q 662 -103 619 -103 l 663 -103 q 719 -126 700 -103 q 739 -183 739 -149 q 718 -245 739 -217 q 653 -274 697 -274 l 652 -274 z "},"Ɱ":{"ha":1351,"x_min":11,"x_max":1264,"o":"m 915 -350 l 884 -300 q 1005 -231 958 -278 q 1074 -114 1051 -185 q 1096 53 1096 -43 q 1094 109 1096 81 q 1087 183 1092 137 l 1029 706 l 1001 983 l 940 792 l 690 50 l 632 50 l 400 714 l 318 983 l 288 706 l 222 72 l 358 60 l 358 0 l 11 0 l 11 60 l 129 72 l 240 957 l 78 972 l 78 1032 l 411 1032 l 622 390 l 674 204 l 721 390 l 932 1032 l 1264 1032 l 1264 972 l 1104 957 l 1201 192 q 1209 121 1206 153 q 1213 51 1213 89 q 1177 -144 1213 -62 q 1076 -277 1142 -226 q 915 -350 1010 -328 z "},"Ɯ":{"ha":1445,"x_min":38,"x_max":1390,"o":"m 1386 1032 l 1386 972 l 1283 961 l 1283 92 l 1390 69 l 1390 6 l 1213 -16 l 1182 6 l 1182 67 l 1183 102 q 1086 43 1139 70 q 980 -1 1034 15 q 877 -17 926 -17 q 794 -6 831 -17 q 732 27 758 5 q 690 85 706 50 q 607 34 656 58 q 504 -3 558 11 q 400 -17 450 -17 q 259 13 317 -17 q 170 114 201 43 q 140 306 140 185 l 140 961 l 38 972 l 38 1032 l 356 1032 l 356 972 l 254 961 l 254 310 q 272 164 254 217 q 329 89 290 111 q 432 67 368 67 q 517 76 474 67 q 599 101 560 85 q 672 142 639 118 q 663 177 667 154 q 657 232 659 199 q 655 309 655 265 l 655 961 l 544 972 l 544 1032 l 876 1032 l 876 972 l 769 961 l 769 308 q 779 166 769 218 q 822 91 789 113 q 922 69 854 69 q 1001 80 960 69 q 1085 112 1042 91 q 1169 160 1127 133 l 1169 961 l 1063 972 l 1063 1032 l 1386 1032 z "},"N":{"ha":1060,"x_min":48,"x_max":1037,"o":"m 48 0 l 48 60 l 159 74 l 159 957 q 122 962 141 960 q 85 967 103 965 q 48 972 67 970 l 48 1032 l 272 1032 l 763 319 l 842 181 l 842 957 l 720 972 l 720 1032 l 1037 1032 l 1037 972 l 923 957 l 923 0 l 851 0 l 353 715 l 240 900 l 240 72 l 366 60 l 366 0 l 48 0 z "},"Ǌ":{"ha":1551,"x_min":48,"x_max":1503,"o":"m 48 0 l 48 60 l 159 74 l 159 957 q 122 962 141 960 q 85 967 103 965 q 48 972 67 970 l 48 1032 l 272 1032 l 763 319 l 842 181 l 842 957 l 720 972 l 720 1032 l 1037 1032 l 1037 972 l 923 957 l 923 0 l 851 0 l 353 715 l 240 900 l 240 72 l 366 60 l 366 0 l 48 0 m 1042 -190 q 1120 -155 1083 -179 q 1185 -95 1157 -131 q 1228 -12 1213 -59 q 1246 72 1240 27 q 1254 182 1252 116 q 1256 351 1256 248 l 1256 956 l 1115 972 l 1115 1032 l 1503 1032 l 1503 972 l 1369 956 l 1369 382 q 1369 180 1369 267 q 1356 29 1369 94 q 1295 -107 1340 -51 q 1191 -196 1251 -162 q 1072 -240 1132 -229 l 1042 -190 z "},"Ń":{"ha":1060,"x_min":48,"x_max":1037,"o":"m 48 0 l 48 60 l 159 74 l 159 957 q 122 962 141 960 q 85 967 103 965 q 48 972 67 970 l 48 1032 l 272 1032 l 763 319 l 842 181 l 842 957 l 720 972 l 720 1032 l 1037 1032 l 1037 972 l 923 957 l 923 0 l 851 0 l 353 715 l 240 900 l 240 72 l 366 60 l 366 0 l 48 0 m 541 1111 l 497 1149 l 663 1365 l 758 1289 q 714 1239 740 1266 q 657 1187 688 1213 q 597 1141 626 1161 q 542 1111 567 1121 l 541 1111 z "},"Ň":{"ha":1060,"x_min":48,"x_max":1037,"o":"m 48 0 l 48 60 l 159 74 l 159 957 q 122 962 141 960 q 85 967 103 965 q 48 972 67 970 l 48 1032 l 272 1032 l 763 319 l 842 181 l 842 957 l 720 972 l 720 1032 l 1037 1032 l 1037 972 l 923 957 l 923 0 l 851 0 l 353 715 l 240 900 l 240 72 l 366 60 l 366 0 l 48 0 m 485 1122 l 316 1308 l 362 1342 l 544 1203 l 726 1342 l 772 1308 l 603 1122 l 485 1122 z "},"Ṋ":{"ha":1060,"x_min":48,"x_max":1037,"o":"m 48 0 l 48 60 l 159 74 l 159 957 q 122 962 141 960 q 85 967 103 965 q 48 972 67 970 l 48 1032 l 272 1032 l 763 319 l 842 181 l 842 957 l 720 972 l 720 1032 l 1037 1032 l 1037 972 l 923 957 l 923 0 l 851 0 l 353 715 l 240 900 l 240 72 l 366 60 l 366 0 l 48 0 m 468 -81 l 592 -81 l 770 -313 l 724 -348 l 530 -173 l 335 -348 l 290 -313 l 468 -81 z "},"Ņ":{"ha":1060,"x_min":48,"x_max":1037,"o":"m 48 0 l 48 60 l 159 74 l 159 957 q 122 962 141 960 q 85 967 103 965 q 48 972 67 970 l 48 1032 l 272 1032 l 763 319 l 842 181 l 842 957 l 720 972 l 720 1032 l 1037 1032 l 1037 972 l 923 957 l 923 0 l 851 0 l 353 715 l 240 900 l 240 72 l 366 60 l 366 0 l 48 0 m 606 -200 q 583 -287 606 -249 q 534 -347 560 -325 q 501 -372 509 -369 l 500 -372 l 463 -346 l 463 -337 q 497 -300 483 -327 q 510 -251 510 -273 q 500 -219 510 -231 q 481 -201 491 -208 q 462 -183 470 -194 q 454 -150 454 -172 q 466 -111 454 -124 q 493 -93 478 -98 q 518 -89 508 -89 l 521 -89 q 583 -117 560 -89 q 606 -200 606 -146 z "},"Ṅ":{"ha":1060,"x_min":48,"x_max":1037,"o":"m 48 0 l 48 60 l 159 74 l 159 957 q 122 962 141 960 q 85 967 103 965 q 48 972 67 970 l 48 1032 l 272 1032 l 763 319 l 842 181 l 842 957 l 720 972 l 720 1032 l 1037 1032 l 1037 972 l 923 957 l 923 0 l 851 0 l 353 715 l 240 900 l 240 72 l 366 60 l 366 0 l 48 0 m 538 1133 q 481 1156 500 1133 q 461 1213 461 1179 q 482 1276 461 1247 q 548 1304 503 1304 l 549 1304 q 607 1281 588 1304 q 626 1224 626 1258 q 605 1162 626 1190 q 540 1133 584 1133 l 538 1133 z "},"Ṇ":{"ha":1060,"x_min":48,"x_max":1037,"o":"m 48 0 l 48 60 l 159 74 l 159 957 q 122 962 141 960 q 85 967 103 965 q 48 972 67 970 l 48 1032 l 272 1032 l 763 319 l 842 181 l 842 957 l 720 972 l 720 1032 l 1037 1032 l 1037 972 l 923 957 l 923 0 l 851 0 l 353 715 l 240 900 l 240 72 l 366 60 l 366 0 l 48 0 m 518 -274 q 462 -251 481 -274 q 442 -194 442 -228 q 464 -131 442 -160 q 528 -103 485 -103 l 529 -103 q 585 -126 566 -103 q 605 -183 605 -149 q 584 -245 605 -217 q 519 -274 563 -274 l 518 -274 z "},"Ǹ":{"ha":1060,"x_min":48,"x_max":1037,"o":"m 48 0 l 48 60 l 159 74 l 159 957 q 122 962 141 960 q 85 967 103 965 q 48 972 67 970 l 48 1032 l 272 1032 l 763 319 l 842 181 l 842 957 l 720 972 l 720 1032 l 1037 1032 l 1037 972 l 923 957 l 923 0 l 851 0 l 353 715 l 240 900 l 240 72 l 366 60 l 366 0 l 48 0 m 552 1111 q 498 1141 528 1121 q 438 1187 468 1161 q 381 1239 407 1213 q 337 1289 354 1266 l 431 1365 l 598 1149 l 553 1111 l 552 1111 z "},"Ɲ":{"ha":1052,"x_min":-15,"x_max":1029,"o":"m 41 -240 q 9 -236 23 -240 q -15 -228 -4 -233 l -15 -115 q 29 -131 1 -123 q 87 -140 57 -140 q 119 -133 106 -140 q 139 -109 131 -126 q 149 -65 146 -93 q 151 6 151 -37 l 151 957 q 115 962 133 960 q 77 967 96 965 q 40 972 59 970 l 40 1032 l 264 1032 l 756 319 l 835 181 l 835 957 l 713 972 l 713 1032 l 1029 1032 l 1029 972 l 915 957 l 915 0 l 843 0 l 346 715 l 232 900 l 232 35 q 220 -66 232 -17 q 185 -154 209 -115 q 126 -216 162 -193 q 41 -240 90 -240 z "},"ǋ":{"ha":1476,"x_min":48,"x_max":1342,"o":"m 48 0 l 48 60 l 159 74 l 159 957 q 122 962 141 960 q 85 967 103 965 q 48 972 67 970 l 48 1032 l 272 1032 l 763 319 l 842 181 l 842 957 l 720 972 l 720 1032 l 1037 1032 l 1037 972 l 923 957 l 923 0 l 851 0 l 353 715 l 240 900 l 240 72 l 366 60 l 366 0 l 48 0 m 1112 -337 q 1088 -338 1105 -338 q 1053 -336 1070 -337 q 1033 -332 1037 -335 l 1027 -275 q 1059 -273 1038 -276 q 1106 -261 1081 -269 q 1172 -206 1149 -248 q 1205 -102 1196 -165 q 1215 35 1215 -40 l 1213 674 l 1102 699 l 1102 765 l 1295 788 l 1298 788 l 1324 765 l 1324 8 q 1310 -141 1324 -78 q 1268 -246 1296 -204 q 1201 -310 1240 -288 q 1112 -337 1162 -333 m 1253 917 q 1196 940 1215 917 q 1176 997 1176 963 q 1198 1059 1176 1031 q 1263 1088 1219 1088 l 1265 1088 q 1322 1065 1303 1088 q 1342 1008 1342 1042 q 1320 945 1342 974 q 1255 917 1299 917 l 1253 917 z "},"Ƞ":{"ha":1006,"x_min":55,"x_max":1051,"o":"m 699 -336 l 699 -276 l 819 -267 l 819 726 q 801 859 819 810 q 742 931 783 909 q 635 953 701 953 q 443 911 532 953 q 284 803 354 870 l 283 72 l 406 60 l 406 0 l 55 0 l 55 60 l 170 72 l 170 957 l 63 972 l 63 1032 l 247 1046 l 258 1046 l 284 1024 l 284 961 l 277 878 q 401 969 339 931 q 529 1026 464 1006 q 663 1046 594 1046 q 812 1013 752 1046 q 902 908 872 979 q 932 724 932 838 l 932 -267 l 1051 -276 l 1051 -336 l 699 -336 z "},"Ṉ":{"ha":1060,"x_min":48,"x_max":1037,"o":"m 48 0 l 48 60 l 159 74 l 159 957 q 122 962 141 960 q 85 967 103 965 q 48 972 67 970 l 48 1032 l 272 1032 l 763 319 l 842 181 l 842 957 l 720 972 l 720 1032 l 1037 1032 l 1037 972 l 923 957 l 923 0 l 851 0 l 353 715 l 240 900 l 240 72 l 366 60 l 366 0 l 48 0 m 727 -136 l 727 -221 l 333 -221 l 333 -136 l 727 -136 z "},"Ñ":{"ha":1060,"x_min":48,"x_max":1037,"o":"m 48 0 l 48 60 l 159 74 l 159 957 q 122 962 141 960 q 85 967 103 965 q 48 972 67 970 l 48 1032 l 272 1032 l 763 319 l 842 181 l 842 957 l 720 972 l 720 1032 l 1037 1032 l 1037 972 l 923 957 l 923 0 l 851 0 l 353 715 l 240 900 l 240 72 l 366 60 l 366 0 l 48 0 m 622 1125 q 566 1140 588 1125 q 528 1173 544 1154 q 497 1207 513 1192 q 461 1222 482 1222 q 418 1195 433 1222 q 393 1135 403 1169 l 342 1156 q 381 1263 344 1225 q 466 1301 417 1301 q 522 1286 501 1301 q 559 1252 544 1272 q 590 1218 575 1233 q 626 1203 606 1203 q 670 1230 654 1203 q 694 1291 685 1256 l 745 1269 q 707 1163 743 1200 q 622 1125 671 1125 z "},"Ŋ":{"ha":1040,"x_min":55,"x_max":935,"o":"m 613 -299 l 607 -242 q 639 -240 617 -244 q 686 -228 661 -236 q 743 -188 718 -219 q 786 -115 768 -158 q 813 -23 803 -72 q 822 72 822 26 l 822 726 q 803 859 822 810 q 745 931 785 909 q 638 953 705 953 q 506 934 569 953 q 386 882 442 915 q 284 803 331 848 l 284 72 l 406 60 l 406 0 l 55 0 l 55 60 l 170 72 l 170 957 l 63 972 l 63 1032 l 247 1046 l 258 1046 l 284 1024 l 284 961 l 277 878 q 402 969 339 931 q 531 1026 465 1006 q 666 1046 597 1046 q 815 1016 756 1046 q 905 917 875 987 q 935 724 935 847 l 935 100 q 920 -56 935 17 q 873 -185 905 -129 q 792 -273 841 -241 q 674 -305 742 -305 q 639 -304 658 -305 q 613 -299 619 -303 z "},"O":{"ha":994,"x_min":49,"x_max":946,"o":"m 488 -15 q 247 50 344 -17 q 99 236 149 117 q 49 508 49 355 q 84 730 49 631 q 183 899 119 828 q 331 1006 247 969 q 511 1043 415 1043 q 748 979 651 1043 q 895 798 845 915 q 946 525 946 681 q 911 305 946 403 q 813 135 876 206 q 667 25 751 64 q 488 -15 584 -13 m 494 50 q 663 103 590 50 q 776 262 735 156 q 817 525 817 367 q 780 760 817 658 q 672 920 743 863 q 499 978 601 978 q 331 926 403 978 q 218 770 258 874 q 178 508 178 666 q 215 272 178 376 q 322 109 251 169 q 494 50 392 50 z "},"Ȣ":{"ha":967,"x_min":49,"x_max":918,"o":"m 483 -15 q 235 26 331 -15 q 94 136 139 67 q 49 288 49 206 q 84 426 49 372 q 175 515 119 480 q 292 574 231 550 q 186 623 237 596 q 104 692 136 649 q 72 800 72 734 q 103 915 72 865 q 183 997 133 965 q 288 1043 233 1029 l 322 989 q 225 920 256 967 q 194 803 194 873 q 267 662 194 713 q 485 611 339 611 q 645 636 582 611 q 740 705 709 660 q 772 810 772 750 q 743 924 772 880 q 648 989 714 967 l 681 1043 q 796 994 748 1026 q 871 916 844 962 q 897 813 897 871 q 866 695 897 740 q 784 624 834 651 q 678 578 733 598 q 795 523 740 555 q 884 439 850 490 q 918 308 918 388 q 865 138 918 210 q 714 25 811 65 q 483 -15 616 -15 m 483 50 q 715 112 639 50 q 792 297 792 174 q 754 424 792 368 q 648 513 717 481 q 483 546 578 546 q 313 511 381 546 q 213 420 246 477 q 181 297 181 364 q 211 167 181 222 q 309 81 242 111 q 483 50 376 50 z "},"Ó":{"ha":994,"x_min":49,"x_max":946,"o":"m 488 -15 q 247 50 344 -17 q 99 236 149 117 q 49 508 49 355 q 84 730 49 631 q 183 899 119 828 q 331 1006 247 969 q 511 1043 415 1043 q 748 979 651 1043 q 895 798 845 915 q 946 525 946 681 q 911 305 946 403 q 813 135 876 206 q 667 25 751 64 q 488 -15 584 -13 m 494 50 q 663 103 590 50 q 776 262 735 156 q 817 525 817 367 q 780 760 817 658 q 672 920 743 863 q 499 978 601 978 q 331 926 403 978 q 218 770 258 874 q 178 508 178 666 q 215 272 178 376 q 322 109 251 169 q 494 50 392 50 m 494 1111 l 450 1149 l 617 1365 l 711 1289 q 667 1239 694 1266 q 610 1187 641 1213 q 550 1141 580 1161 q 496 1111 520 1121 l 494 1111 z "},"Ɵ":{"ha":994,"x_min":49,"x_max":946,"o":"m 488 -15 q 247 50 344 -17 q 99 236 149 117 q 49 508 49 355 q 84 730 49 631 q 183 899 119 828 q 331 1006 247 969 q 511 1043 415 1043 q 748 979 651 1043 q 895 798 845 915 q 946 525 946 681 q 911 305 946 403 q 813 135 876 206 q 667 25 751 64 q 488 -15 584 -13 m 494 50 q 663 103 590 50 q 776 262 735 156 q 817 525 817 367 q 780 760 817 658 q 672 920 743 863 q 499 978 601 978 q 331 926 403 978 q 218 770 258 874 q 178 508 178 666 q 215 272 178 376 q 322 109 251 169 q 494 50 392 50 m 892 554 l 892 481 l 107 481 l 107 554 l 892 554 z "},"Ŏ":{"ha":994,"x_min":49,"x_max":946,"o":"m 488 -15 q 247 50 344 -17 q 99 236 149 117 q 49 508 49 355 q 84 730 49 631 q 183 899 119 828 q 331 1006 247 969 q 511 1043 415 1043 q 748 979 651 1043 q 895 798 845 915 q 946 525 946 681 q 911 305 946 403 q 813 135 876 206 q 667 25 751 64 q 488 -15 584 -13 m 494 50 q 663 103 590 50 q 776 262 735 156 q 817 525 817 367 q 780 760 817 658 q 672 920 743 863 q 499 978 601 978 q 331 926 403 978 q 218 770 258 874 q 178 508 178 666 q 215 272 178 376 q 322 109 251 169 q 494 50 392 50 m 497 1129 q 393 1151 438 1129 q 323 1213 349 1173 q 298 1303 298 1252 q 299 1318 298 1310 q 301 1333 299 1326 l 363 1333 q 364 1324 363 1329 q 365 1311 364 1318 q 382 1266 368 1288 q 423 1229 395 1244 q 497 1214 451 1214 q 572 1229 544 1214 q 613 1266 599 1244 q 630 1311 626 1288 q 631 1324 631 1318 q 631 1333 631 1329 l 694 1333 q 696 1318 695 1326 q 697 1303 697 1310 q 671 1213 697 1252 q 601 1151 646 1173 q 497 1129 556 1129 z "},"Ǒ":{"ha":994,"x_min":49,"x_max":946,"o":"m 488 -15 q 247 50 344 -17 q 99 236 149 117 q 49 508 49 355 q 84 730 49 631 q 183 899 119 828 q 331 1006 247 969 q 511 1043 415 1043 q 748 979 651 1043 q 895 798 845 915 q 946 525 946 681 q 911 305 946 403 q 813 135 876 206 q 667 25 751 64 q 488 -15 584 -13 m 494 50 q 663 103 590 50 q 776 262 735 156 q 817 525 817 367 q 780 760 817 658 q 672 920 743 863 q 499 978 601 978 q 331 926 403 978 q 218 770 258 874 q 178 508 178 666 q 215 272 178 376 q 322 109 251 169 q 494 50 392 50 m 438 1122 l 269 1308 l 315 1342 l 497 1203 l 679 1342 l 725 1308 l 556 1122 l 438 1122 z "},"Ô":{"ha":994,"x_min":49,"x_max":946,"o":"m 488 -15 q 247 50 344 -17 q 99 236 149 117 q 49 508 49 355 q 84 730 49 631 q 183 899 119 828 q 331 1006 247 969 q 511 1043 415 1043 q 748 979 651 1043 q 895 798 845 915 q 946 525 946 681 q 911 305 946 403 q 813 135 876 206 q 667 25 751 64 q 488 -15 584 -13 m 494 50 q 663 103 590 50 q 776 262 735 156 q 817 525 817 367 q 780 760 817 658 q 672 920 743 863 q 499 978 601 978 q 331 926 403 978 q 218 770 258 874 q 178 508 178 666 q 215 272 178 376 q 322 109 251 169 q 494 50 392 50 m 315 1114 l 269 1149 l 438 1340 l 556 1340 l 725 1149 l 679 1114 l 497 1260 l 315 1114 z "},"Ố":{"ha":994,"x_min":49,"x_max":946,"o":"m 488 -15 q 247 50 344 -17 q 99 236 149 117 q 49 508 49 355 q 84 730 49 631 q 183 899 119 828 q 331 1006 247 969 q 511 1043 415 1043 q 748 979 651 1043 q 895 798 845 915 q 946 525 946 681 q 911 305 946 403 q 813 135 876 206 q 667 25 751 64 q 488 -15 584 -13 m 494 50 q 663 103 590 50 q 776 262 735 156 q 817 525 817 367 q 780 760 817 658 q 672 920 743 863 q 499 978 601 978 q 331 926 403 978 q 218 770 258 874 q 178 508 178 666 q 215 272 178 376 q 322 109 251 169 q 494 50 392 50 m 315 1107 l 269 1144 l 445 1331 l 549 1331 l 726 1144 l 680 1107 l 497 1240 l 315 1107 m 696 1293 l 694 1293 l 650 1331 l 801 1513 l 881 1449 q 824 1387 858 1418 q 757 1331 791 1356 q 696 1293 722 1306 z "},"Ộ":{"ha":994,"x_min":49,"x_max":946,"o":"m 488 -15 q 247 50 344 -17 q 99 236 149 117 q 49 508 49 355 q 84 730 49 631 q 183 899 119 828 q 331 1006 247 969 q 511 1043 415 1043 q 748 979 651 1043 q 895 798 845 915 q 946 525 946 681 q 911 305 946 403 q 813 135 876 206 q 667 25 751 64 q 488 -15 584 -13 m 494 50 q 663 103 590 50 q 776 262 735 156 q 817 525 817 367 q 780 760 817 658 q 672 920 743 863 q 499 978 601 978 q 331 926 403 978 q 218 770 258 874 q 178 508 178 666 q 215 272 178 376 q 322 109 251 169 q 494 50 392 50 m 485 -274 q 429 -251 449 -274 q 410 -194 410 -228 q 431 -131 410 -160 q 495 -103 452 -103 l 497 -103 q 553 -126 533 -103 q 572 -183 572 -149 q 551 -245 572 -217 q 487 -274 530 -274 l 485 -274 m 315 1114 l 269 1149 l 438 1340 l 556 1340 l 725 1149 l 679 1114 l 497 1260 l 315 1114 z "},"Ồ":{"ha":994,"x_min":49,"x_max":946,"o":"m 488 -15 q 247 50 344 -17 q 99 236 149 117 q 49 508 49 355 q 84 730 49 631 q 183 899 119 828 q 331 1006 247 969 q 511 1043 415 1043 q 748 979 651 1043 q 895 798 845 915 q 946 525 946 681 q 911 305 946 403 q 813 135 876 206 q 667 25 751 64 q 488 -15 584 -13 m 494 50 q 663 103 590 50 q 776 262 735 156 q 817 525 817 367 q 780 760 817 658 q 672 920 743 863 q 499 978 601 978 q 331 926 403 978 q 218 770 258 874 q 178 508 178 666 q 215 272 178 376 q 322 109 251 169 q 494 50 392 50 m 315 1107 l 269 1144 l 445 1331 l 549 1331 l 726 1144 l 680 1107 l 497 1240 l 315 1107 m 726 1293 q 666 1331 701 1306 q 598 1387 631 1356 q 542 1449 565 1418 l 622 1513 l 772 1331 l 728 1293 l 726 1293 z "},"Ổ":{"ha":994,"x_min":49,"x_max":946,"o":"m 488 -15 q 247 50 344 -17 q 99 236 149 117 q 49 508 49 355 q 84 730 49 631 q 183 899 119 828 q 331 1006 247 969 q 511 1043 415 1043 q 748 979 651 1043 q 895 798 845 915 q 946 525 946 681 q 911 305 946 403 q 813 135 876 206 q 667 25 751 64 q 488 -15 584 -13 m 494 50 q 663 103 590 50 q 776 262 735 156 q 817 525 817 367 q 780 760 817 658 q 672 920 743 863 q 499 978 601 978 q 331 926 403 978 q 218 770 258 874 q 178 508 178 666 q 215 272 178 376 q 322 109 251 169 q 494 50 392 50 m 313 1107 l 267 1144 l 443 1331 l 547 1331 l 724 1144 l 678 1107 l 495 1240 l 313 1107 m 682 1286 q 670 1306 675 1297 q 666 1327 666 1315 q 677 1355 666 1342 q 703 1378 688 1367 q 728 1403 717 1390 q 740 1433 740 1416 q 723 1467 740 1452 q 674 1481 706 1481 q 647 1478 660 1481 q 622 1471 634 1476 l 622 1543 q 654 1555 636 1551 q 697 1560 672 1560 q 793 1526 758 1560 q 829 1450 829 1493 q 816 1402 829 1422 q 785 1367 803 1381 q 751 1344 767 1353 q 729 1315 729 1331 q 733 1286 728 1300 l 682 1286 z "},"Ỗ":{"ha":994,"x_min":49,"x_max":946,"o":"m 488 -15 q 247 50 344 -17 q 99 236 149 117 q 49 508 49 355 q 84 730 49 631 q 183 899 119 828 q 331 1006 247 969 q 511 1043 415 1043 q 748 979 651 1043 q 895 798 845 915 q 946 525 946 681 q 911 305 946 403 q 813 135 876 206 q 667 25 751 64 q 488 -15 584 -13 m 494 50 q 663 103 590 50 q 776 262 735 156 q 817 525 817 367 q 780 760 817 658 q 672 920 743 863 q 499 978 601 978 q 331 926 403 978 q 218 770 258 874 q 178 508 178 666 q 215 272 178 376 q 322 109 251 169 q 494 50 392 50 m 315 1107 l 269 1144 l 445 1331 l 549 1331 l 726 1144 l 680 1107 l 497 1240 l 315 1107 m 577 1392 q 510 1411 538 1392 q 458 1450 481 1431 q 410 1469 435 1469 q 377 1453 389 1469 q 358 1410 366 1436 l 304 1431 q 343 1518 314 1480 q 417 1557 372 1557 q 485 1538 456 1557 q 537 1499 513 1518 q 584 1479 560 1479 q 617 1496 606 1479 q 637 1538 628 1513 l 690 1518 q 652 1430 681 1469 q 577 1392 623 1392 z "},"Ȍ":{"ha":994,"x_min":49,"x_max":946,"o":"m 488 -15 q 247 50 344 -17 q 99 236 149 117 q 49 508 49 355 q 84 730 49 631 q 183 899 119 828 q 331 1006 247 969 q 511 1043 415 1043 q 748 979 651 1043 q 895 798 845 915 q 946 525 946 681 q 911 305 946 403 q 813 135 876 206 q 667 25 751 64 q 488 -15 584 -13 m 494 50 q 663 103 590 50 q 776 262 735 156 q 817 525 817 367 q 780 760 817 658 q 672 920 743 863 q 499 978 601 978 q 331 926 403 978 q 218 770 258 874 q 178 508 178 666 q 215 272 178 376 q 322 109 251 169 q 494 50 392 50 m 383 1114 q 331 1149 360 1128 q 273 1195 303 1170 q 217 1248 244 1221 q 169 1303 190 1276 l 249 1368 l 430 1157 l 385 1114 l 383 1114 m 636 1114 q 569 1164 605 1133 q 498 1230 533 1194 q 435 1303 463 1267 l 515 1368 l 682 1151 l 638 1114 l 636 1114 z "},"Ö":{"ha":994,"x_min":49,"x_max":946,"o":"m 488 -15 q 247 50 344 -17 q 99 236 149 117 q 49 508 49 355 q 84 730 49 631 q 183 899 119 828 q 331 1006 247 969 q 511 1043 415 1043 q 748 979 651 1043 q 895 798 845 915 q 946 525 946 681 q 911 305 946 403 q 813 135 876 206 q 667 25 751 64 q 488 -15 584 -13 m 494 50 q 663 103 590 50 q 776 262 735 156 q 817 525 817 367 q 780 760 817 658 q 672 920 743 863 q 499 978 601 978 q 331 926 403 978 q 218 770 258 874 q 178 508 178 666 q 215 272 178 376 q 322 109 251 169 q 494 50 392 50 m 372 1133 q 325 1156 343 1133 q 307 1213 307 1179 q 327 1276 307 1247 q 382 1304 347 1304 l 383 1304 q 431 1281 413 1304 q 449 1224 449 1258 q 429 1162 449 1190 q 374 1133 409 1133 l 372 1133 m 613 1133 q 565 1156 583 1133 q 547 1213 547 1179 q 567 1276 547 1247 q 622 1304 587 1304 l 624 1304 q 671 1281 653 1304 q 689 1224 689 1258 q 669 1162 689 1190 q 614 1133 649 1133 l 613 1133 z "},"Ȫ":{"ha":994,"x_min":49,"x_max":946,"o":"m 488 -15 q 247 50 344 -17 q 99 236 149 117 q 49 508 49 355 q 84 730 49 631 q 183 899 119 828 q 331 1006 247 969 q 511 1043 415 1043 q 748 979 651 1043 q 895 798 845 915 q 946 525 946 681 q 911 305 946 403 q 813 135 876 206 q 667 25 751 64 q 488 -15 584 -13 m 494 50 q 663 103 590 50 q 776 262 735 156 q 817 525 817 367 q 780 760 817 658 q 672 920 743 863 q 499 978 601 978 q 331 926 403 978 q 218 770 258 874 q 178 508 178 666 q 215 272 178 376 q 322 109 251 169 q 494 50 392 50 m 372 1133 q 325 1156 343 1133 q 307 1213 307 1179 q 327 1276 307 1247 q 382 1304 347 1304 l 383 1304 q 431 1281 413 1304 q 449 1224 449 1258 q 429 1162 449 1190 q 374 1133 409 1133 l 372 1133 m 613 1133 q 565 1156 583 1133 q 547 1213 547 1179 q 567 1276 547 1247 q 622 1304 587 1304 l 624 1304 q 671 1281 653 1304 q 689 1224 689 1258 q 669 1162 689 1190 q 614 1133 649 1133 l 613 1133 m 681 1445 l 681 1368 l 315 1368 l 315 1445 l 681 1445 z "},"Ȯ":{"ha":994,"x_min":49,"x_max":946,"o":"m 488 -15 q 247 50 344 -17 q 99 236 149 117 q 49 508 49 355 q 84 730 49 631 q 183 899 119 828 q 331 1006 247 969 q 511 1043 415 1043 q 748 979 651 1043 q 895 798 845 915 q 946 525 946 681 q 911 305 946 403 q 813 135 876 206 q 667 25 751 64 q 488 -15 584 -13 m 494 50 q 663 103 590 50 q 776 262 735 156 q 817 525 817 367 q 780 760 817 658 q 672 920 743 863 q 499 978 601 978 q 331 926 403 978 q 218 770 258 874 q 178 508 178 666 q 215 272 178 376 q 322 109 251 169 q 494 50 392 50 m 492 1133 q 434 1156 453 1133 q 415 1213 415 1179 q 436 1276 415 1247 q 501 1304 457 1304 l 503 1304 q 560 1281 541 1304 q 580 1224 580 1258 q 559 1162 580 1190 q 493 1133 538 1133 l 492 1133 z "},"Ȱ":{"ha":994,"x_min":49,"x_max":946,"o":"m 488 -15 q 247 50 344 -17 q 99 236 149 117 q 49 508 49 355 q 84 730 49 631 q 183 899 119 828 q 331 1006 247 969 q 511 1043 415 1043 q 748 979 651 1043 q 895 798 845 915 q 946 525 946 681 q 911 305 946 403 q 813 135 876 206 q 667 25 751 64 q 488 -15 584 -13 m 494 50 q 663 103 590 50 q 776 262 735 156 q 817 525 817 367 q 780 760 817 658 q 672 920 743 863 q 499 978 601 978 q 331 926 403 978 q 218 770 258 874 q 178 508 178 666 q 215 272 178 376 q 322 109 251 169 q 494 50 392 50 m 492 1133 q 434 1156 453 1133 q 415 1213 415 1179 q 436 1276 415 1247 q 501 1304 457 1304 l 503 1304 q 560 1281 541 1304 q 580 1224 580 1258 q 559 1162 580 1190 q 493 1133 538 1133 l 492 1133 m 685 1440 l 685 1363 l 320 1363 l 320 1440 l 685 1440 z "},"Ọ":{"ha":994,"x_min":49,"x_max":946,"o":"m 488 -15 q 247 50 344 -17 q 99 236 149 117 q 49 508 49 355 q 84 730 49 631 q 183 899 119 828 q 331 1006 247 969 q 511 1043 415 1043 q 748 979 651 1043 q 895 798 845 915 q 946 525 946 681 q 911 305 946 403 q 813 135 876 206 q 667 25 751 64 q 488 -15 584 -13 m 494 50 q 663 103 590 50 q 776 262 735 156 q 817 525 817 367 q 780 760 817 658 q 672 920 743 863 q 499 978 601 978 q 331 926 403 978 q 218 770 258 874 q 178 508 178 666 q 215 272 178 376 q 322 109 251 169 q 494 50 392 50 m 485 -274 q 429 -251 449 -274 q 410 -194 410 -228 q 431 -131 410 -160 q 495 -103 452 -103 l 497 -103 q 553 -126 533 -103 q 572 -183 572 -149 q 551 -245 572 -217 q 487 -274 530 -274 l 485 -274 z "},"Ò":{"ha":994,"x_min":49,"x_max":946,"o":"m 488 -15 q 247 50 344 -17 q 99 236 149 117 q 49 508 49 355 q 84 730 49 631 q 183 899 119 828 q 331 1006 247 969 q 511 1043 415 1043 q 748 979 651 1043 q 895 798 845 915 q 946 525 946 681 q 911 305 946 403 q 813 135 876 206 q 667 25 751 64 q 488 -15 584 -13 m 494 50 q 663 103 590 50 q 776 262 735 156 q 817 525 817 367 q 780 760 817 658 q 672 920 743 863 q 499 978 601 978 q 331 926 403 978 q 218 770 258 874 q 178 508 178 666 q 215 272 178 376 q 322 109 251 169 q 494 50 392 50 m 506 1111 q 452 1141 482 1121 q 391 1187 422 1161 q 334 1239 360 1213 q 290 1289 308 1266 l 385 1365 l 551 1149 l 507 1111 l 506 1111 z "},"Ỏ":{"ha":994,"x_min":49,"x_max":946,"o":"m 488 -15 q 247 50 344 -17 q 99 236 149 117 q 49 508 49 355 q 84 730 49 631 q 183 899 119 828 q 331 1006 247 969 q 511 1043 415 1043 q 748 979 651 1043 q 895 798 845 915 q 946 525 946 681 q 911 305 946 403 q 813 135 876 206 q 667 25 751 64 q 488 -15 584 -13 m 494 50 q 663 103 590 50 q 776 262 735 156 q 817 525 817 367 q 780 760 817 658 q 672 920 743 863 q 499 978 601 978 q 331 926 403 978 q 218 770 258 874 q 178 508 178 666 q 215 272 178 376 q 322 109 251 169 q 494 50 392 50 m 454 1106 q 444 1128 447 1117 q 441 1153 441 1140 q 453 1188 441 1174 q 480 1212 465 1201 q 508 1235 496 1223 q 519 1263 519 1247 q 500 1302 519 1291 q 440 1313 481 1313 q 406 1308 424 1313 q 376 1297 388 1303 l 376 1372 q 421 1387 394 1381 q 472 1393 447 1393 q 547 1379 515 1393 q 599 1340 580 1365 q 618 1277 618 1314 q 607 1225 618 1245 q 580 1194 596 1206 q 547 1173 563 1182 q 517 1140 520 1158 q 518 1106 513 1122 l 454 1106 z "},"Ơ":{"ha":994,"x_min":49,"x_max":1022,"o":"m 488 -15 q 247 50 344 -17 q 99 236 149 117 q 49 508 49 355 q 84 730 49 631 q 183 899 119 828 q 331 1006 247 969 q 511 1043 415 1043 q 641 1026 581 1043 q 749 978 700 1010 q 827 1003 794 981 q 878 1056 859 1024 q 907 1120 898 1087 q 916 1178 916 1153 q 916 1191 916 1185 q 915 1201 916 1197 l 1019 1201 q 1021 1186 1020 1193 q 1022 1171 1022 1178 q 999 1053 1022 1108 q 933 963 977 999 q 822 915 889 926 q 915 747 883 847 q 946 525 946 648 q 911 305 946 403 q 813 135 876 206 q 667 25 751 64 q 488 -15 584 -13 m 494 50 q 663 103 590 50 q 776 262 735 156 q 817 525 817 367 q 780 760 817 658 q 672 920 743 863 q 499 978 601 978 q 330 926 403 978 q 216 770 257 874 q 175 508 175 666 q 213 272 175 376 q 321 109 250 169 q 494 50 392 50 z "},"Ớ":{"ha":994,"x_min":49,"x_max":1022,"o":"m 488 -15 q 247 50 344 -17 q 99 236 149 117 q 49 508 49 355 q 84 730 49 631 q 183 899 119 828 q 331 1006 247 969 q 511 1043 415 1043 q 641 1026 581 1043 q 749 978 700 1010 q 827 1003 794 981 q 878 1056 859 1024 q 907 1120 898 1087 q 916 1178 916 1153 q 916 1191 916 1185 q 915 1201 916 1197 l 1019 1201 q 1021 1186 1020 1193 q 1022 1171 1022 1178 q 999 1053 1022 1108 q 933 963 977 999 q 822 915 889 926 q 915 747 883 847 q 946 525 946 648 q 911 305 946 403 q 813 135 876 206 q 667 25 751 64 q 488 -15 584 -13 m 494 50 q 663 103 590 50 q 776 262 735 156 q 817 525 817 367 q 780 760 817 658 q 672 920 743 863 q 499 978 601 978 q 330 926 403 978 q 216 770 257 874 q 175 508 175 666 q 213 272 175 376 q 321 109 250 169 q 494 50 392 50 m 494 1111 l 450 1149 l 617 1365 l 711 1289 q 667 1239 694 1266 q 610 1187 641 1213 q 550 1141 580 1161 q 496 1111 520 1121 l 494 1111 z "},"Ợ":{"ha":994,"x_min":49,"x_max":1022,"o":"m 488 -15 q 247 50 344 -17 q 99 236 149 117 q 49 508 49 355 q 84 730 49 631 q 183 899 119 828 q 331 1006 247 969 q 511 1043 415 1043 q 641 1026 581 1043 q 749 978 700 1010 q 827 1003 794 981 q 878 1056 859 1024 q 907 1120 898 1087 q 916 1178 916 1153 q 916 1191 916 1185 q 915 1201 916 1197 l 1019 1201 q 1021 1186 1020 1193 q 1022 1171 1022 1178 q 999 1053 1022 1108 q 933 963 977 999 q 822 915 889 926 q 915 747 883 847 q 946 525 946 648 q 911 305 946 403 q 813 135 876 206 q 667 25 751 64 q 488 -15 584 -13 m 494 50 q 663 103 590 50 q 776 262 735 156 q 817 525 817 367 q 780 760 817 658 q 672 920 743 863 q 499 978 601 978 q 330 926 403 978 q 216 770 257 874 q 175 508 175 666 q 213 272 175 376 q 321 109 250 169 q 494 50 392 50 m 485 -274 q 429 -251 449 -274 q 410 -194 410 -228 q 431 -131 410 -160 q 495 -103 452 -103 l 497 -103 q 553 -126 533 -103 q 572 -183 572 -149 q 551 -245 572 -217 q 487 -274 530 -274 l 485 -274 z "},"Ờ":{"ha":994,"x_min":49,"x_max":1022,"o":"m 488 -15 q 247 50 344 -17 q 99 236 149 117 q 49 508 49 355 q 84 730 49 631 q 183 899 119 828 q 331 1006 247 969 q 511 1043 415 1043 q 641 1026 581 1043 q 749 978 700 1010 q 827 1003 794 981 q 878 1056 859 1024 q 907 1120 898 1087 q 916 1178 916 1153 q 916 1191 916 1185 q 915 1201 916 1197 l 1019 1201 q 1021 1186 1020 1193 q 1022 1171 1022 1178 q 999 1053 1022 1108 q 933 963 977 999 q 822 915 889 926 q 915 747 883 847 q 946 525 946 648 q 911 305 946 403 q 813 135 876 206 q 667 25 751 64 q 488 -15 584 -13 m 494 50 q 663 103 590 50 q 776 262 735 156 q 817 525 817 367 q 780 760 817 658 q 672 920 743 863 q 499 978 601 978 q 330 926 403 978 q 216 770 257 874 q 175 508 175 666 q 213 272 175 376 q 321 109 250 169 q 494 50 392 50 m 506 1111 q 452 1141 482 1121 q 391 1187 422 1161 q 334 1239 360 1213 q 290 1289 308 1266 l 385 1365 l 551 1149 l 507 1111 l 506 1111 z "},"Ở":{"ha":994,"x_min":49,"x_max":1022,"o":"m 488 -15 q 247 50 344 -17 q 99 236 149 117 q 49 508 49 355 q 84 730 49 631 q 183 899 119 828 q 331 1006 247 969 q 511 1043 415 1043 q 641 1026 581 1043 q 749 978 700 1010 q 827 1003 794 981 q 878 1056 859 1024 q 907 1120 898 1087 q 916 1178 916 1153 q 916 1191 916 1185 q 915 1201 916 1197 l 1019 1201 q 1021 1186 1020 1193 q 1022 1171 1022 1178 q 999 1053 1022 1108 q 933 963 977 999 q 822 915 889 926 q 915 747 883 847 q 946 525 946 648 q 911 305 946 403 q 813 135 876 206 q 667 25 751 64 q 488 -15 584 -13 m 494 50 q 663 103 590 50 q 776 262 735 156 q 817 525 817 367 q 780 760 817 658 q 672 920 743 863 q 499 978 601 978 q 330 926 403 978 q 216 770 257 874 q 175 508 175 666 q 213 272 175 376 q 321 109 250 169 q 494 50 392 50 m 454 1106 q 444 1128 447 1117 q 441 1153 441 1140 q 453 1188 441 1174 q 480 1212 465 1201 q 508 1235 496 1223 q 519 1263 519 1247 q 500 1302 519 1291 q 440 1313 481 1313 q 406 1308 424 1313 q 376 1297 388 1303 l 376 1372 q 421 1387 394 1381 q 472 1393 447 1393 q 547 1379 515 1393 q 599 1340 580 1365 q 618 1277 618 1314 q 607 1225 618 1245 q 580 1194 596 1206 q 547 1173 563 1182 q 517 1140 520 1158 q 518 1106 513 1122 l 454 1106 z "},"Ỡ":{"ha":994,"x_min":49,"x_max":1022,"o":"m 488 -15 q 247 50 344 -17 q 99 236 149 117 q 49 508 49 355 q 84 730 49 631 q 183 899 119 828 q 331 1006 247 969 q 511 1043 415 1043 q 641 1026 581 1043 q 749 978 700 1010 q 827 1003 794 981 q 878 1056 859 1024 q 907 1120 898 1087 q 916 1178 916 1153 q 916 1191 916 1185 q 915 1201 916 1197 l 1019 1201 q 1021 1186 1020 1193 q 1022 1171 1022 1178 q 999 1053 1022 1108 q 933 963 977 999 q 822 915 889 926 q 915 747 883 847 q 946 525 946 648 q 911 305 946 403 q 813 135 876 206 q 667 25 751 64 q 488 -15 584 -13 m 494 50 q 663 103 590 50 q 776 262 735 156 q 817 525 817 367 q 780 760 817 658 q 672 920 743 863 q 499 978 601 978 q 330 926 403 978 q 216 770 257 874 q 175 508 175 666 q 213 272 175 376 q 321 109 250 169 q 494 50 392 50 m 575 1125 q 519 1140 541 1125 q 482 1173 497 1154 q 451 1207 466 1192 q 415 1222 435 1222 q 372 1195 387 1222 q 347 1135 356 1169 l 296 1156 q 334 1263 298 1225 q 419 1301 370 1301 q 476 1286 454 1301 q 513 1252 497 1272 q 544 1218 528 1233 q 580 1203 559 1203 q 623 1230 608 1203 q 648 1291 639 1256 l 699 1269 q 660 1163 697 1200 q 575 1125 624 1125 z "},"Ő":{"ha":994,"x_min":49,"x_max":946,"o":"m 488 -15 q 247 50 344 -17 q 99 236 149 117 q 49 508 49 355 q 84 730 49 631 q 183 899 119 828 q 331 1006 247 969 q 511 1043 415 1043 q 748 979 651 1043 q 895 798 845 915 q 946 525 946 681 q 911 305 946 403 q 813 135 876 206 q 667 25 751 64 q 488 -15 584 -13 m 494 50 q 663 103 590 50 q 776 262 735 156 q 817 525 817 367 q 780 760 817 658 q 672 920 743 863 q 499 978 601 978 q 331 926 403 978 q 218 770 258 874 q 178 508 178 666 q 215 272 178 376 q 322 109 251 169 q 494 50 392 50 m 610 1114 l 565 1157 l 746 1368 l 826 1303 q 778 1248 805 1276 q 721 1195 751 1221 q 663 1149 692 1170 q 611 1114 635 1128 l 610 1114 m 357 1114 l 313 1151 l 479 1368 l 559 1303 q 497 1230 531 1267 q 426 1164 462 1194 q 358 1114 390 1133 l 357 1114 z "},"Ȏ":{"ha":994,"x_min":49,"x_max":946,"o":"m 488 -15 q 247 50 344 -17 q 99 236 149 117 q 49 508 49 355 q 84 730 49 631 q 183 899 119 828 q 331 1006 247 969 q 511 1043 415 1043 q 748 979 651 1043 q 895 798 845 915 q 946 525 946 681 q 911 305 946 403 q 813 135 876 206 q 667 25 751 64 q 488 -15 584 -13 m 494 50 q 663 103 590 50 q 776 262 735 156 q 817 525 817 367 q 780 760 817 658 q 672 920 743 863 q 499 978 601 978 q 331 926 403 978 q 218 770 258 874 q 178 508 178 666 q 215 272 178 376 q 322 109 251 169 q 494 50 392 50 m 497 1350 q 611 1326 563 1350 q 685 1260 659 1303 q 710 1161 710 1217 q 710 1146 710 1154 q 708 1129 709 1138 l 645 1129 q 645 1140 645 1133 q 644 1153 645 1146 q 626 1202 640 1178 q 582 1242 613 1226 q 497 1258 551 1258 q 413 1242 444 1258 q 368 1202 383 1226 q 351 1153 354 1178 q 350 1140 350 1146 q 349 1129 349 1133 l 287 1129 q 285 1146 285 1138 q 284 1161 284 1154 q 310 1260 284 1217 q 383 1326 335 1303 q 497 1350 431 1350 z "},"Ō":{"ha":994,"x_min":49,"x_max":946,"o":"m 488 -15 q 247 50 344 -17 q 99 236 149 117 q 49 508 49 355 q 84 730 49 631 q 183 899 119 828 q 331 1006 247 969 q 511 1043 415 1043 q 748 979 651 1043 q 895 798 845 915 q 946 525 946 681 q 911 305 946 403 q 813 135 876 206 q 667 25 751 64 q 488 -15 584 -13 m 494 50 q 663 103 590 50 q 776 262 735 156 q 817 525 817 367 q 780 760 817 658 q 672 920 743 863 q 499 978 601 978 q 331 926 403 978 q 218 770 258 874 q 178 508 178 666 q 215 272 178 376 q 322 109 251 169 q 494 50 392 50 m 680 1228 l 680 1151 l 315 1151 l 315 1228 l 680 1228 z "},"Ṓ":{"ha":994,"x_min":49,"x_max":946,"o":"m 488 -15 q 247 50 344 -17 q 99 236 149 117 q 49 508 49 355 q 84 730 49 631 q 183 899 119 828 q 331 1006 247 969 q 511 1043 415 1043 q 748 979 651 1043 q 895 798 845 915 q 946 525 946 681 q 911 305 946 403 q 813 135 876 206 q 667 25 751 64 q 488 -15 584 -13 m 494 50 q 663 103 590 50 q 776 262 735 156 q 817 525 817 367 q 780 760 817 658 q 672 920 743 863 q 499 978 601 978 q 331 926 403 978 q 218 770 258 874 q 178 508 178 666 q 215 272 178 376 q 322 109 251 169 q 494 50 392 50 m 680 1228 l 680 1151 l 315 1151 l 315 1228 l 680 1228 m 494 1288 l 450 1326 l 617 1542 l 711 1466 q 667 1416 694 1443 q 610 1364 641 1390 q 550 1318 580 1338 q 496 1288 520 1298 l 494 1288 z "},"Ṑ":{"ha":994,"x_min":49,"x_max":946,"o":"m 488 -15 q 247 50 344 -17 q 99 236 149 117 q 49 508 49 355 q 84 730 49 631 q 183 899 119 828 q 331 1006 247 969 q 511 1043 415 1043 q 748 979 651 1043 q 895 798 845 915 q 946 525 946 681 q 911 305 946 403 q 813 135 876 206 q 667 25 751 64 q 488 -15 584 -13 m 494 50 q 663 103 590 50 q 776 262 735 156 q 817 525 817 367 q 780 760 817 658 q 672 920 743 863 q 499 978 601 978 q 331 926 403 978 q 218 770 258 874 q 178 508 178 666 q 215 272 178 376 q 322 109 251 169 q 494 50 392 50 m 680 1228 l 680 1151 l 315 1151 l 315 1228 l 680 1228 m 506 1288 q 452 1318 482 1298 q 391 1364 422 1338 q 334 1416 360 1390 q 290 1466 308 1443 l 385 1542 l 551 1326 l 507 1288 l 506 1288 z "},"Ꞷ":{"ha":1133,"x_min":38,"x_max":1095,"o":"m 340 -15 q 222 15 277 -15 q 126 101 167 44 q 61 241 85 158 q 38 428 38 324 q 64 690 38 578 q 142 889 90 803 q 272 1042 194 974 l 322 1010 q 233 878 268 953 q 181 703 198 803 q 164 470 164 603 q 180 294 164 367 q 222 175 196 221 q 279 109 248 130 q 340 88 310 88 q 418 115 378 88 q 487 191 458 142 q 522 301 517 239 q 516 370 519 335 q 508 442 512 406 q 502 515 504 479 q 499 583 499 550 q 518 694 499 660 q 566 728 536 728 q 615 696 597 728 q 633 583 633 665 q 631 515 633 550 q 625 442 628 479 q 618 370 622 406 q 610 301 614 335 q 645 191 616 239 q 715 115 675 142 q 792 88 755 88 q 861 108 829 88 q 918 175 894 129 q 956 293 942 220 q 969 470 969 366 q 955 701 969 603 q 906 873 940 799 q 810 1009 871 947 l 861 1042 q 990 911 938 999 q 1068 700 1042 823 q 1095 428 1095 578 q 1071 239 1095 322 q 1006 100 1047 156 q 912 14 965 43 q 801 -15 859 -15 q 701 10 749 -15 q 616 88 653 35 q 561 219 579 140 q 505 83 542 135 q 425 8 469 32 q 340 -15 381 -15 z "},"Ǫ":{"ha":994,"x_min":49,"x_max":946,"o":"m 488 -15 q 247 50 344 -17 q 99 236 149 117 q 49 508 49 355 q 84 730 49 631 q 183 899 119 828 q 331 1006 247 969 q 511 1043 415 1043 q 748 979 651 1043 q 895 798 845 915 q 946 525 946 681 q 911 305 946 403 q 813 135 876 206 q 667 25 751 64 q 488 -15 584 -13 m 494 50 q 663 103 590 50 q 776 262 735 156 q 817 525 817 367 q 780 760 817 658 q 672 920 743 863 q 499 978 601 978 q 331 926 403 978 q 218 770 258 874 q 178 508 178 666 q 215 272 178 376 q 322 109 251 169 q 494 50 392 50 m 506 -344 q 428 -330 464 -344 q 372 -285 393 -315 q 351 -215 351 -256 q 375 -124 351 -165 q 435 -51 399 -83 q 506 1 472 -19 l 548 7 l 601 1 q 518 -53 551 -19 q 470 -123 486 -86 q 455 -191 455 -160 q 473 -247 455 -227 q 530 -267 490 -267 q 598 -255 566 -267 q 656 -222 630 -242 l 677 -280 q 611 -325 657 -305 q 506 -344 566 -344 z "},"Ǭ":{"ha":994,"x_min":49,"x_max":946,"o":"m 488 -15 q 247 50 344 -17 q 99 236 149 117 q 49 508 49 355 q 84 730 49 631 q 183 899 119 828 q 331 1006 247 969 q 511 1043 415 1043 q 748 979 651 1043 q 895 798 845 915 q 946 525 946 681 q 911 305 946 403 q 813 135 876 206 q 667 25 751 64 q 488 -15 584 -13 m 494 50 q 663 103 590 50 q 776 262 735 156 q 817 525 817 367 q 780 760 817 658 q 672 920 743 863 q 499 978 601 978 q 331 926 403 978 q 218 770 258 874 q 178 508 178 666 q 215 272 178 376 q 322 109 251 169 q 494 50 392 50 m 506 -344 q 428 -330 464 -344 q 372 -285 393 -315 q 351 -215 351 -256 q 375 -124 351 -165 q 435 -51 399 -83 q 506 1 472 -19 l 548 7 l 601 1 q 518 -53 551 -19 q 470 -123 486 -86 q 455 -191 455 -160 q 473 -247 455 -227 q 530 -267 490 -267 q 598 -255 566 -267 q 656 -222 630 -242 l 677 -280 q 611 -325 657 -305 q 506 -344 566 -344 m 680 1228 l 680 1151 l 315 1151 l 315 1228 l 680 1228 z "},"Ɔ":{"ha":901,"x_min":53,"x_max":851,"o":"m 378 -15 q 272 -8 315 -15 q 197 10 228 0 q 140 28 166 20 q 88 38 115 37 l 53 224 l 121 235 l 176 103 q 219 76 194 88 q 280 58 243 65 q 375 51 317 51 q 529 90 464 51 q 637 196 594 128 q 700 350 679 263 q 721 533 721 437 q 676 775 721 676 q 555 925 631 874 q 385 976 479 976 q 288 970 330 976 q 218 954 246 964 q 178 933 190 944 l 147 772 l 75 772 l 64 999 q 114 1009 83 1002 q 183 1024 144 1017 q 266 1038 222 1032 q 357 1043 310 1043 q 552 1004 462 1043 q 709 893 642 965 q 814 724 776 822 q 851 511 851 627 q 820 293 851 390 q 728 127 789 196 q 580 22 667 58 q 378 -15 492 -15 z "},"Ø":{"ha":994,"x_min":49,"x_max":946,"o":"m 725 1158 l 775 1138 l 268 -137 l 218 -119 l 725 1158 m 488 -15 q 247 50 344 -17 q 99 236 149 117 q 49 508 49 355 q 84 730 49 631 q 183 899 119 828 q 331 1006 247 969 q 511 1043 415 1043 q 748 979 651 1043 q 895 798 845 915 q 946 525 946 681 q 911 305 946 403 q 813 135 876 206 q 667 25 751 64 q 488 -15 584 -13 m 494 50 q 663 103 590 50 q 776 262 735 156 q 817 525 817 367 q 780 760 817 658 q 672 920 743 863 q 499 978 601 978 q 331 926 403 978 q 218 770 258 874 q 178 508 178 666 q 215 272 178 376 q 322 109 251 169 q 494 50 392 50 z "},"Ǿ":{"ha":994,"x_min":49,"x_max":946,"o":"m 725 1158 l 775 1138 l 268 -137 l 218 -119 l 725 1158 m 488 -15 q 247 50 344 -17 q 99 236 149 117 q 49 508 49 355 q 84 730 49 631 q 183 899 119 828 q 331 1006 247 969 q 511 1043 415 1043 q 748 979 651 1043 q 895 798 845 915 q 946 525 946 681 q 911 305 946 403 q 813 135 876 206 q 667 25 751 64 q 488 -15 584 -13 m 494 50 q 663 103 590 50 q 776 262 735 156 q 817 525 817 367 q 780 760 817 658 q 672 920 743 863 q 499 978 601 978 q 331 926 403 978 q 218 770 258 874 q 178 508 178 666 q 215 272 178 376 q 322 109 251 169 q 494 50 392 50 m 494 1111 l 450 1149 l 617 1365 l 711 1289 q 667 1239 694 1266 q 610 1187 641 1213 q 550 1141 580 1161 q 496 1111 520 1121 l 494 1111 z "},"Õ":{"ha":994,"x_min":49,"x_max":946,"o":"m 488 -15 q 247 50 344 -17 q 99 236 149 117 q 49 508 49 355 q 84 730 49 631 q 183 899 119 828 q 331 1006 247 969 q 511 1043 415 1043 q 748 979 651 1043 q 895 798 845 915 q 946 525 946 681 q 911 305 946 403 q 813 135 876 206 q 667 25 751 64 q 488 -15 584 -13 m 494 50 q 663 103 590 50 q 776 262 735 156 q 817 525 817 367 q 780 760 817 658 q 672 920 743 863 q 499 978 601 978 q 331 926 403 978 q 218 770 258 874 q 178 508 178 666 q 215 272 178 376 q 322 109 251 169 q 494 50 392 50 m 575 1125 q 519 1140 541 1125 q 482 1173 497 1154 q 451 1207 466 1192 q 415 1222 435 1222 q 372 1195 387 1222 q 347 1135 356 1169 l 296 1156 q 334 1263 298 1225 q 419 1301 370 1301 q 476 1286 454 1301 q 513 1252 497 1272 q 544 1218 528 1233 q 580 1203 559 1203 q 623 1230 608 1203 q 648 1291 639 1256 l 699 1269 q 660 1163 697 1200 q 575 1125 624 1125 z "},"Ṍ":{"ha":994,"x_min":49,"x_max":946,"o":"m 488 -15 q 247 50 344 -17 q 99 236 149 117 q 49 508 49 355 q 84 730 49 631 q 183 899 119 828 q 331 1006 247 969 q 511 1043 415 1043 q 748 979 651 1043 q 895 798 845 915 q 946 525 946 681 q 911 305 946 403 q 813 135 876 206 q 667 25 751 64 q 488 -15 584 -13 m 494 50 q 663 103 590 50 q 776 262 735 156 q 817 525 817 367 q 780 760 817 658 q 672 920 743 863 q 499 978 601 978 q 331 926 403 978 q 218 770 258 874 q 178 508 178 666 q 215 272 178 376 q 322 109 251 169 q 494 50 392 50 m 575 1125 q 519 1140 541 1125 q 482 1173 497 1154 q 451 1207 466 1192 q 415 1222 435 1222 q 372 1195 387 1222 q 347 1135 356 1169 l 296 1156 q 334 1263 298 1225 q 419 1301 370 1301 q 476 1286 454 1301 q 513 1252 497 1272 q 544 1218 528 1233 q 580 1203 559 1203 q 623 1230 608 1203 q 648 1291 639 1256 l 699 1269 q 660 1163 697 1200 q 575 1125 624 1125 m 494 1346 l 450 1383 l 617 1600 l 711 1524 q 667 1474 694 1501 q 610 1422 641 1447 q 550 1376 580 1396 q 496 1346 520 1356 l 494 1346 z "},"Ṏ":{"ha":994,"x_min":49,"x_max":946,"o":"m 488 -15 q 247 50 344 -17 q 99 236 149 117 q 49 508 49 355 q 84 730 49 631 q 183 899 119 828 q 331 1006 247 969 q 511 1043 415 1043 q 748 979 651 1043 q 895 798 845 915 q 946 525 946 681 q 911 305 946 403 q 813 135 876 206 q 667 25 751 64 q 488 -15 584 -13 m 494 50 q 663 103 590 50 q 776 262 735 156 q 817 525 817 367 q 780 760 817 658 q 672 920 743 863 q 499 978 601 978 q 331 926 403 978 q 218 770 258 874 q 178 508 178 666 q 215 272 178 376 q 322 109 251 169 q 494 50 392 50 m 575 1125 q 519 1140 541 1125 q 482 1173 497 1154 q 451 1207 466 1192 q 415 1222 435 1222 q 372 1195 387 1222 q 347 1135 356 1169 l 296 1156 q 334 1263 298 1225 q 419 1301 370 1301 q 476 1286 454 1301 q 513 1252 497 1272 q 544 1218 528 1233 q 580 1203 559 1203 q 623 1230 608 1203 q 648 1291 639 1256 l 699 1269 q 660 1163 697 1200 q 575 1125 624 1125 m 372 1368 q 325 1391 343 1368 q 307 1448 307 1414 q 327 1510 307 1482 q 382 1539 347 1539 l 383 1539 q 431 1516 413 1539 q 449 1459 449 1493 q 429 1397 449 1425 q 374 1368 409 1368 l 372 1368 m 613 1368 q 565 1391 583 1368 q 547 1448 547 1414 q 567 1510 547 1482 q 622 1539 587 1539 l 624 1539 q 671 1516 653 1539 q 689 1459 689 1493 q 669 1397 689 1425 q 614 1368 649 1368 l 613 1368 z "},"Ȭ":{"ha":994,"x_min":49,"x_max":946,"o":"m 488 -15 q 247 50 344 -17 q 99 236 149 117 q 49 508 49 355 q 84 730 49 631 q 183 899 119 828 q 331 1006 247 969 q 511 1043 415 1043 q 748 979 651 1043 q 895 798 845 915 q 946 525 946 681 q 911 305 946 403 q 813 135 876 206 q 667 25 751 64 q 488 -15 584 -13 m 494 50 q 663 103 590 50 q 776 262 735 156 q 817 525 817 367 q 780 760 817 658 q 672 920 743 863 q 499 978 601 978 q 331 926 403 978 q 218 770 258 874 q 178 508 178 666 q 215 272 178 376 q 322 109 251 169 q 494 50 392 50 m 575 1125 q 519 1140 541 1125 q 482 1173 497 1154 q 451 1207 466 1192 q 415 1222 435 1222 q 372 1195 387 1222 q 347 1135 356 1169 l 296 1156 q 334 1263 298 1225 q 419 1301 370 1301 q 476 1286 454 1301 q 513 1252 497 1272 q 544 1218 528 1233 q 580 1203 559 1203 q 623 1230 608 1203 q 648 1291 639 1256 l 699 1269 q 660 1163 697 1200 q 575 1125 624 1125 m 680 1463 l 680 1386 l 315 1386 l 315 1463 l 680 1463 z "},"Œ":{"ha":1385,"x_min":49,"x_max":1374,"o":"m 699 44 q 600 4 652 19 q 492 -11 548 -11 q 252 54 351 -11 q 101 237 153 119 q 49 510 49 354 q 85 731 49 633 q 184 900 121 830 q 332 1008 248 970 q 513 1049 416 1047 q 580 1045 547 1049 q 642 1033 612 1042 q 699 1011 672 1024 l 699 1032 l 1269 1032 l 1288 828 l 1223 828 l 1185 961 l 812 967 l 812 565 l 1068 569 l 1087 683 l 1156 683 l 1156 376 l 1087 376 l 1068 496 l 812 500 l 812 70 l 1238 82 l 1309 256 l 1374 235 l 1331 0 l 699 0 l 699 44 m 500 54 q 559 59 531 54 q 613 75 588 65 q 659 99 638 85 q 699 133 681 114 l 699 915 q 649 952 677 936 q 585 976 621 967 q 503 985 549 985 q 329 930 403 985 q 214 768 255 874 q 172 510 172 663 q 210 281 172 385 q 322 116 249 178 q 500 54 395 54 z "},"P":{"ha":872,"x_min":55,"x_max":833,"o":"m 174 72 l 174 957 l 63 972 l 63 1032 l 231 1032 q 309 1034 277 1032 q 377 1039 341 1037 q 474 1042 414 1042 q 689 1007 610 1042 q 800 907 767 972 q 833 750 833 842 q 780 558 833 638 q 636 436 726 478 q 435 394 546 394 q 376 395 408 394 q 319 397 344 396 q 288 400 294 399 l 288 74 l 481 60 l 481 0 l 55 0 l 55 60 l 174 72 m 288 468 q 347 464 308 465 q 438 463 386 463 q 570 489 508 463 q 672 577 633 515 q 710 750 710 640 q 681 882 710 833 q 591 953 651 931 q 440 975 531 975 q 379 973 406 975 q 330 969 352 971 q 288 967 308 967 l 288 468 z "},"Ṕ":{"ha":872,"x_min":55,"x_max":833,"o":"m 174 72 l 174 957 l 63 972 l 63 1032 l 231 1032 q 309 1034 277 1032 q 377 1039 341 1037 q 474 1042 414 1042 q 689 1007 610 1042 q 800 907 767 972 q 833 750 833 842 q 780 558 833 638 q 636 436 726 478 q 435 394 546 394 q 376 395 408 394 q 319 397 344 396 q 288 400 294 399 l 288 74 l 481 60 l 481 0 l 55 0 l 55 60 l 174 72 m 288 468 q 347 464 308 465 q 438 463 386 463 q 570 489 508 463 q 672 577 633 515 q 710 750 710 640 q 681 882 710 833 q 591 953 651 931 q 440 975 531 975 q 379 973 406 975 q 330 969 352 971 q 288 967 308 967 l 288 468 m 433 1111 l 389 1149 l 556 1365 l 650 1289 q 606 1239 633 1266 q 549 1187 580 1213 q 489 1141 519 1161 q 435 1111 459 1121 l 433 1111 z "},"Ṗ":{"ha":872,"x_min":55,"x_max":833,"o":"m 174 72 l 174 957 l 63 972 l 63 1032 l 231 1032 q 309 1034 277 1032 q 377 1039 341 1037 q 474 1042 414 1042 q 689 1007 610 1042 q 800 907 767 972 q 833 750 833 842 q 780 558 833 638 q 636 436 726 478 q 435 394 546 394 q 376 395 408 394 q 319 397 344 396 q 288 400 294 399 l 288 74 l 481 60 l 481 0 l 55 0 l 55 60 l 174 72 m 288 468 q 347 464 308 465 q 438 463 386 463 q 570 489 508 463 q 672 577 633 515 q 710 750 710 640 q 681 882 710 833 q 591 953 651 931 q 440 975 531 975 q 379 973 406 975 q 330 969 352 971 q 288 967 308 967 l 288 468 m 431 1133 q 373 1156 392 1133 q 353 1213 353 1179 q 375 1276 353 1247 q 440 1304 396 1304 l 442 1304 q 499 1281 480 1304 q 519 1224 519 1258 q 498 1162 519 1190 q 432 1133 476 1133 l 431 1133 z "},"Ƥ":{"ha":1066,"x_min":49,"x_max":1027,"o":"m 249 0 l 249 60 l 369 72 l 369 992 l 353 1013 l 369 1032 l 426 1032 q 503 1034 472 1032 q 572 1039 535 1037 q 669 1042 608 1042 q 883 1007 805 1042 q 994 907 961 972 q 1027 750 1027 842 q 974 558 1027 638 q 830 436 920 478 q 630 394 740 394 q 571 395 603 394 q 514 397 539 396 q 483 400 489 399 l 483 74 l 676 60 l 676 0 l 249 0 m 633 463 q 765 489 703 463 q 866 577 827 515 q 905 750 905 640 q 875 882 905 833 q 786 953 846 931 q 634 975 726 975 q 574 973 601 975 q 524 969 547 971 q 483 967 502 967 l 483 468 q 542 464 503 465 q 633 463 581 463 m 57 685 q 51 715 53 694 q 49 769 49 735 q 65 868 49 819 q 118 954 81 916 q 216 1014 154 992 q 371 1032 278 1035 l 385 993 l 371 957 q 245 943 294 960 q 173 891 196 926 q 150 804 150 856 q 156 756 150 789 q 173 685 162 724 l 57 685 z "},"Þ":{"ha":867,"x_min":55,"x_max":824,"o":"m 173 72 l 173 958 l 58 974 l 58 1032 l 410 1032 l 410 974 l 285 958 l 285 800 q 339 805 312 802 q 393 809 365 807 q 449 813 421 811 q 506 814 478 814 q 677 784 606 814 q 786 693 748 753 q 824 542 824 633 q 780 370 824 438 q 654 270 735 303 q 460 238 572 238 q 390 238 421 238 q 333 240 358 239 q 285 243 308 241 l 285 72 l 437 58 l 437 0 l 55 0 l 55 58 l 173 72 m 456 300 q 580 322 525 300 q 666 396 634 344 q 698 535 698 447 q 672 652 698 603 q 591 725 647 700 q 448 747 536 749 q 359 742 401 747 q 285 733 317 738 l 285 306 q 374 300 331 301 q 456 300 418 300 z "},"Ᵽ":{"ha":872,"x_min":55,"x_max":833,"o":"m 174 72 l 174 957 l 63 972 l 63 1032 l 231 1032 q 309 1034 277 1032 q 377 1039 341 1037 q 474 1042 414 1042 q 689 1007 610 1042 q 800 907 767 972 q 833 750 833 842 q 780 558 833 638 q 636 436 726 478 q 435 394 546 394 q 376 395 408 394 q 319 397 344 396 q 288 400 294 399 l 288 74 l 481 60 l 481 0 l 55 0 l 55 60 l 174 72 m 288 468 q 347 464 308 465 q 438 463 386 463 q 570 489 508 463 q 672 577 633 515 q 710 750 710 640 q 681 882 710 833 q 591 953 651 931 q 440 975 531 975 q 379 973 406 975 q 330 969 352 971 q 288 967 308 967 l 288 468 m 72 683 l 72 756 l 518 756 l 518 683 l 72 683 z "},"Q":{"ha":994,"x_min":49,"x_max":1067,"o":"m 953 -253 q 850 -230 894 -253 q 771 -172 806 -207 q 702 -100 735 -137 q 631 -35 669 -63 q 543 3 592 -6 l 626 29 q 725 5 683 25 q 799 -42 766 -15 q 864 -95 832 -69 q 934 -138 897 -121 q 1021 -156 971 -156 q 1039 -155 1033 -156 q 1053 -154 1046 -154 l 1067 -211 q 1012 -242 1044 -232 q 953 -253 980 -253 m 488 -15 q 247 50 344 -17 q 99 236 149 117 q 49 508 49 355 q 84 730 49 631 q 183 899 119 828 q 331 1006 247 969 q 511 1043 415 1043 q 748 979 651 1043 q 895 798 845 915 q 946 525 946 681 q 911 305 946 403 q 813 135 876 206 q 667 25 751 64 q 488 -15 584 -13 m 494 50 q 663 103 590 50 q 776 262 735 156 q 817 525 817 367 q 780 760 817 658 q 672 920 743 863 q 499 978 601 978 q 331 926 403 978 q 218 770 258 874 q 178 508 178 666 q 215 272 178 376 q 322 109 251 169 q 494 50 392 50 z "},"Ɋ":{"ha":1013,"x_min":49,"x_max":1083,"o":"m 1015 -337 q 911 -313 961 -337 q 822 -245 861 -288 q 759 -148 782 -203 q 735 -33 735 -93 l 735 81 q 663 32 703 53 q 577 -3 622 10 q 484 -15 532 -15 q 303 20 384 -15 q 166 124 223 56 q 79 289 109 192 q 49 510 49 386 q 83 726 49 628 q 182 896 117 824 q 337 1007 246 967 q 540 1046 428 1046 q 660 1033 608 1046 q 744 999 713 1021 l 767 1032 l 853 1032 l 853 -39 q 881 -181 853 -123 q 976 -240 909 -240 q 1045 -231 1017 -240 q 1083 -215 1074 -222 l 1083 -326 q 1058 -334 1073 -331 q 1015 -337 1043 -337 m 477 50 q 569 62 524 50 q 655 102 614 74 q 731 181 697 131 l 731 906 q 683 948 710 931 q 620 975 656 965 q 539 985 584 985 q 388 954 456 985 q 273 863 321 923 q 200 714 226 802 q 174 511 174 626 q 210 261 173 365 q 316 104 247 158 q 477 50 384 50 z "},"R":{"ha":948,"x_min":55,"x_max":935,"o":"m 55 0 l 55 60 l 174 72 l 174 958 l 63 975 l 63 1032 l 233 1032 q 324 1035 283 1032 q 397 1040 365 1038 q 455 1043 430 1043 q 663 1011 585 1043 q 773 918 740 978 q 806 771 806 857 q 782 646 806 706 q 710 541 757 586 q 598 476 664 497 q 650 426 624 460 q 702 347 676 392 q 752 257 728 303 q 798 170 776 210 q 840 104 820 130 q 877 74 860 78 l 935 58 l 935 0 l 784 0 q 745 30 767 0 q 699 107 724 59 q 648 210 674 155 q 593 317 621 265 q 538 407 565 369 q 484 458 510 446 q 440 458 468 458 q 380 458 411 458 q 323 459 349 458 q 288 460 298 459 l 288 72 l 431 60 l 431 0 l 55 0 m 476 526 q 585 552 538 526 q 659 630 632 578 q 685 761 685 682 q 663 871 685 823 q 584 947 640 919 q 427 975 528 975 q 385 974 408 975 q 337 970 362 972 q 288 967 313 968 l 288 528 q 350 526 313 526 q 424 526 388 526 q 476 526 459 526 z "},"Ŕ":{"ha":948,"x_min":55,"x_max":935,"o":"m 55 0 l 55 60 l 174 72 l 174 958 l 63 975 l 63 1032 l 233 1032 q 324 1035 283 1032 q 397 1040 365 1038 q 455 1043 430 1043 q 663 1011 585 1043 q 773 918 740 978 q 806 771 806 857 q 782 646 806 706 q 710 541 757 586 q 598 476 664 497 q 650 426 624 460 q 702 347 676 392 q 752 257 728 303 q 798 170 776 210 q 840 104 820 130 q 877 74 860 78 l 935 58 l 935 0 l 784 0 q 745 30 767 0 q 699 107 724 59 q 648 210 674 155 q 593 317 621 265 q 538 407 565 369 q 484 458 510 446 q 440 458 468 458 q 380 458 411 458 q 323 459 349 458 q 288 460 298 459 l 288 72 l 431 60 l 431 0 l 55 0 m 476 526 q 585 552 538 526 q 659 630 632 578 q 685 761 685 682 q 663 871 685 823 q 584 947 640 919 q 427 975 528 975 q 385 974 408 975 q 337 970 362 972 q 288 967 313 968 l 288 528 q 350 526 313 526 q 424 526 388 526 q 476 526 459 526 m 451 1111 l 406 1149 l 573 1365 l 667 1289 q 624 1239 650 1266 q 567 1187 597 1213 q 506 1141 536 1161 q 452 1111 476 1121 l 451 1111 z "},"Ř":{"ha":948,"x_min":55,"x_max":935,"o":"m 55 0 l 55 60 l 174 72 l 174 958 l 63 975 l 63 1032 l 233 1032 q 324 1035 283 1032 q 397 1040 365 1038 q 455 1043 430 1043 q 663 1011 585 1043 q 773 918 740 978 q 806 771 806 857 q 782 646 806 706 q 710 541 757 586 q 598 476 664 497 q 650 426 624 460 q 702 347 676 392 q 752 257 728 303 q 798 170 776 210 q 840 104 820 130 q 877 74 860 78 l 935 58 l 935 0 l 784 0 q 745 30 767 0 q 699 107 724 59 q 648 210 674 155 q 593 317 621 265 q 538 407 565 369 q 484 458 510 446 q 440 458 468 458 q 380 458 411 458 q 323 459 349 458 q 288 460 298 459 l 288 72 l 431 60 l 431 0 l 55 0 m 476 526 q 585 552 538 526 q 659 630 632 578 q 685 761 685 682 q 663 871 685 823 q 584 947 640 919 q 427 975 528 975 q 385 974 408 975 q 337 970 362 972 q 288 967 313 968 l 288 528 q 350 526 313 526 q 424 526 388 526 q 476 526 459 526 m 394 1122 l 226 1308 l 272 1342 l 453 1203 l 635 1342 l 681 1308 l 513 1122 l 394 1122 z "},"Ŗ":{"ha":948,"x_min":55,"x_max":935,"o":"m 55 0 l 55 60 l 174 72 l 174 958 l 63 975 l 63 1032 l 233 1032 q 324 1035 283 1032 q 397 1040 365 1038 q 455 1043 430 1043 q 663 1011 585 1043 q 773 918 740 978 q 806 771 806 857 q 782 646 806 706 q 710 541 757 586 q 598 476 664 497 q 650 426 624 460 q 702 347 676 392 q 752 257 728 303 q 798 170 776 210 q 840 104 820 130 q 877 74 860 78 l 935 58 l 935 0 l 784 0 q 745 30 767 0 q 699 107 724 59 q 648 210 674 155 q 593 317 621 265 q 538 407 565 369 q 484 458 510 446 q 440 458 468 458 q 380 458 411 458 q 323 459 349 458 q 288 460 298 459 l 288 72 l 431 60 l 431 0 l 55 0 m 476 526 q 585 552 538 526 q 659 630 632 578 q 685 761 685 682 q 663 871 685 823 q 584 947 640 919 q 427 975 528 975 q 385 974 408 975 q 337 970 362 972 q 288 967 313 968 l 288 528 q 350 526 313 526 q 424 526 388 526 q 476 526 459 526 m 550 -200 q 527 -287 550 -249 q 479 -347 504 -325 q 446 -372 453 -369 l 444 -372 l 407 -346 l 407 -337 q 441 -300 428 -327 q 454 -251 454 -273 q 445 -219 454 -231 q 425 -201 435 -208 q 407 -183 415 -194 q 399 -150 399 -172 q 410 -111 399 -124 q 438 -93 422 -98 q 463 -89 453 -89 l 465 -89 q 527 -117 504 -89 q 550 -200 550 -146 z "},"Ȑ":{"ha":948,"x_min":55,"x_max":935,"o":"m 55 0 l 55 60 l 174 72 l 174 958 l 63 975 l 63 1032 l 233 1032 q 324 1035 283 1032 q 397 1040 365 1038 q 455 1043 430 1043 q 663 1011 585 1043 q 773 918 740 978 q 806 771 806 857 q 782 646 806 706 q 710 541 757 586 q 598 476 664 497 q 650 426 624 460 q 702 347 676 392 q 752 257 728 303 q 798 170 776 210 q 840 104 820 130 q 877 74 860 78 l 935 58 l 935 0 l 784 0 q 745 30 767 0 q 699 107 724 59 q 648 210 674 155 q 593 317 621 265 q 538 407 565 369 q 484 458 510 446 q 440 458 468 458 q 380 458 411 458 q 323 459 349 458 q 288 460 298 459 l 288 72 l 431 60 l 431 0 l 55 0 m 476 526 q 585 552 538 526 q 659 630 632 578 q 685 761 685 682 q 663 871 685 823 q 584 947 640 919 q 427 975 528 975 q 385 974 408 975 q 337 970 362 972 q 288 967 313 968 l 288 528 q 350 526 313 526 q 424 526 388 526 q 476 526 459 526 m 340 1114 q 288 1149 316 1128 q 230 1195 259 1170 q 173 1248 200 1221 q 125 1303 146 1276 l 205 1368 l 386 1157 l 341 1114 l 340 1114 m 592 1114 q 525 1164 561 1133 q 454 1230 489 1194 q 392 1303 419 1267 l 472 1368 l 638 1151 l 594 1114 l 592 1114 z "},"Ṙ":{"ha":948,"x_min":55,"x_max":935,"o":"m 55 0 l 55 60 l 174 72 l 174 958 l 63 975 l 63 1032 l 233 1032 q 324 1035 283 1032 q 397 1040 365 1038 q 455 1043 430 1043 q 663 1011 585 1043 q 773 918 740 978 q 806 771 806 857 q 782 646 806 706 q 710 541 757 586 q 598 476 664 497 q 650 426 624 460 q 702 347 676 392 q 752 257 728 303 q 798 170 776 210 q 840 104 820 130 q 877 74 860 78 l 935 58 l 935 0 l 784 0 q 745 30 767 0 q 699 107 724 59 q 648 210 674 155 q 593 317 621 265 q 538 407 565 369 q 484 458 510 446 q 440 458 468 458 q 380 458 411 458 q 323 459 349 458 q 288 460 298 459 l 288 72 l 431 60 l 431 0 l 55 0 m 476 526 q 585 552 538 526 q 659 630 632 578 q 685 761 685 682 q 663 871 685 823 q 584 947 640 919 q 427 975 528 975 q 385 974 408 975 q 337 970 362 972 q 288 967 313 968 l 288 528 q 350 526 313 526 q 424 526 388 526 q 476 526 459 526 m 448 1133 q 390 1156 410 1133 q 371 1213 371 1179 q 392 1276 371 1247 q 458 1304 413 1304 l 459 1304 q 517 1281 497 1304 q 536 1224 536 1258 q 515 1162 536 1190 q 449 1133 494 1133 l 448 1133 z "},"Ṛ":{"ha":948,"x_min":55,"x_max":935,"o":"m 55 0 l 55 60 l 174 72 l 174 958 l 63 975 l 63 1032 l 233 1032 q 324 1035 283 1032 q 397 1040 365 1038 q 455 1043 430 1043 q 663 1011 585 1043 q 773 918 740 978 q 806 771 806 857 q 782 646 806 706 q 710 541 757 586 q 598 476 664 497 q 650 426 624 460 q 702 347 676 392 q 752 257 728 303 q 798 170 776 210 q 840 104 820 130 q 877 74 860 78 l 935 58 l 935 0 l 784 0 q 745 30 767 0 q 699 107 724 59 q 648 210 674 155 q 593 317 621 265 q 538 407 565 369 q 484 458 510 446 q 440 458 468 458 q 380 458 411 458 q 323 459 349 458 q 288 460 298 459 l 288 72 l 431 60 l 431 0 l 55 0 m 476 526 q 585 552 538 526 q 659 630 632 578 q 685 761 685 682 q 663 871 685 823 q 584 947 640 919 q 427 975 528 975 q 385 974 408 975 q 337 970 362 972 q 288 967 313 968 l 288 528 q 350 526 313 526 q 424 526 388 526 q 476 526 459 526 m 463 -274 q 406 -251 426 -274 q 387 -194 387 -228 q 408 -131 387 -160 q 472 -103 429 -103 l 474 -103 q 530 -126 510 -103 q 549 -183 549 -149 q 528 -245 549 -217 q 464 -274 507 -274 l 463 -274 z "},"Ṝ":{"ha":948,"x_min":55,"x_max":935,"o":"m 55 0 l 55 60 l 174 72 l 174 958 l 63 975 l 63 1032 l 233 1032 q 324 1035 283 1032 q 397 1040 365 1038 q 455 1043 430 1043 q 663 1011 585 1043 q 773 918 740 978 q 806 771 806 857 q 782 646 806 706 q 710 541 757 586 q 598 476 664 497 q 650 426 624 460 q 702 347 676 392 q 752 257 728 303 q 798 170 776 210 q 840 104 820 130 q 877 74 860 78 l 935 58 l 935 0 l 784 0 q 745 30 767 0 q 699 107 724 59 q 648 210 674 155 q 593 317 621 265 q 538 407 565 369 q 484 458 510 446 q 440 458 468 458 q 380 458 411 458 q 323 459 349 458 q 288 460 298 459 l 288 72 l 431 60 l 431 0 l 55 0 m 476 526 q 585 552 538 526 q 659 630 632 578 q 685 761 685 682 q 663 871 685 823 q 584 947 640 919 q 427 975 528 975 q 385 974 408 975 q 337 970 362 972 q 288 967 313 968 l 288 528 q 350 526 313 526 q 424 526 388 526 q 476 526 459 526 m 463 -274 q 406 -251 426 -274 q 387 -194 387 -228 q 408 -131 387 -160 q 472 -103 429 -103 l 474 -103 q 530 -126 510 -103 q 549 -183 549 -149 q 528 -245 549 -217 q 464 -274 507 -274 l 463 -274 m 636 1228 l 636 1151 l 271 1151 l 271 1228 l 636 1228 z "},"Ȓ":{"ha":948,"x_min":55,"x_max":935,"o":"m 55 0 l 55 60 l 174 72 l 174 958 l 63 975 l 63 1032 l 233 1032 q 324 1035 283 1032 q 397 1040 365 1038 q 455 1043 430 1043 q 663 1011 585 1043 q 773 918 740 978 q 806 771 806 857 q 782 646 806 706 q 710 541 757 586 q 598 476 664 497 q 650 426 624 460 q 702 347 676 392 q 752 257 728 303 q 798 170 776 210 q 840 104 820 130 q 877 74 860 78 l 935 58 l 935 0 l 784 0 q 745 30 767 0 q 699 107 724 59 q 648 210 674 155 q 593 317 621 265 q 538 407 565 369 q 484 458 510 446 q 440 458 468 458 q 380 458 411 458 q 323 459 349 458 q 288 460 298 459 l 288 72 l 431 60 l 431 0 l 55 0 m 476 526 q 585 552 538 526 q 659 630 632 578 q 685 761 685 682 q 663 871 685 823 q 584 947 640 919 q 427 975 528 975 q 385 974 408 975 q 337 970 362 972 q 288 967 313 968 l 288 528 q 350 526 313 526 q 424 526 388 526 q 476 526 459 526 m 453 1350 q 567 1326 519 1350 q 641 1260 615 1303 q 667 1161 667 1217 q 666 1146 667 1154 q 664 1129 665 1138 l 601 1129 q 601 1140 601 1133 q 600 1153 601 1146 q 583 1202 597 1178 q 538 1242 569 1226 q 453 1258 507 1258 q 369 1242 400 1258 q 325 1202 339 1226 q 307 1153 310 1178 q 306 1140 306 1146 q 306 1129 306 1133 l 243 1129 q 241 1146 242 1138 q 240 1161 240 1154 q 266 1260 240 1217 q 340 1326 292 1303 q 453 1350 388 1350 z "},"Ṟ":{"ha":948,"x_min":55,"x_max":935,"o":"m 55 0 l 55 60 l 174 72 l 174 958 l 63 975 l 63 1032 l 233 1032 q 324 1035 283 1032 q 397 1040 365 1038 q 455 1043 430 1043 q 663 1011 585 1043 q 773 918 740 978 q 806 771 806 857 q 782 646 806 706 q 710 541 757 586 q 598 476 664 497 q 650 426 624 460 q 702 347 676 392 q 752 257 728 303 q 798 170 776 210 q 840 104 820 130 q 877 74 860 78 l 935 58 l 935 0 l 784 0 q 745 30 767 0 q 699 107 724 59 q 648 210 674 155 q 593 317 621 265 q 538 407 565 369 q 484 458 510 446 q 440 458 468 458 q 380 458 411 458 q 323 459 349 458 q 288 460 298 459 l 288 72 l 431 60 l 431 0 l 55 0 m 476 526 q 585 552 538 526 q 659 630 632 578 q 685 761 685 682 q 663 871 685 823 q 584 947 640 919 q 427 975 528 975 q 385 974 408 975 q 337 970 362 972 q 288 967 313 968 l 288 528 q 350 526 313 526 q 424 526 388 526 q 476 526 459 526 m 672 -136 l 672 -221 l 277 -221 l 277 -136 l 672 -136 z "},"Ɍ":{"ha":948,"x_min":51,"x_max":935,"o":"m 55 0 l 55 60 l 174 72 l 174 958 l 63 975 l 63 1032 l 233 1032 q 324 1035 283 1032 q 397 1040 365 1038 q 455 1043 430 1043 q 663 1011 585 1043 q 773 918 740 978 q 806 771 806 857 q 782 646 806 706 q 710 541 757 586 q 598 476 664 497 q 650 426 624 460 q 702 347 676 392 q 752 257 728 303 q 798 170 776 210 q 840 104 820 130 q 877 74 860 78 l 935 58 l 935 0 l 784 0 q 745 30 767 0 q 699 107 724 59 q 648 210 674 155 q 593 317 621 265 q 538 407 565 369 q 484 458 510 446 l 51 458 l 51 526 l 476 526 q 585 552 538 526 q 659 630 632 578 q 685 761 685 682 q 663 871 685 823 q 584 947 640 919 q 427 975 528 975 q 385 974 408 975 q 337 970 362 972 q 288 967 313 968 l 288 72 l 431 60 l 431 0 l 55 0 z "},"Ɽ":{"ha":940,"x_min":55,"x_max":927,"o":"m 427 -349 q 301 -319 360 -349 q 203 -224 241 -290 q 166 -45 166 -158 l 166 958 l 55 975 l 55 1032 l 224 1032 q 315 1035 274 1032 q 389 1040 356 1038 q 447 1043 422 1043 q 654 1011 577 1043 q 765 918 731 978 q 798 771 798 857 q 773 646 798 706 q 702 542 749 586 q 590 478 656 497 q 642 427 616 462 q 694 348 668 392 q 743 257 719 303 q 790 170 767 210 q 832 104 812 130 q 869 74 852 78 l 927 58 l 927 0 l 776 0 q 737 30 758 0 q 691 107 715 59 q 639 210 666 155 q 585 317 613 265 q 530 407 557 369 q 476 458 502 446 q 431 458 460 458 q 372 458 403 458 q 315 459 340 458 q 280 460 290 459 l 280 -113 q 290 -199 280 -169 q 324 -240 301 -228 q 388 -251 348 -251 q 458 -242 429 -251 q 495 -226 486 -233 l 495 -337 q 470 -345 485 -342 q 427 -349 456 -349 m 467 526 q 576 552 529 526 q 650 630 624 578 q 677 761 677 682 q 655 871 677 823 q 576 947 632 919 q 419 975 519 975 q 376 974 399 975 q 329 970 353 972 q 280 967 304 968 l 280 528 q 342 526 304 526 q 415 526 380 526 q 467 526 451 526 z "},"S":{"ha":817,"x_min":97,"x_max":757,"o":"m 397 -15 q 262 0 322 -15 q 160 31 202 15 q 97 49 118 47 l 108 296 l 180 296 l 201 114 q 248 85 217 99 q 319 62 278 71 q 404 53 360 53 q 539 76 488 53 q 613 143 590 100 q 636 246 636 187 q 603 348 636 307 q 514 419 570 389 q 388 478 458 449 q 295 520 344 496 q 204 581 247 545 q 134 665 161 616 q 108 782 108 715 q 148 918 108 860 q 263 1010 189 977 q 435 1043 336 1043 q 523 1036 482 1043 q 598 1021 564 1030 q 657 1004 632 1012 q 698 993 683 996 l 690 765 l 620 765 l 595 938 q 561 955 585 946 q 502 971 537 965 q 428 978 468 978 q 311 959 358 978 q 241 903 264 941 q 217 810 217 866 q 248 708 217 747 q 333 641 278 669 q 460 579 388 613 q 563 528 511 556 q 659 467 615 501 q 730 385 703 432 q 757 276 757 339 q 735 171 757 223 q 668 77 713 119 q 556 10 624 35 q 397 -15 488 -15 z "},"Ś":{"ha":817,"x_min":97,"x_max":757,"o":"m 397 -15 q 262 0 322 -15 q 160 31 202 15 q 97 49 118 47 l 108 296 l 180 296 l 201 114 q 248 85 217 99 q 319 62 278 71 q 404 53 360 53 q 539 76 488 53 q 613 143 590 100 q 636 246 636 187 q 603 348 636 307 q 514 419 570 389 q 388 478 458 449 q 295 520 344 496 q 204 581 247 545 q 134 665 161 616 q 108 782 108 715 q 148 918 108 860 q 263 1010 189 977 q 435 1043 336 1043 q 523 1036 482 1043 q 598 1021 564 1030 q 657 1004 632 1012 q 698 993 683 996 l 690 765 l 620 765 l 595 938 q 561 955 585 946 q 502 971 537 965 q 428 978 468 978 q 311 959 358 978 q 241 903 264 941 q 217 810 217 866 q 248 708 217 747 q 333 641 278 669 q 460 579 388 613 q 563 528 511 556 q 659 467 615 501 q 730 385 703 432 q 757 276 757 339 q 735 171 757 223 q 668 77 713 119 q 556 10 624 35 q 397 -15 488 -15 m 406 1111 l 361 1149 l 528 1365 l 622 1289 q 578 1239 605 1266 q 522 1187 552 1213 q 461 1141 491 1161 q 407 1111 431 1121 l 406 1111 z "},"Ṥ":{"ha":817,"x_min":97,"x_max":757,"o":"m 397 -15 q 262 0 322 -15 q 160 31 202 15 q 97 49 118 47 l 108 296 l 180 296 l 201 114 q 248 85 217 99 q 319 62 278 71 q 404 53 360 53 q 539 76 488 53 q 613 143 590 100 q 636 246 636 187 q 603 348 636 307 q 514 419 570 389 q 388 478 458 449 q 295 520 344 496 q 204 581 247 545 q 134 665 161 616 q 108 782 108 715 q 148 918 108 860 q 263 1010 189 977 q 435 1043 336 1043 q 523 1036 482 1043 q 598 1021 564 1030 q 657 1004 632 1012 q 698 993 683 996 l 690 765 l 620 765 l 595 938 q 561 955 585 946 q 502 971 537 965 q 428 978 468 978 q 311 959 358 978 q 241 903 264 941 q 217 810 217 866 q 248 708 217 747 q 333 641 278 669 q 460 579 388 613 q 563 528 511 556 q 659 467 615 501 q 730 385 703 432 q 757 276 757 339 q 735 171 757 223 q 668 77 713 119 q 556 10 624 35 q 397 -15 488 -15 m 406 1111 l 361 1149 l 528 1365 l 622 1289 q 578 1239 605 1266 q 522 1187 552 1213 q 461 1141 491 1161 q 407 1111 431 1121 l 406 1111 m 438 1408 q 381 1431 400 1408 q 361 1488 361 1453 q 382 1550 361 1522 q 448 1578 403 1578 l 449 1578 q 507 1556 488 1578 q 526 1499 526 1533 q 505 1436 526 1465 q 440 1408 484 1408 l 438 1408 z "},"Š":{"ha":817,"x_min":97,"x_max":757,"o":"m 397 -15 q 262 0 322 -15 q 160 31 202 15 q 97 49 118 47 l 108 296 l 180 296 l 201 114 q 248 85 217 99 q 319 62 278 71 q 404 53 360 53 q 539 76 488 53 q 613 143 590 100 q 636 246 636 187 q 603 348 636 307 q 514 419 570 389 q 388 478 458 449 q 295 520 344 496 q 204 581 247 545 q 134 665 161 616 q 108 782 108 715 q 148 918 108 860 q 263 1010 189 977 q 435 1043 336 1043 q 523 1036 482 1043 q 598 1021 564 1030 q 657 1004 632 1012 q 698 993 683 996 l 690 765 l 620 765 l 595 938 q 561 955 585 946 q 502 971 537 965 q 428 978 468 978 q 311 959 358 978 q 241 903 264 941 q 217 810 217 866 q 248 708 217 747 q 333 641 278 669 q 460 579 388 613 q 563 528 511 556 q 659 467 615 501 q 730 385 703 432 q 757 276 757 339 q 735 171 757 223 q 668 77 713 119 q 556 10 624 35 q 397 -15 488 -15 m 349 1122 l 181 1308 l 226 1342 l 408 1203 l 590 1342 l 636 1308 l 467 1122 l 349 1122 z "},"Ṧ":{"ha":817,"x_min":97,"x_max":757,"o":"m 397 -15 q 262 0 322 -15 q 160 31 202 15 q 97 49 118 47 l 108 296 l 180 296 l 201 114 q 248 85 217 99 q 319 62 278 71 q 404 53 360 53 q 539 76 488 53 q 613 143 590 100 q 636 246 636 187 q 603 348 636 307 q 514 419 570 389 q 388 478 458 449 q 295 520 344 496 q 204 581 247 545 q 134 665 161 616 q 108 782 108 715 q 148 918 108 860 q 263 1010 189 977 q 435 1043 336 1043 q 523 1036 482 1043 q 598 1021 564 1030 q 657 1004 632 1012 q 698 993 683 996 l 690 765 l 620 765 l 595 938 q 561 955 585 946 q 502 971 537 965 q 428 978 468 978 q 311 959 358 978 q 241 903 264 941 q 217 810 217 866 q 248 708 217 747 q 333 641 278 669 q 460 579 388 613 q 563 528 511 556 q 659 467 615 501 q 730 385 703 432 q 757 276 757 339 q 735 171 757 223 q 668 77 713 119 q 556 10 624 35 q 397 -15 488 -15 m 349 1122 l 181 1308 l 226 1342 l 408 1203 l 590 1342 l 636 1308 l 467 1122 l 349 1122 m 403 1320 q 345 1343 365 1320 q 326 1400 326 1366 q 347 1463 326 1434 q 413 1491 368 1491 l 414 1491 q 472 1468 452 1491 q 491 1411 491 1445 q 470 1349 491 1377 q 404 1320 449 1320 l 403 1320 z "},"Ş":{"ha":817,"x_min":97,"x_max":757,"o":"m 397 -15 q 262 0 322 -15 q 160 31 202 15 q 97 49 118 47 l 108 296 l 180 296 l 201 114 q 248 85 217 99 q 319 62 278 71 q 404 53 360 53 q 539 76 488 53 q 613 143 590 100 q 636 246 636 187 q 603 348 636 307 q 514 419 570 389 q 388 478 458 449 q 295 520 344 496 q 204 581 247 545 q 134 665 161 616 q 108 782 108 715 q 148 918 108 860 q 263 1010 189 977 q 435 1043 336 1043 q 523 1036 482 1043 q 598 1021 564 1030 q 657 1004 632 1012 q 698 993 683 996 l 690 765 l 620 765 l 595 938 q 561 955 585 946 q 502 971 537 965 q 428 978 468 978 q 311 959 358 978 q 241 903 264 941 q 217 810 217 866 q 248 708 217 747 q 333 641 278 669 q 460 579 388 613 q 563 528 511 556 q 659 467 615 501 q 730 385 703 432 q 757 276 757 339 q 735 171 757 223 q 668 77 713 119 q 556 10 624 35 q 397 -15 488 -15 m 378 -326 q 322 -321 350 -326 q 274 -308 293 -315 l 274 -226 q 309 -234 289 -231 q 340 -237 329 -237 q 418 -220 391 -237 q 445 -139 445 -202 q 436 -81 445 -110 q 416 -31 427 -53 q 398 0 404 -9 l 430 0 l 455 0 q 490 -42 469 -13 q 527 -109 511 -70 q 542 -192 542 -148 q 522 -269 542 -239 q 465 -312 502 -299 q 378 -326 428 -326 z "},"Ŝ":{"ha":817,"x_min":97,"x_max":757,"o":"m 397 -15 q 262 0 322 -15 q 160 31 202 15 q 97 49 118 47 l 108 296 l 180 296 l 201 114 q 248 85 217 99 q 319 62 278 71 q 404 53 360 53 q 539 76 488 53 q 613 143 590 100 q 636 246 636 187 q 603 348 636 307 q 514 419 570 389 q 388 478 458 449 q 295 520 344 496 q 204 581 247 545 q 134 665 161 616 q 108 782 108 715 q 148 918 108 860 q 263 1010 189 977 q 435 1043 336 1043 q 523 1036 482 1043 q 598 1021 564 1030 q 657 1004 632 1012 q 698 993 683 996 l 690 765 l 620 765 l 595 938 q 561 955 585 946 q 502 971 537 965 q 428 978 468 978 q 311 959 358 978 q 241 903 264 941 q 217 810 217 866 q 248 708 217 747 q 333 641 278 669 q 460 579 388 613 q 563 528 511 556 q 659 467 615 501 q 730 385 703 432 q 757 276 757 339 q 735 171 757 223 q 668 77 713 119 q 556 10 624 35 q 397 -15 488 -15 m 226 1114 l 181 1149 l 349 1340 l 467 1340 l 636 1149 l 590 1114 l 408 1260 l 226 1114 z "},"Ș":{"ha":817,"x_min":97,"x_max":757,"o":"m 397 -15 q 262 0 322 -15 q 160 31 202 15 q 97 49 118 47 l 108 296 l 180 296 l 201 114 q 248 85 217 99 q 319 62 278 71 q 404 53 360 53 q 539 76 488 53 q 613 143 590 100 q 636 246 636 187 q 603 348 636 307 q 514 419 570 389 q 388 478 458 449 q 295 520 344 496 q 204 581 247 545 q 134 665 161 616 q 108 782 108 715 q 148 918 108 860 q 263 1010 189 977 q 435 1043 336 1043 q 523 1036 482 1043 q 598 1021 564 1030 q 657 1004 632 1012 q 698 993 683 996 l 690 765 l 620 765 l 595 938 q 561 955 585 946 q 502 971 537 965 q 428 978 468 978 q 311 959 358 978 q 241 903 264 941 q 217 810 217 866 q 248 708 217 747 q 333 641 278 669 q 460 579 388 613 q 563 528 511 556 q 659 467 615 501 q 730 385 703 432 q 757 276 757 339 q 735 171 757 223 q 668 77 713 119 q 556 10 624 35 q 397 -15 488 -15 m 484 -200 q 461 -287 484 -249 q 413 -347 438 -325 q 380 -372 388 -369 l 378 -372 l 341 -346 l 341 -337 q 375 -300 362 -327 q 388 -251 388 -273 q 379 -219 388 -231 q 359 -201 369 -208 q 341 -183 349 -194 q 333 -150 333 -172 q 344 -111 333 -124 q 372 -93 356 -98 q 397 -89 387 -89 l 399 -89 q 461 -117 438 -89 q 484 -200 484 -146 z "},"Ṡ":{"ha":817,"x_min":97,"x_max":757,"o":"m 397 -15 q 262 0 322 -15 q 160 31 202 15 q 97 49 118 47 l 108 296 l 180 296 l 201 114 q 248 85 217 99 q 319 62 278 71 q 404 53 360 53 q 539 76 488 53 q 613 143 590 100 q 636 246 636 187 q 603 348 636 307 q 514 419 570 389 q 388 478 458 449 q 295 520 344 496 q 204 581 247 545 q 134 665 161 616 q 108 782 108 715 q 148 918 108 860 q 263 1010 189 977 q 435 1043 336 1043 q 523 1036 482 1043 q 598 1021 564 1030 q 657 1004 632 1012 q 698 993 683 996 l 690 765 l 620 765 l 595 938 q 561 955 585 946 q 502 971 537 965 q 428 978 468 978 q 311 959 358 978 q 241 903 264 941 q 217 810 217 866 q 248 708 217 747 q 333 641 278 669 q 460 579 388 613 q 563 528 511 556 q 659 467 615 501 q 730 385 703 432 q 757 276 757 339 q 735 171 757 223 q 668 77 713 119 q 556 10 624 35 q 397 -15 488 -15 m 403 1133 q 345 1156 365 1133 q 326 1213 326 1179 q 347 1276 326 1247 q 413 1304 368 1304 l 414 1304 q 472 1281 452 1304 q 491 1224 491 1258 q 470 1162 491 1190 q 404 1133 449 1133 l 403 1133 z "},"Ṣ":{"ha":817,"x_min":97,"x_max":757,"o":"m 397 -15 q 262 0 322 -15 q 160 31 202 15 q 97 49 118 47 l 108 296 l 180 296 l 201 114 q 248 85 217 99 q 319 62 278 71 q 404 53 360 53 q 539 76 488 53 q 613 143 590 100 q 636 246 636 187 q 603 348 636 307 q 514 419 570 389 q 388 478 458 449 q 295 520 344 496 q 204 581 247 545 q 134 665 161 616 q 108 782 108 715 q 148 918 108 860 q 263 1010 189 977 q 435 1043 336 1043 q 523 1036 482 1043 q 598 1021 564 1030 q 657 1004 632 1012 q 698 993 683 996 l 690 765 l 620 765 l 595 938 q 561 955 585 946 q 502 971 537 965 q 428 978 468 978 q 311 959 358 978 q 241 903 264 941 q 217 810 217 866 q 248 708 217 747 q 333 641 278 669 q 460 579 388 613 q 563 528 511 556 q 659 467 615 501 q 730 385 703 432 q 757 276 757 339 q 735 171 757 223 q 668 77 713 119 q 556 10 624 35 q 397 -15 488 -15 m 397 -274 q 340 -251 360 -274 q 321 -194 321 -228 q 342 -131 321 -160 q 406 -103 363 -103 l 408 -103 q 464 -126 444 -103 q 483 -183 483 -149 q 462 -245 483 -217 q 398 -274 441 -274 l 397 -274 z "},"Ṩ":{"ha":817,"x_min":97,"x_max":757,"o":"m 397 -15 q 262 0 322 -15 q 160 31 202 15 q 97 49 118 47 l 108 296 l 180 296 l 201 114 q 248 85 217 99 q 319 62 278 71 q 404 53 360 53 q 539 76 488 53 q 613 143 590 100 q 636 246 636 187 q 603 348 636 307 q 514 419 570 389 q 388 478 458 449 q 295 520 344 496 q 204 581 247 545 q 134 665 161 616 q 108 782 108 715 q 148 918 108 860 q 263 1010 189 977 q 435 1043 336 1043 q 523 1036 482 1043 q 598 1021 564 1030 q 657 1004 632 1012 q 698 993 683 996 l 690 765 l 620 765 l 595 938 q 561 955 585 946 q 502 971 537 965 q 428 978 468 978 q 311 959 358 978 q 241 903 264 941 q 217 810 217 866 q 248 708 217 747 q 333 641 278 669 q 460 579 388 613 q 563 528 511 556 q 659 467 615 501 q 730 385 703 432 q 757 276 757 339 q 735 171 757 223 q 668 77 713 119 q 556 10 624 35 q 397 -15 488 -15 m 397 -274 q 340 -251 360 -274 q 321 -194 321 -228 q 342 -131 321 -160 q 406 -103 363 -103 l 408 -103 q 464 -126 444 -103 q 483 -183 483 -149 q 462 -245 483 -217 q 398 -274 441 -274 l 397 -274 m 403 1133 q 345 1156 365 1133 q 326 1213 326 1179 q 347 1276 326 1247 q 413 1304 368 1304 l 414 1304 q 472 1281 452 1304 q 491 1224 491 1258 q 470 1162 491 1190 q 404 1133 449 1133 l 403 1133 z "},"ẞ":{"ha":1008,"x_min":55,"x_max":934,"o":"m 647 -15 q 540 -2 588 -15 q 456 26 492 12 q 402 42 421 40 l 410 278 l 481 278 l 505 103 q 545 75 523 87 q 594 57 567 63 q 654 50 621 50 q 716 61 687 50 q 767 97 745 72 q 802 163 790 122 q 815 264 815 204 q 798 383 815 332 q 744 471 781 434 q 650 533 708 508 q 512 576 592 559 l 512 621 l 751 920 q 686 943 723 935 q 604 955 649 951 q 509 959 560 959 q 358 935 413 959 q 280 851 303 910 q 258 685 258 792 l 258 0 l 55 0 l 55 58 l 141 72 l 141 654 q 167 805 141 734 q 246 928 194 875 q 378 1013 299 982 q 562 1043 457 1043 q 657 1039 612 1043 q 744 1025 703 1034 q 820 1003 785 1017 q 886 974 856 990 l 886 925 l 638 608 q 768 564 713 591 q 860 497 824 536 q 916 404 897 457 q 934 285 934 351 q 898 120 934 188 q 797 19 862 53 q 647 -15 733 -15 z "},"Ꞩ":{"ha":823,"x_min":97,"x_max":763,"o":"m 403 -15 q 264 0 325 -15 q 160 31 203 15 q 97 49 118 47 l 108 296 l 180 296 l 201 114 q 248 85 217 99 q 321 62 279 71 q 410 53 363 53 q 545 76 494 53 q 619 143 596 100 q 642 246 642 187 q 609 350 642 307 q 520 424 576 392 q 394 485 464 456 q 301 526 350 503 q 209 584 252 550 q 138 666 165 618 q 110 782 110 715 q 151 918 110 860 q 265 1010 192 977 q 438 1043 339 1043 q 526 1036 485 1043 q 601 1021 567 1030 q 660 1004 635 1012 q 701 993 685 996 l 692 765 l 623 765 l 598 938 q 564 955 588 946 q 505 971 540 965 q 431 978 471 978 q 314 959 360 978 q 243 903 267 941 q 220 810 220 866 q 251 710 220 750 q 338 638 283 669 q 466 572 394 606 q 569 523 517 549 q 666 463 622 497 q 736 384 710 430 q 763 276 763 339 q 741 171 763 223 q 674 77 719 119 q 562 10 630 35 q 403 -15 494 -15 m 163 389 l 163 467 l 376 553 l 422 570 l 669 669 l 669 591 l 489 519 l 433 497 l 163 389 z "},"T":{"ha":946,"x_min":31,"x_max":915,"o":"m 413 72 l 413 969 l 153 961 l 107 679 l 31 679 l 56 1032 l 892 1032 l 915 679 l 839 679 l 794 961 l 533 969 l 533 72 l 725 60 l 725 0 l 225 0 l 225 60 l 413 72 z "},"Ŧ":{"ha":946,"x_min":31,"x_max":915,"o":"m 413 72 l 413 969 l 153 961 l 107 679 l 31 679 l 56 1032 l 892 1032 l 915 679 l 839 679 l 794 961 l 533 969 l 533 72 l 725 60 l 725 0 l 225 0 l 225 60 l 413 72 m 704 558 l 704 485 l 243 485 l 243 558 l 704 558 z "},"Ť":{"ha":946,"x_min":31,"x_max":915,"o":"m 413 72 l 413 969 l 153 961 l 107 679 l 31 679 l 56 1032 l 892 1032 l 915 679 l 839 679 l 794 961 l 533 969 l 533 72 l 725 60 l 725 0 l 225 0 l 225 60 l 413 72 m 414 1122 l 245 1308 l 291 1342 l 473 1203 l 655 1342 l 701 1308 l 532 1122 l 414 1122 z "},"Ţ":{"ha":946,"x_min":31,"x_max":915,"o":"m 413 72 l 413 969 l 153 961 l 107 679 l 31 679 l 56 1032 l 892 1032 l 915 679 l 839 679 l 794 961 l 533 969 l 533 72 l 725 60 l 725 0 l 225 0 l 225 60 l 413 72 m 442 -326 q 386 -321 415 -326 q 339 -308 358 -315 l 339 -226 q 374 -234 353 -231 q 404 -237 394 -237 q 483 -220 456 -237 q 510 -139 510 -202 q 501 -81 510 -110 q 480 -31 492 -53 q 463 0 469 -9 l 494 0 l 519 0 q 555 -42 534 -13 q 591 -109 576 -70 q 607 -192 607 -148 q 587 -269 607 -239 q 530 -312 567 -299 q 442 -326 493 -326 z "},"Ṱ":{"ha":946,"x_min":31,"x_max":915,"o":"m 413 72 l 413 969 l 153 961 l 107 679 l 31 679 l 56 1032 l 892 1032 l 915 679 l 839 679 l 794 961 l 533 969 l 533 72 l 725 60 l 725 0 l 225 0 l 225 60 l 413 72 m 411 -81 l 535 -81 l 713 -313 l 667 -348 l 473 -173 l 278 -348 l 233 -313 l 411 -81 z "},"Ț":{"ha":946,"x_min":31,"x_max":915,"o":"m 413 72 l 413 969 l 153 961 l 107 679 l 31 679 l 56 1032 l 892 1032 l 915 679 l 839 679 l 794 961 l 533 969 l 533 72 l 725 60 l 725 0 l 225 0 l 225 60 l 413 72 m 549 -200 q 526 -287 549 -249 q 477 -347 503 -325 q 444 -372 452 -369 l 443 -372 l 406 -346 l 406 -337 q 440 -300 426 -327 q 453 -251 453 -273 q 443 -219 453 -231 q 424 -201 434 -208 q 405 -183 413 -194 q 397 -150 397 -172 q 409 -111 397 -124 q 436 -93 421 -98 q 461 -89 451 -89 l 464 -89 q 526 -117 503 -89 q 549 -200 549 -146 z "},"Ⱦ":{"ha":946,"x_min":31,"x_max":915,"o":"m 413 72 l 413 969 l 153 961 l 107 679 l 31 679 l 56 1032 l 892 1032 l 915 679 l 839 679 l 794 961 l 533 969 l 533 72 l 725 60 l 725 0 l 225 0 l 225 60 l 413 72 m 245 -106 l 436 535 l 476 577 l 647 1162 l 702 1147 l 526 567 l 483 519 l 299 -120 l 245 -106 z "},"Ṫ":{"ha":946,"x_min":31,"x_max":915,"o":"m 413 72 l 413 969 l 153 961 l 107 679 l 31 679 l 56 1032 l 892 1032 l 915 679 l 839 679 l 794 961 l 533 969 l 533 72 l 725 60 l 725 0 l 225 0 l 225 60 l 413 72 m 467 1133 q 410 1156 429 1133 q 390 1213 390 1179 q 411 1276 390 1247 q 477 1304 433 1304 l 478 1304 q 536 1281 517 1304 q 556 1224 556 1258 q 534 1162 556 1190 q 469 1133 513 1133 l 467 1133 z "},"Ṭ":{"ha":946,"x_min":31,"x_max":915,"o":"m 413 72 l 413 969 l 153 961 l 107 679 l 31 679 l 56 1032 l 892 1032 l 915 679 l 839 679 l 794 961 l 533 969 l 533 72 l 725 60 l 725 0 l 225 0 l 225 60 l 413 72 m 461 -274 q 405 -251 424 -274 q 385 -194 385 -228 q 407 -131 385 -160 q 471 -103 428 -103 l 472 -103 q 528 -126 509 -103 q 548 -183 548 -149 q 527 -245 548 -217 q 463 -274 506 -274 l 461 -274 z "},"Ƭ":{"ha":968,"x_min":31,"x_max":938,"o":"m 247 0 l 247 60 l 435 72 l 435 967 l 327 967 q 215 939 258 967 q 151 863 172 911 q 133 754 131 815 q 154 625 134 692 l 38 625 q 33 658 35 634 q 31 735 31 682 q 46 835 31 783 q 97 932 62 887 q 188 1004 131 976 q 327 1032 245 1032 l 914 1032 l 938 679 l 861 679 l 817 961 l 555 969 l 555 72 l 747 60 l 747 0 l 247 0 z "},"Ṯ":{"ha":946,"x_min":31,"x_max":915,"o":"m 413 72 l 413 969 l 153 961 l 107 679 l 31 679 l 56 1032 l 892 1032 l 915 679 l 839 679 l 794 961 l 533 969 l 533 72 l 725 60 l 725 0 l 225 0 l 225 60 l 413 72 m 670 -136 l 670 -221 l 276 -221 l 276 -136 l 670 -136 z "},"Ʈ":{"ha":946,"x_min":31,"x_max":915,"o":"m 674 -349 q 583 -325 629 -349 q 499 -260 538 -301 q 437 -163 460 -218 q 413 -44 413 -108 l 413 969 l 153 961 l 107 679 l 31 679 l 56 1032 l 892 1032 l 915 679 l 839 679 l 794 961 l 533 969 l 533 -78 q 543 -173 533 -135 q 579 -231 553 -212 q 649 -251 604 -251 q 707 -242 680 -251 q 742 -226 733 -233 l 742 -337 q 718 -345 733 -342 q 674 -349 703 -349 z "},"U":{"ha":1025,"x_min":38,"x_max":1000,"o":"m 526 -11 q 307 38 392 -11 q 182 188 222 88 q 142 442 142 288 l 142 957 l 38 972 l 38 1032 l 378 1032 l 378 972 l 258 957 l 258 429 q 279 250 258 322 q 337 135 299 178 q 425 75 374 93 q 538 57 476 57 q 686 98 626 57 q 777 219 747 139 q 807 418 807 300 l 807 956 l 692 972 l 692 1032 l 1000 1032 l 1000 972 l 894 957 l 894 424 q 867 228 894 310 q 790 93 840 147 q 673 15 740 40 q 526 -11 606 -11 z "},"Ú":{"ha":1025,"x_min":38,"x_max":1000,"o":"m 526 -11 q 307 38 392 -11 q 182 188 222 88 q 142 442 142 288 l 142 957 l 38 972 l 38 1032 l 378 1032 l 378 972 l 258 957 l 258 429 q 279 250 258 322 q 337 135 299 178 q 425 75 374 93 q 538 57 476 57 q 686 98 626 57 q 777 219 747 139 q 807 418 807 300 l 807 956 l 692 972 l 692 1032 l 1000 1032 l 1000 972 l 894 957 l 894 424 q 867 228 894 310 q 790 93 840 147 q 673 15 740 40 q 526 -11 606 -11 m 515 1111 l 470 1149 l 637 1365 l 731 1289 q 688 1239 714 1266 q 631 1187 661 1213 q 570 1141 600 1161 q 516 1111 540 1121 l 515 1111 z "},"Ʉ":{"ha":1025,"x_min":36,"x_max":1000,"o":"m 526 -11 q 307 38 392 -11 q 182 188 222 88 q 142 442 142 288 l 142 957 l 38 972 l 38 1032 l 378 1032 l 378 972 l 258 957 l 258 429 q 279 250 258 322 q 337 135 299 178 q 425 75 374 93 q 538 57 476 57 q 686 98 626 57 q 777 219 747 139 q 807 418 807 300 l 807 956 l 692 972 l 692 1032 l 1000 1032 l 1000 972 l 894 957 l 894 424 q 867 228 894 310 q 790 93 840 147 q 673 15 740 40 q 526 -11 606 -11 m 999 529 l 999 455 l 36 455 l 36 529 l 999 529 z "},"Ŭ":{"ha":1025,"x_min":38,"x_max":1000,"o":"m 526 -11 q 307 38 392 -11 q 182 188 222 88 q 142 442 142 288 l 142 957 l 38 972 l 38 1032 l 378 1032 l 378 972 l 258 957 l 258 429 q 279 250 258 322 q 337 135 299 178 q 425 75 374 93 q 538 57 476 57 q 686 98 626 57 q 777 219 747 139 q 807 418 807 300 l 807 956 l 692 972 l 692 1032 l 1000 1032 l 1000 972 l 894 957 l 894 424 q 867 228 894 310 q 790 93 840 147 q 673 15 740 40 q 526 -11 606 -11 m 517 1129 q 414 1151 458 1129 q 343 1213 369 1173 q 318 1303 318 1252 q 319 1318 318 1310 q 321 1333 319 1326 l 383 1333 q 384 1324 383 1329 q 385 1311 384 1318 q 402 1266 388 1288 q 443 1229 415 1244 q 517 1214 471 1214 q 592 1229 564 1214 q 633 1266 619 1244 q 650 1311 647 1288 q 651 1324 651 1318 q 651 1333 651 1329 l 714 1333 q 716 1318 715 1326 q 717 1303 717 1310 q 691 1213 717 1252 q 621 1151 666 1173 q 517 1129 576 1129 z "},"Ǔ":{"ha":1025,"x_min":38,"x_max":1000,"o":"m 526 -11 q 307 38 392 -11 q 182 188 222 88 q 142 442 142 288 l 142 957 l 38 972 l 38 1032 l 378 1032 l 378 972 l 258 957 l 258 429 q 279 250 258 322 q 337 135 299 178 q 425 75 374 93 q 538 57 476 57 q 686 98 626 57 q 777 219 747 139 q 807 418 807 300 l 807 956 l 692 972 l 692 1032 l 1000 1032 l 1000 972 l 894 957 l 894 424 q 867 228 894 310 q 790 93 840 147 q 673 15 740 40 q 526 -11 606 -11 m 458 1122 l 290 1308 l 335 1342 l 517 1203 l 699 1342 l 745 1308 l 576 1122 l 458 1122 z "},"Û":{"ha":1025,"x_min":38,"x_max":1000,"o":"m 526 -11 q 307 38 392 -11 q 182 188 222 88 q 142 442 142 288 l 142 957 l 38 972 l 38 1032 l 378 1032 l 378 972 l 258 957 l 258 429 q 279 250 258 322 q 337 135 299 178 q 425 75 374 93 q 538 57 476 57 q 686 98 626 57 q 777 219 747 139 q 807 418 807 300 l 807 956 l 692 972 l 692 1032 l 1000 1032 l 1000 972 l 894 957 l 894 424 q 867 228 894 310 q 790 93 840 147 q 673 15 740 40 q 526 -11 606 -11 m 335 1114 l 290 1149 l 458 1340 l 576 1340 l 745 1149 l 699 1114 l 517 1260 l 335 1114 z "},"Ṷ":{"ha":1025,"x_min":38,"x_max":1000,"o":"m 526 -11 q 307 38 392 -11 q 182 188 222 88 q 142 442 142 288 l 142 957 l 38 972 l 38 1032 l 378 1032 l 378 972 l 258 957 l 258 429 q 279 250 258 322 q 337 135 299 178 q 425 75 374 93 q 538 57 476 57 q 686 98 626 57 q 777 219 747 139 q 807 418 807 300 l 807 956 l 692 972 l 692 1032 l 1000 1032 l 1000 972 l 894 957 l 894 424 q 867 228 894 310 q 790 93 840 147 q 673 15 740 40 q 526 -11 606 -11 m 456 -81 l 579 -81 l 758 -313 l 712 -348 l 517 -173 l 323 -348 l 277 -313 l 456 -81 z "},"Ȕ":{"ha":1025,"x_min":38,"x_max":1000,"o":"m 526 -11 q 307 38 392 -11 q 182 188 222 88 q 142 442 142 288 l 142 957 l 38 972 l 38 1032 l 378 1032 l 378 972 l 258 957 l 258 429 q 279 250 258 322 q 337 135 299 178 q 425 75 374 93 q 538 57 476 57 q 686 98 626 57 q 777 219 747 139 q 807 418 807 300 l 807 956 l 692 972 l 692 1032 l 1000 1032 l 1000 972 l 894 957 l 894 424 q 867 228 894 310 q 790 93 840 147 q 673 15 740 40 q 526 -11 606 -11 m 403 1114 q 351 1149 380 1128 q 293 1195 323 1170 q 237 1248 264 1221 q 189 1303 210 1276 l 269 1368 l 450 1157 l 405 1114 l 403 1114 m 656 1114 q 589 1164 625 1133 q 518 1230 553 1194 q 456 1303 483 1267 l 535 1368 l 702 1151 l 658 1114 l 656 1114 z "},"Ü":{"ha":1025,"x_min":38,"x_max":1000,"o":"m 526 -11 q 307 38 392 -11 q 182 188 222 88 q 142 442 142 288 l 142 957 l 38 972 l 38 1032 l 378 1032 l 378 972 l 258 957 l 258 429 q 279 250 258 322 q 337 135 299 178 q 425 75 374 93 q 538 57 476 57 q 686 98 626 57 q 777 219 747 139 q 807 418 807 300 l 807 956 l 692 972 l 692 1032 l 1000 1032 l 1000 972 l 894 957 l 894 424 q 867 228 894 310 q 790 93 840 147 q 673 15 740 40 q 526 -11 606 -11 m 392 1133 q 345 1156 363 1133 q 327 1213 327 1179 q 347 1276 327 1247 q 402 1304 367 1304 l 403 1304 q 451 1281 433 1304 q 469 1224 469 1258 q 449 1162 469 1190 q 394 1133 429 1133 l 392 1133 m 633 1133 q 585 1156 603 1133 q 567 1213 567 1179 q 587 1276 567 1247 q 642 1304 607 1304 l 644 1304 q 691 1281 673 1304 q 709 1224 709 1258 q 689 1162 709 1190 q 634 1133 669 1133 l 633 1133 z "}}}
